<?xml version="1.0" standalone="no"?>
<!DOCTYPE svg PUBLIC "-//W3C//DTD SVG 1.1//EN" "http://www.w3.org/Graphics/SVG/1.1/DTD/svg11.dtd" >
<svg xmlns="http://www.w3.org/2000/svg" xmlns:xlink="http://www.w3.org/1999/xlink" version="1.1">
<metadata>
Created by FontForge 20200427 at Mon Jul 18 17:09:29 2016
 By www
</metadata>
<defs>
<font id="LatinaW00-Bold" horiz-adv-x="0" >
  <font-face 
    font-family="LatinaW00-Bold"
    font-weight="700"
    font-stretch="normal"
    units-per-em="1000"
    panose-1="1 0 0 0 0 0 0 0 0 0"
    ascent="800"
    descent="-200"
    x-height="548"
    cap-height="721"
    bbox="-794 -288 1279 941"
    underline-thickness="50"
    underline-position="-125"
    unicode-range="U+0020-FB02"
  />
<missing-glyph horiz-adv-x="597" 
 />
    <glyph glyph-name="uniFB01" unicode="fi" horiz-adv-x="679" 
d="M524 537l84 14v-551h-156v425h-176v-425h-156v425h-95v99l95 10v29q0 47 18 87.5t53 71t86.5 47t114.5 16.5q101 0 167 -44l-40 -109h-2q-42 39 -108 39t-99.5 -33t-33.5 -87v-23z" />
    <glyph glyph-name="uniFB02" unicode="fl" horiz-adv-x="705" 
d="M633 775h1v-775h-156v654q-32 20 -74 20q-30 0 -60 -11.5t-49 -43t-19 -72.5v-20l123 9l-6 -112h-117v-424h-156v424h-95v100l95 9v23q0 48 18.5 90t53.5 73t84.5 48.5t109.5 17.5q66 0 124 -30z" />
    <glyph glyph-name="f_f.liga" unicode="ff" horiz-adv-x="813" 
d="M717 787q79 0 138 -32l-40 -113h-2q-13 13 -30.5 21.5t-48.5 8.5q-48 0 -74 -29t-26 -96v-17l166 9l-6 -112h-160v-427h-156v427h-202v-427h-156v427h-95v99l95 10v4q0 48 18.5 90t53.5 73.5t86 48.5t113 17q88 0 155 -37q64 55 171 55zM276 530l202 7v21q0 40 9 74
q-36 26 -82 26q-64 0 -96.5 -36t-32.5 -91v-1z" />
    <glyph glyph-name=".notdef" horiz-adv-x="597" 
 />
    <glyph glyph-name=".null" 
 />
    <glyph glyph-name="nonmarkingreturn" horiz-adv-x="333" 
 />
    <glyph glyph-name="space" unicode=" " horiz-adv-x="242" 
 />
    <glyph glyph-name="exclam" unicode="!" horiz-adv-x="313" 
d="M96 245l-26 508l172 26l2 -1l-26 -533h-122zM154 -9q-41 0 -66 23.5t-25 61.5t26.5 63.5t68.5 25.5q41 0 66 -23t25 -61q0 -39 -26.5 -64.5t-68.5 -25.5z" />
    <glyph glyph-name="quotedbl" unicode="&#x22;" horiz-adv-x="459" 
d="M55 775h144l-19 -289h-106zM260 775h144l-19 -289h-106z" />
    <glyph glyph-name="numbersign" unicode="#" horiz-adv-x="701" 
d="M660 432h-124l-27 -147h112v-107h-131l-33 -178h-109l32 178h-123l-33 -178h-109l32 178h-106v107h126l26 147h-113v107h133l33 182h109l-33 -182h123l33 182h110l-33 -182h105v-107zM399 285l27 147h-123l-27 -147h123z" />
    <glyph glyph-name="dollar" unicode="$" horiz-adv-x="550" 
d="M506 240q0 -70 -46 -113.5t-132 -54.5l14 -104h-152l13 104q-97 11 -161 51l39 108h2q32 -27 76 -43t92 -16q47 0 72.5 17t25.5 47q0 24 -20 42t-95 40.5t-104.5 41.5t-43.5 37.5t-21 40.5t-7 48q0 67 43 110t125 55l-13 109h152l-13 -109q74 -10 141 -48l-39 -108h-3
q-76 56 -154 56q-41 0 -64.5 -17.5t-23.5 -44.5q0 -22 19.5 -37.5t96 -37.5t111 -44t52.5 -53t18 -77z" />
    <glyph glyph-name="percent" unicode="%" horiz-adv-x="868" 
d="M201 731q76 0 119 -48.5t43 -145.5q0 -96 -43.5 -145t-120.5 -49q-76 0 -119 48.5t-43 143.5q0 97 43.5 146.5t120.5 49.5zM600 721h100l-430 -721h-99zM200 429q64 0 64 108q0 106 -63 106q-65 0 -65 -108q0 -58 17 -82t47 -24zM667 379q76 0 119.5 -48.5t43.5 -145.5
t-43.5 -146t-121.5 -49q-76 0 -118.5 48.5t-42.5 144.5q0 97 43 146.5t120 49.5zM666 77q30 0 47 24.5t17 83.5q0 106 -63 106q-64 0 -64 -109q0 -57 16.5 -81t46.5 -24z" />
    <glyph glyph-name="ampersand" unicode="&#x26;" horiz-adv-x="789" 
d="M591 176l166 -174v-2h-193l-72 76q-48 -43 -100.5 -64.5t-115.5 -21.5q-52 0 -96 14.5t-74.5 41.5t-47 65t-16.5 83q0 138 155 222q-46 68 -46 131q0 37 14 70.5t43 59t75 40t106 14.5q61 0 115 -15t94 -42l-38 -124h-2q-71 55 -146 55q-45 0 -70 -22.5t-25 -58.5
q0 -32 28 -76.5t110 -130.5l51 -52q10 30 17 72.5t7 81.5l2 2h209v-127l-102 8q-16 -65 -48 -126zM298 101q80 0 134 77l-166 157q-78 -49 -78 -130q0 -24 10 -49t36.5 -40t63.5 -15z" />
    <glyph glyph-name="quotesingle" unicode="'" horiz-adv-x="254" 
d="M55 775h144l-19 -289h-106z" />
    <glyph glyph-name="parenleft" unicode="(" horiz-adv-x="345" 
d="M173 307q0 -58 12.5 -141.5t51.5 -170.5t97 -140l-1 -2l-114 -14q-172 172 -172 468q0 144 44 263.5t128 204.5l114 -14l1 -2q-58 -53 -97 -140t-51.5 -171t-12.5 -141z" />
    <glyph glyph-name="parenright" unicode=")" horiz-adv-x="345" 
d="M11 759l1 2l114 14q84 -85 128 -204.5t44 -263.5q0 -296 -172 -468l-114 14l-1 2q58 53 97 140t51.5 170.5t12.5 141.5q0 57 -12.5 141t-51.5 171t-97 140z" />
    <glyph glyph-name="asterisk" unicode="*" horiz-adv-x="542" 
d="M497 560l-166 -15v-1l129 -119l-118 -86l-70 164h-2l-72 -164l-118 86l132 120l-1 1l-166 15l45 131l144 -91l1 1l-35 173h145l-36 -173l1 -2l143 91z" />
    <glyph glyph-name="plus" unicode="+" horiz-adv-x="501" 
d="M459 422v-111h-153v-167h-111v167h-153v111h153v167h111v-167h153z" />
    <glyph glyph-name="comma" unicode="," horiz-adv-x="277" 
d="M218 136q-5 -72 -24.5 -125.5t-51.5 -96t-82 -86.5l-81 56v2q27 27 50.5 63.5t33.5 83t7 103.5h148z" />
    <glyph glyph-name="hyphen" unicode="-" horiz-adv-x="470" 
d="M68 326h336l-5 -112l-331 7v105z" />
    <glyph glyph-name="period" unicode="." horiz-adv-x="285" 
d="M140 -9q-41 0 -66 23.5t-25 61.5t26.5 63.5t68.5 25.5q41 0 66.5 -23t25.5 -61t-27 -64t-69 -26z" />
    <glyph glyph-name="slash" unicode="/" horiz-adv-x="446" 
d="M271 721h143l-239 -721h-143z" />
    <glyph glyph-name="zero" unicode="0" horiz-adv-x="681" 
d="M342 560q67 0 121.5 -21.5t92 -60t57 -91.5t19.5 -113t-19.5 -112t-57 -91t-93 -60.5t-123.5 -21.5q-67 0 -122 21t-92 59.5t-56.5 90.5t-19.5 111q0 60 19.5 113.5t57 92.5t93 61t123.5 22zM339 124q70 0 109 42.5t39 109.5t-38 108.5t-107 41.5q-70 0 -109 -43
t-39 -109q0 -23 5.5 -48.5t21.5 -48t45 -38t73 -15.5z" />
    <glyph glyph-name="one" unicode="1" horiz-adv-x="535" 
d="M368 110h140v-110h-452v110h158v329l-157 -5v114h311v-438z" />
    <glyph glyph-name="two" unicode="2" horiz-adv-x="591" 
d="M239 103l306 11v-114h-490l-2 98l211 154q54 38 74.5 63t20.5 51q0 33 -26 53.5t-75 20.5q-81 0 -168 -62h-2l-40 120q56 30 110 45t113 15q114 0 178.5 -47t64.5 -127q0 -117 -159 -209z" />
    <glyph glyph-name="three" unicode="3" horiz-adv-x="544" 
d="M362 229q46 -14 78 -42.5t43.5 -62t11.5 -61.5q0 -35 -16 -76.5t-54 -76.5t-86.5 -58t-115 -36t-145.5 -13l-42 117l1 2q59 0 115 7.5t96.5 25t63.5 44t23 63.5q0 47 -42 72.5t-125 25.5h-42v106h34q81 0 124.5 27t43.5 72q0 35 -26.5 55t-77.5 20q-32 0 -65 -11.5
t-78 -39.5h-2l-40 116q83 53 205 53q75 0 128 -20t83.5 -57.5t30.5 -89.5q0 -41 -21 -76.5t-50 -55.5t-53 -30z" />
    <glyph glyph-name="four" unicode="4" horiz-adv-x="632" 
d="M597 112l-3 -105h-99v-157h-147v157h-321v93l306 448h162v-438zM353 382l-195 -279l195 4v275z" />
    <glyph glyph-name="five" unicode="5" horiz-adv-x="539" 
d="M256 279q57 0 103 -15t77 -42.5t47 -64.5t16 -80q0 -59 -29 -109.5t-83.5 -87.5t-133 -57t-173.5 -20l-42 116l1 2q147 0 225 36t78 110q0 48 -31.5 75t-93.5 27q-46 0 -109 -17h-2l-41 81l18 315h389v-119l-265 8l-8 -162q25 4 57 4z" />
    <glyph glyph-name="six" unicode="6" horiz-adv-x="637" 
d="M356 457q56 0 101 -17t75 -48t45.5 -72.5t15.5 -88.5q0 -50 -18 -95t-52.5 -78t-86 -51.5t-114.5 -18.5q-129 0 -201 76t-72 215q0 45 11.5 103.5t43 119.5t79 110.5t109 83t123 46.5t109.5 13l41 -120l-2 -4q-50 -1 -102.5 -11t-99.5 -35t-85 -65.5t-60 -98.5
q65 36 140 36zM325 109q54 0 83.5 33t29.5 89q0 54 -28 86.5t-84 32.5q-30 0 -63 -10t-56 -27q-7 -24 -7 -53q0 -73 33 -112t92 -39z" />
    <glyph glyph-name="seven" unicode="7" horiz-adv-x="556" 
d="M532 548l6 -98q-176 -290 -271 -599h-168l-1 2q110 296 291 582l-363 -15v128h506z" />
    <glyph glyph-name="eight" unicode="8" horiz-adv-x="625" 
d="M455 371q117 -63 117 -175q0 -34 -12 -70t-46 -70t-90 -51t-117 -17q-60 0 -108.5 14.5t-81.5 42t-50 66t-17 84.5q0 118 114 192q-89 59 -89 163q0 92 64 148.5t179 56.5q112 0 176 -55t64 -149q0 -54 -25.5 -97.5t-77.5 -82.5zM319 641q-48 0 -76.5 -26.5t-28.5 -66.5
q0 -37 28 -66t119 -67q61 51 61 122q0 48 -27.5 76t-75.5 28zM310 103q26 0 55 10t47 34.5t18 55.5q0 33 -19.5 55.5t-48.5 37.5t-98 42q-75 -53 -75 -123q0 -24 10.5 -50.5t40 -44t70.5 -17.5z" />
    <glyph glyph-name="nine" unicode="9" horiz-adv-x="632" 
d="M312 558q130 0 202 -77t72 -212q0 -91 -33.5 -175.5t-97 -150t-155 -102.5t-199.5 -37l-41 121l3 3q92 0 161 21.5t119 65.5t76 115q-66 -36 -139 -36q-56 0 -101 17t-75 47t-45.5 71t-15.5 87q0 50 18 94.5t52.5 77.5t85 51.5t113.5 18.5zM198 316q0 -51 27.5 -82.5
t83.5 -31.5q28 0 62 9t57 27q7 31 7 58q0 66 -34 103.5t-91 37.5q-54 0 -83 -33.5t-29 -87.5z" />
    <glyph glyph-name="colon" unicode=":" horiz-adv-x="304" 
d="M150 336q-39 0 -63 22t-24 58q0 37 25.5 61t65.5 24q39 0 63 -22t24 -58q0 -37 -25.5 -61t-65.5 -24zM150 -9q-38 0 -62.5 22.5t-24.5 57.5q0 37 25.5 61t65.5 24q39 0 63 -22t24 -58t-25.5 -60.5t-65.5 -24.5z" />
    <glyph glyph-name="semicolon" unicode=";" horiz-adv-x="310" 
d="M157 336q-39 0 -63 22t-24 58q0 37 25.5 61t65.5 24q39 0 62.5 -22t23.5 -58q0 -27 -14.5 -48t-35.5 -29t-40 -8zM233 136q-7 -96 -42 -167.5t-111 -137.5l-81 57v2q52 53 71 110.5t15 134.5z" />
    <glyph glyph-name="less" unicode="&#x3c;" horiz-adv-x="526" 
d="M457 582v-124l-295 -97l295 -96v-125l-413 154v134z" />
    <glyph glyph-name="equal" unicode="=" horiz-adv-x="558" 
d="M70 514h417v-111h-417v111zM70 292h417v-111h-417v111z" />
    <glyph glyph-name="greater" unicode="&#x3e;" horiz-adv-x="526" 
d="M69 582l413 -154v-134l-413 -154v125l295 96l-295 97v124z" />
    <glyph glyph-name="question" unicode="?" horiz-adv-x="532" 
d="M167 417q93 38 132.5 77.5t39.5 81.5q0 36 -25.5 58.5t-74.5 22.5q-78 0 -166 -59h-2l-43 127q52 30 112 45t120 15q116 0 175.5 -50.5t59.5 -136.5q0 -72 -45.5 -128t-147.5 -102l-7 -126h-122zM231 -9q-40 0 -65.5 23.5t-25.5 61.5t26.5 63.5t68.5 25.5q19 0 41 -7.5
t36.5 -28t14.5 -48.5q0 -38 -27 -64t-69 -26z" />
    <glyph glyph-name="at" unicode="@" horiz-adv-x="871" 
d="M614 394v-143q-1 -47 35 -47q23 0 38.5 22.5t15.5 71.5q0 51 -18.5 92.5t-52 70.5t-81.5 44t-105 15q-63 0 -114.5 -19t-86.5 -53.5t-53 -82.5t-18 -105q0 -56 17.5 -102.5t51.5 -79.5t85.5 -51t115.5 -18q68 0 127 18t95 46h1l38 -102q-42 -29 -114 -49t-155 -20
q-99 0 -174 29t-122.5 78.5t-70 113.5t-22.5 133q0 73 24.5 140t75 119t128 82t176.5 30q87 0 158 -23.5t120 -66t74.5 -101t25.5 -126.5q0 -65 -22 -110t-64 -71.5t-102 -26.5q-34 0 -66.5 10t-52.5 29q-46 -48 -119 -48q-72 0 -112.5 46t-40.5 119q0 86 55 137t143 51
q89 0 166 -52zM433 186q25 0 44.5 17t19.5 50v88q-24 14 -52 12q-34 -2 -54.5 -24.5t-20.5 -61.5q0 -37 18 -59t45 -22z" />
    <glyph glyph-name="A" unicode="A" horiz-adv-x="717" 
d="M544 0l-58 168l-257 4l-59 -172h-165l268 721h171l268 -721h-168zM323 478l-61 -190l191 1l-62 189q-19 58 -31 111l-2 -2l-4 3q-12 -53 -31 -112z" />
    <glyph glyph-name="B" unicode="B" horiz-adv-x="715" 
d="M541 376q63 -19 97 -62.5t34 -109.5q0 -216 -372 -216q-92 0 -215 14v717q114 14 202 14q356 0 356 -198q0 -51 -24.5 -91.5t-77.5 -64.5v-3zM314 622l-69 -2v-200h105q71 0 104.5 24t33.5 73q0 53 -40.5 79t-133.5 26zM306 103q71 0 114.5 10.5t65 33t21.5 63.5
q0 52 -35 76.5t-106 24.5h-121v-206z" />
    <glyph glyph-name="C" unicode="C" horiz-adv-x="658" 
d="M416 592q-98 0 -149.5 -64t-51.5 -173q0 -107 50 -166.5t149 -59.5q97 0 171 59h1l45 -133q-103 -65 -237 -65q-83 0 -149 27.5t-110 76.5t-66 116.5t-22 146.5q0 80 23 149t68.5 119t115 78t157.5 28q122 0 211 -52l-47 -138h-2q-24 19 -63.5 35t-93.5 16z" />
    <glyph glyph-name="D" unicode="D" horiz-adv-x="772" 
d="M287 733q112 0 196 -27t137.5 -77t79 -120.5t25.5 -158.5q0 -85 -26 -152.5t-79.5 -114t-137 -71t-195.5 -24.5q-87 0 -202 14v717q138 14 202 14zM292 122q139 0 203.5 58.5t64.5 171.5q0 127 -68 187t-201 60l-46 -1v-475z" />
    <glyph glyph-name="E" unicode="E" horiz-adv-x="637" 
d="M245 120l343 8v-128h-503v721h493v-128l-333 8v-181l287 6v-127l-287 6v-185z" />
    <glyph glyph-name="F" unicode="F" horiz-adv-x="614" 
d="M578 593l-333 9v-205l287 5v-127l-287 6v-281h-160v721h493v-128z" />
    <glyph glyph-name="G" unicode="G" horiz-adv-x="727" 
d="M526 366h146v-313q-51 -29 -118 -46t-142 -17q-93 0 -163.5 27t-115 76t-65.5 115.5t-21 144.5q0 84 24 154t71.5 120t119 77t162.5 27q65 0 126 -13.5t104 -35.5l-48 -140h-2q-35 25 -80.5 38.5t-93.5 13.5q-104 0 -159.5 -63t-55.5 -180q0 -110 52 -168.5t153 -58.5
q56 0 112 20z" />
    <glyph glyph-name="H" unicode="H" horiz-adv-x="797" 
d="M552 721h160v-721h-160v300l-307 5v-305h-160v721h160v-296l307 3v293z" />
    <glyph glyph-name="I" unicode="I" horiz-adv-x="330" 
d="M85 0v721h160v-721h-160z" />
    <glyph glyph-name="J" unicode="J" horiz-adv-x="330" 
d="M86 721h161v-610q0 -117 -45 -189.5t-143 -113.5l-94 105v2q68 25 94.5 69.5t26.5 118.5v618z" />
    <glyph glyph-name="K" unicode="K" horiz-adv-x="715" 
d="M398 368q71 -98 151 -187.5t175 -177.5v-3l-195 -11q-142 134 -272 333h-12v-322h-160v721h160v-325h2l260 325h182l1 -2z" />
    <glyph glyph-name="L" unicode="L" horiz-adv-x="580" 
d="M245 128l313 9v-137h-473v721h160v-593z" />
    <glyph glyph-name="M" unicode="M" horiz-adv-x="967" 
d="M816 721l110 -721h-162l-48 371q-7 49 -9 134h-4q-22 -94 -37 -137l-110 -312h-155l-113 313q-16 46 -37 142h-4q-3 -100 -9 -143l-50 -368h-147l110 721h161l130 -368q21 -60 40 -139h5q19 73 41 139l127 368h161z" />
    <glyph glyph-name="N" unicode="N" horiz-adv-x="803" 
d="M570 721h148v-721h-135l-227 301q-53 71 -130 183q7 -178 7 -236v-248h-148v721h132l230 -300q40 -53 131 -186q-8 139 -8 238v248z" />
    <glyph glyph-name="O" unicode="O" horiz-adv-x="796" 
d="M399 732q79 0 144.5 -26t111.5 -75t70 -117.5t24 -150.5t-24.5 -151.5t-71 -119t-113 -76.5t-146.5 -27q-79 0 -144 26.5t-110 75t-69 117t-24 150.5q0 83 24 152.5t70 119t112 76t146 26.5zM393 127q89 0 140 62.5t51 173.5q1 110 -48 170.5t-137 60.5t-137.5 -61.5
t-49.5 -173.5q-1 -110 46 -171t135 -61z" />
    <glyph glyph-name="P" unicode="P" horiz-adv-x="690" 
d="M286 733q98 0 170 -17t116.5 -49t65.5 -79t21 -107q0 -64 -22.5 -114.5t-66 -84.5t-106.5 -51t-141 -17q-41 0 -78 4v-218h-160v717q119 16 201 16zM315 328q92 0 136.5 36.5t44.5 109.5q0 76 -48.5 110t-152.5 34q-31 0 -50 -2v-284q36 -4 70 -4z" />
    <glyph glyph-name="Q" unicode="Q" horiz-adv-x="796" 
d="M516 7v-6q60 -42 172 -72l-77 -130h-2q-66 30 -134.5 75t-133.5 118q-68 8 -123 38t-93 77.5t-58 111.5t-20 139q0 83 24 152.5t70 119t112 76t146 26.5q79 0 144.5 -26t111.5 -75t70 -117.5t24 -150.5q0 -134 -61.5 -228t-171.5 -128zM212 359q-1 -110 46 -171t135 -61
q89 0 140 62.5t51 173.5q1 110 -48 170.5t-137 60.5t-137.5 -61.5t-49.5 -173.5z" />
    <glyph glyph-name="R" unicode="R" horiz-adv-x="714" 
d="M501 283q65 -122 185 -281v-2l-181 -5q-48 66 -91 137t-72 132h-97v-264h-160v719q135 14 204 14q100 0 172 -17t115.5 -48t63.5 -73.5t20 -94.5q0 -80 -41.5 -135.5t-117.5 -81.5zM245 617v-240h115q66 0 102 30.5t36 87.5q0 62 -47.5 93t-154.5 31z" />
    <glyph glyph-name="S" unicode="S" horiz-adv-x="618" 
d="M517 546l-2 1q-37 23 -79.5 40t-96.5 17q-59 0 -90 -20.5t-30 -55.5q1 -17 11 -33.5t34.5 -31t105 -43t117.5 -53.5t54.5 -49.5t26 -52t8.5 -60.5q0 -49 -19.5 -89.5t-57 -68t-91 -42t-118.5 -14.5q-142 0 -250 63l39 135h2q50 -37 98.5 -54t103.5 -17q45 0 76 11.5
t41.5 31t10.5 37.5q0 22 -13 40.5t-40 33t-92 37.5t-93.5 38.5t-47 30t-33 33t-25 47t-10.5 67.5q0 98 72.5 151.5t206.5 53.5q60 0 112 -12t109 -40z" />
    <glyph glyph-name="T" unicode="T" horiz-adv-x="645" 
d="M623 721v-135l-221 3v-589h-161v591l-220 2v128h602z" />
    <glyph glyph-name="U" unicode="U" horiz-adv-x="770" 
d="M534 721h160v-418q0 -65 -17 -121.5t-54 -99.5t-97.5 -67.5t-141.5 -24.5t-140.5 24t-96.5 67t-54 99.5t-17 122.5v418h161v-418q0 -93 38 -132t109 -39q150 0 150 171v418z" />
    <glyph glyph-name="V" unicode="V" horiz-adv-x="722" 
d="M545 721h166l-263 -721h-167l-271 707l175 24l129 -394q31 -99 52 -196h4q22 102 53 196z" />
    <glyph glyph-name="W" unicode="W" horiz-adv-x="1026" 
d="M855 721h157l-201 -722h-161l-108 388q-17 67 -31 156h-3q-13 -96 -29 -156l-103 -387h-161l-199 707l169 18l89 -376q15 -69 25 -166h6q10 95 29 167l100 371h173l98 -370q16 -62 26 -164h7q8 94 25 163z" />
    <glyph glyph-name="X" unicode="X" horiz-adv-x="706" 
d="M462 370l242 -368v-2h-190l-164 285l-162 -285h-179v2l235 361l-225 345v2l179 21l155 -284l152 274h174l1 -2z" />
    <glyph glyph-name="Y" unicode="Y" horiz-adv-x="704" 
d="M696 721l-264 -478v-243h-161v242l-258 467l174 19l115 -231q26 -53 54 -139h10q26 84 52 138l112 225h166z" />
    <glyph glyph-name="Z" unicode="Z" horiz-adv-x="640" 
d="M232 129l367 9v-138h-552l-8 113l366 479l-352 -9v138h524l10 -121z" />
    <glyph glyph-name="bracketleft" unicode="[" horiz-adv-x="375" 
d="M338 659l-142 6v-715l142 6v-116h-256v935h256v-116z" />
    <glyph glyph-name="backslash" unicode="\" horiz-adv-x="446" 
d="M175 721l239 -721h-143l-239 721h143z" />
    <glyph glyph-name="bracketright" unicode="]" horiz-adv-x="375" 
d="M294 775v-935h-257v116l142 -6v715l-142 -6v116h257z" />
    <glyph glyph-name="asciicircum" unicode="^" horiz-adv-x="516" 
d="M468 610h-116l-94 96l-93 -96h-117l-1 1l122 176h179l121 -176z" />
    <glyph glyph-name="underscore" unicode="_" horiz-adv-x="481" 
d="M0 -36h481l-4 -109l-477 7v102z" />
    <glyph glyph-name="grave" unicode="`" horiz-adv-x="364" 
d="M219 805l96 -195h-2h-131l-123 174v2z" />
    <glyph glyph-name="a" unicode="a" horiz-adv-x="600" 
d="M531 189v-1q0 -51 3.5 -97t18.5 -86l-1 -3l-131 -12q-25 32 -32 75h-2q-31 -35 -75.5 -55t-98.5 -20q-56 0 -95.5 19t-60 52t-20.5 80q0 43 19 78.5t58 61.5t101 40t145 14h27q-7 107 -134 107q-82 0 -156 -49h-2l-40 112q100 53 225 53q130 0 190.5 -54.5t60.5 -177.5
v-137zM260 96q37 0 69.5 20t45 51.5t12.5 63.5v-8v26h-30q-48 0 -90.5 -9t-64.5 -30.5t-22 -49.5q0 -30 22 -47t58 -17z" />
    <glyph glyph-name="b" unicode="b" horiz-adv-x="653" 
d="M393 558q102 0 159.5 -69.5t57.5 -195.5q0 -148 -79.5 -225.5t-223.5 -77.5q-69 0 -133.5 17t-105.5 46v697l155 25v-292h3q27 34 70.5 54.5t96.5 20.5zM313 110q137 0 137 167q0 80 -28 120t-79 40q-9 0 -31.5 -4.5t-42.5 -22.5t-33 -49t-13 -80v-148q12 -11 38.5 -17
t51.5 -6z" />
    <glyph glyph-name="c" unicode="c" horiz-adv-x="552" 
d="M343 435q-67 0 -104.5 -42.5t-37.5 -123.5q0 -77 34.5 -117t102.5 -40q36 0 73.5 12.5t67.5 36.5h2l42 -117q-38 -22 -93.5 -38t-113.5 -16q-66 0 -118 21t-86.5 58.5t-52 89t-17.5 111.5q0 62 18.5 115t55.5 91.5t91.5 60t123.5 21.5q62 0 113 -16t74 -35l-41 -115h-2
q-26 19 -62 31t-70 12z" />
    <glyph glyph-name="d" unicode="d" horiz-adv-x="657" 
d="M584 192q0 -53 3.5 -98.5t18.5 -88.5l-1 -3l-139 -12q-24 33 -33 80h-4q-14 -18 -37.5 -37.5t-59 -31t-74.5 -11.5q-99 0 -157.5 70t-58.5 195q0 70 20 127t58 96t91.5 59.5t118.5 20.5q49 0 99 -13l-1 212l156 23v-588zM308 109q35 0 64.5 20t42.5 52.5t14 66.5v162
q-16 12 -41 20.5t-52 8.5q-63 0 -99 -43.5t-36 -128.5q0 -76 28 -117t79 -41z" />
    <glyph glyph-name="e" unicode="e" horiz-adv-x="595" 
d="M548 248l-11 -9h-345q7 -70 45 -103t106 -33q101 0 161 49h2l39 -109q-37 -21 -97.5 -37t-123.5 -16q-71 0 -125.5 21t-89 58t-51.5 87t-17 108q0 64 19.5 118.5t56.5 93.5t90.5 60.5t117.5 21.5q112 0 169.5 -63t57.5 -174q0 -21 -4 -73zM419 326l1 25q0 33 -15 58.5
t-39 35t-47 9.5q-51 0 -84.5 -35t-41.5 -101z" />
    <glyph glyph-name="f" unicode="f" horiz-adv-x="453" 
d="M357 785q75 0 134 -32l-37 -104h-2q-36 22 -72 22q-48 0 -75 -29t-27 -97v-12l161 9l-7 -127h-154v-415h-156v415h-95v115l94 9v17q0 107 62.5 168t173.5 61z" />
    <glyph glyph-name="g" unicode="g" horiz-adv-x="616" 
d="M598 553l-9 -114l-76 6q15 -34 15 -78q0 -89 -63 -140t-174 -51q-50 -4 -50 -27q0 -24 56 -27q150 -10 213.5 -48t63.5 -117q0 -50 -31 -88t-95.5 -63t-162.5 -25q-124 0 -193.5 41.5t-69.5 116.5q0 92 108 132q-41 18 -41 58q0 27 19.5 45.5t54.5 24.5q-24 10 -49.5 31
t-41 56.5t-15.5 79.5q0 88 63.5 140t172.5 52q77 0 136 -27l167 23zM291 263q43 0 68 27.5t25 75.5q0 49 -24 75.5t-68 26.5q-42 0 -67.5 -28t-25.5 -76q0 -47 24.5 -74t67.5 -27zM422 -47q0 24 -16 38t-56 22.5t-126 10.5q-29 -7 -45.5 -25.5t-16.5 -44.5q0 -35 34 -55.5
t93 -20.5q45 0 77 11.5t44 29.5t12 34z" />
    <glyph glyph-name="h" unicode="h" horiz-adv-x="663" 
d="M409 558q90 0 139.5 -53t49.5 -151v-354h-156v319q0 113 -89 113q-22 0 -42.5 -7t-38 -21.5t-31.5 -45t-14 -80.5v-278h-156v752l156 23v-294h3q31 35 78 56t101 21z" />
    <glyph glyph-name="i" unicode="i" horiz-adv-x="296" 
d="M148 622q-45 0 -70.5 20t-25.5 53q0 34 27.5 55.5t73.5 21.5q44 0 69.5 -19.5t25.5 -52.5q0 -34 -27.5 -56t-72.5 -22zM70 0v523l156 25v-548h-156z" />
    <glyph glyph-name="j" unicode="j" horiz-adv-x="297" 
d="M153 772q44 0 69.5 -19.5t25.5 -52.5q0 -35 -27 -56.5t-73 -21.5q-44 0 -69.5 20t-25.5 53q0 34 26.5 55.5t73.5 21.5zM71 56v467l156 25v-472q0 -106 -41 -177t-125 -110l-94 102v2q104 42 104 163z" />
    <glyph glyph-name="k" unicode="k" horiz-adv-x="610" 
d="M387 272q33 -49 83 -107.5t152 -156.5v-2l-172 -14q-46 44 -91 96t-113 156l-9 13h-10v-257h-156v753l156 26v-446h12l178 215h171l1 -2l-227 -237z" />
    <glyph glyph-name="l" unicode="l" horiz-adv-x="297" 
d="M71 0v750l156 25v-775h-156z" />
    <glyph glyph-name="m" unicode="m" horiz-adv-x="1012" 
d="M761 558q85 0 135 -53t50 -151v-354h-156v319q0 57 -22.5 85t-62.5 28q-32 0 -58 -17t-38 -39.5t-16.5 -43t-5.5 -37.5v-295h-156v319q0 57 -23 85t-61 28q-20 0 -48 -11.5t-49.5 -47.5t-21.5 -95v-278h-156v427l-12 108l136 20l21 -79h2q32 36 81.5 59t103.5 23
t95.5 -23.5t64.5 -67.5h1q32 40 85.5 65.5t110.5 25.5z" />
    <glyph glyph-name="n" unicode="n" horiz-adv-x="664" 
d="M410 558q90 0 139.5 -53t49.5 -151v-354h-156v319q0 113 -89 113q-22 0 -42.5 -7t-38 -21.5t-31.5 -45t-14 -80.5v-278h-156v427l-12 108l136 20l22 -80h1q34 38 84 60.5t107 22.5z" />
    <glyph glyph-name="o" unicode="o" horiz-adv-x="659" 
d="M330 -10q-32 0 -71 6.5t-76 24.5t-65 45.5t-46 64t-24.5 74.5t-6.5 68q0 132 78 208.5t211 76.5q65 0 118.5 -19.5t91.5 -57t58 -90.5t20 -118q0 -47 -13 -96.5t-46 -90.5t-76.5 -62t-82.5 -27.5t-70 -6.5zM330 108q61 0 95 43t34 123q-1 80 -34.5 122.5t-94.5 42.5
t-95 -42t-35 -123q0 -81 34.5 -123.5t95.5 -42.5z" />
    <glyph glyph-name="p" unicode="p" horiz-adv-x="656" 
d="M395 558q102 0 160.5 -69t58.5 -195q0 -71 -19.5 -128t-57 -96t-90.5 -59.5t-118 -20.5q-55 0 -103 15v-186l-154 -26v634l-12 108l135 20l20 -77v-1h4q29 38 74 59.5t102 21.5zM317 108q69 0 103 41.5t34 127.5q0 78 -28 119t-78 41q-23 0 -46 -9.5t-40 -29t-26.5 -49.5
t-9.5 -68l-6 83l6 -157v-75q12 -11 38.5 -17.5t52.5 -6.5z" />
    <glyph glyph-name="q" unicode="q" horiz-adv-x="653" 
d="M342 558q72 0 137 -19t106 -50v-672l-155 -25v272h-3q-29 -36 -73.5 -55t-95.5 -19q-100 0 -157.5 70t-57.5 197q0 72 20 129t58.5 95t94.5 57.5t126 19.5zM430 260v148q-14 12 -37.5 20.5t-53.5 8.5q-65 0 -101.5 -42.5t-36.5 -126.5q0 -76 29 -117t80 -41q22 0 50.5 12
t49 47t20.5 91z" />
    <glyph glyph-name="r" unicode="r" horiz-adv-x="436" 
d="M411 558l10 -139q-100 0 -146.5 -40.5t-46.5 -132.5v-246h-156v427l-12 108l136 20l21 -90h3q35 45 81 69t110 24z" />
    <glyph glyph-name="s" unicode="s" horiz-adv-x="539" 
d="M490 505l-39 -109h-3q-72 56 -153 56q-41 0 -64.5 -15t-23.5 -41q0 -13 9 -26t32.5 -23t85.5 -27t99 -39.5t51.5 -54t14.5 -66.5q0 -52 -27 -89t-80 -58.5t-135 -21.5q-65 0 -124.5 15t-100.5 40l40 108h2q31 -27 75.5 -42.5t93.5 -15.5q47 0 73 14.5t26 41.5
q0 22 -19.5 38.5t-94 38.5t-104 40.5t-43 36t-20.5 39t-7 46.5q0 78 61 122.5t172 44.5t203 -53z" />
    <glyph glyph-name="t" unicode="t" horiz-adv-x="467" 
d="M414 140l38 -108q-28 -18 -68.5 -30t-85.5 -12q-90 0 -133.5 47t-43.5 135v246h-100v112l98 9h2v1l9 122l143 25v-154l163 9l-7 -124h-156v-226q0 -76 64 -76q37 0 75 24h2z" />
    <glyph glyph-name="u" unicode="u" horiz-adv-x="656" 
d="M583 172q0 -44 3.5 -84.5t17.5 -82.5l-1 -3l-139 -12q-25 29 -33 75h-4q-27 -33 -76.5 -54t-103.5 -21q-85 0 -133.5 52.5t-48.5 151.5v344l156 20v-332q0 -112 88 -112q33 0 60 14.5t42.5 41.5t15.5 69v309h156v-376z" />
    <glyph glyph-name="v" unicode="v" horiz-adv-x="615" 
d="M448 548h159l-224 -548h-150l-223 535l170 21l85 -260l40 -156h11q16 74 42 156zM308 125l2 -10l3 10h-5z" />
    <glyph glyph-name="w" unicode="w" horiz-adv-x="931" 
d="M781 548h142l-195 -548h-150l-76 244q-17 59 -36 149h-3q-13 -68 -35 -149l-76 -244h-151l-191 535l161 21l74 -260q19 -71 31 -138h6q17 81 34 138l77 252h166l74 -252q17 -63 33 -137h6q16 74 34 137z" />
    <glyph glyph-name="x" unicode="x" horiz-adv-x="609" 
d="M405 277l197 -277h-172l-127 198l-128 -198h-166v2l193 274l-179 247v2l164 26l121 -191l118 188h163v-2z" />
    <glyph glyph-name="y" unicode="y" horiz-adv-x="613" 
d="M445 548h162l-141 -358q-44 -114 -84.5 -185.5t-91.5 -122t-136 -93.5l-109 86v2q124 61 182 147l-214 511l172 21l89 -272q22 -77 35 -137h10q13 62 37 135z" />
    <glyph glyph-name="z" unicode="z" horiz-adv-x="562" 
d="M235 114l289 6v-120h-487l-4 82l284 351l-264 -6v121h456l6 -90z" />
    <glyph glyph-name="braceleft" unicode="{" horiz-adv-x="385" 
d="M236 482q0 -113 -70 -164v-2q70 -54 70 -161v-94q0 -56 26.5 -81.5t82.5 -25.5v-114q-216 0 -227 190v127q0 45 -24 76t-57 31v105q24 0 44.5 16t28.5 42.5t8 51.5v92q0 210 227 210v-114q-56 0 -82.5 -25.5t-26.5 -81.5v-78z" />
    <glyph glyph-name="bar" unicode="|" horiz-adv-x="280" 
d="M82 -208v983h116v-983h-116z" />
    <glyph glyph-name="braceright" unicode="}" horiz-adv-x="385" 
d="M267 479q0 -52 23.5 -81t57.5 -29v-105q-15 0 -34 -10t-33 -37t-14 -60v-127h-1q-10 -190 -226 -190v114q56 0 82 25.5t26 81.5v94q0 106 70 161v2q-70 52 -70 164v78q0 56 -26 81.5t-82 25.5v114q227 0 227 -210v-92z" />
    <glyph glyph-name="asciitilde" unicode="~" horiz-adv-x="558" 
d="M375 292q-35 0 -91.5 22.5t-93.5 22.5q-29 0 -53.5 -8.5t-37.5 -26.5h-2l-35 92q13 22 46 38t70 16q32 0 94 -22.5t99 -22.5q58 0 89 37h2l36 -93q-20 -26 -52 -40.5t-71 -14.5z" />
    <glyph glyph-name="exclamdown" unicode="&#xa1;" horiz-adv-x="305" 
d="M155 558q41 0 66 -23.5t25 -61.5t-26.5 -63.5t-68.5 -25.5q-41 0 -66.5 23t-25.5 60q0 18 9 39.5t32.5 36.5t54.5 15zM213 304l26 -490l-172 -25h-2l26 515h122z" />
    <glyph glyph-name="cent" unicode="&#xa2;" horiz-adv-x="571" 
d="M528 123q-27 -17 -65 -31t-79 -20l12 -103h-151l12 104q-101 20 -155.5 96.5t-54.5 187.5q0 116 59 195t167 98l-13 109h151l-13 -108q32 -4 67 -15.5t60 -30.5l-44 -121h-2q-22 21 -58 33.5t-71 12.5q-67 0 -104.5 -45.5t-37.5 -127.5q0 -79 35.5 -122t104.5 -43
q36 0 71.5 12.5t63.5 38.5h2z" />
    <glyph glyph-name="sterling" unicode="&#xa3;" horiz-adv-x="631" 
d="M328 249q0 -79 -59 -132l304 8v-125h-485l-4 112q48 21 71 52.5t23 79.5q0 34 -11 67h-128v81h97q-19 52 -19 106q0 56 19 100.5t53.5 74t81.5 44t100 14.5q57 0 113 -17t104 -46l-43 -127h-2q-40 29 -83 44.5t-80 15.5q-53 0 -84.5 -30t-31.5 -82q0 -38 26 -97h194v-81
h-164q8 -30 8 -62z" />
    <glyph glyph-name="currency" unicode="&#xa4;" horiz-adv-x="601" 
d="M494 354q0 -52 -23 -95l78 -56l-100 -100l-56 80q-40 -21 -94 -21q-52 0 -92 20l-56 -78l-100 100l77 55q-21 41 -21 93q0 51 21 93l-76 56l100 99l55 -77q41 21 95 21q53 0 93 -20l55 76l99 -100l-76 -55q21 -39 21 -91zM298 259q20 0 42.5 9t36.5 32.5t14 53.5
q0 27 -13 50.5t-34.5 33t-41.5 9.5q-32 0 -53.5 -16.5t-29 -38.5t-7.5 -40q0 -40 23 -66.5t63 -26.5z" />
    <glyph glyph-name="yen" unicode="&#xa5;" horiz-adv-x="736" 
d="M712 721l-219 -395h96v-81h-141l-1 -2v-60h142v-81h-142v-102h-161v102h-145v81h145v59l-1 3h-144v81h99l-212 383l174 19l115 -231q26 -53 54 -139h10q26 84 52 138l112 225h167z" />
    <glyph glyph-name="brokenbar" unicode="&#xa6;" horiz-adv-x="279" 
d="M81 366v409h117v-409h-117zM81 -208v409h117v-409h-117z" />
    <glyph glyph-name="section" unicode="&#xa7;" horiz-adv-x="566" 
d="M414 88q75 -54 75 -138q0 -79 -60.5 -123.5t-171.5 -44.5q-109 0 -200 52l39 111h3q73 -55 152 -55q40 0 63 16t23 42t-23.5 46t-93.5 55t-103.5 64t-51 64t-17.5 81q0 29 10 61.5t35.5 60.5t58.5 46q-74 53 -74 137q0 79 60 123.5t171 44.5q109 0 200 -52l-39 -110h-3
q-70 54 -152 54q-40 0 -63 -16t-23 -42q0 -19 16.5 -38.5t94 -58t111 -67.5t51 -64t17.5 -81q0 -44 -17 -79.5t-42 -56.5t-46 -32zM186 268q0 -32 24 -60t101 -64q69 42 69 102q0 32 -24 60t-101 64q-69 -42 -69 -102z" />
    <glyph glyph-name="dieresis" unicode="&#xa8;" horiz-adv-x="477" 
d="M127 624q-34 0 -56.5 20.5t-22.5 52.5q0 31 24 54t57 23t55.5 -21t22.5 -51q0 -15 -8 -33t-28.5 -31.5t-43.5 -13.5zM349 624q-34 0 -56.5 20.5t-22.5 52.5q0 31 24 54t57 23t55.5 -21t22.5 -51q0 -15 -8 -33t-28.5 -31.5t-43.5 -13.5z" />
    <glyph glyph-name="copyright" unicode="&#xa9;" horiz-adv-x="854" 
d="M425 -19q-78 0 -146.5 25t-120 74t-80.5 120t-29 159q0 87 29 159t81 121.5t122 75t148 25.5q77 0 146 -25t120 -73.5t80 -119.5t29 -159t-29 -160t-81 -121.5t-121.5 -75t-147.5 -25.5zM425 74q59 0 111 19.5t90.5 57t60 92t21.5 120.5t-21.5 119.5t-59.5 90t-89.5 55.5
t-109.5 19q-59 0 -111 -19.5t-90.5 -57t-60 -91.5t-21.5 -120t21.5 -119.5t59.5 -90.5t89.5 -56t109.5 -19zM448 248q25 0 51 9t47 28h1l32 -90q-27 -17 -65.5 -28.5t-80.5 -11.5q-59 0 -102.5 23t-70 68.5t-26.5 112.5q0 93 55.5 151t153.5 58q44 0 80 -11.5t53 -25.5
l-32 -90h-2q-16 16 -42.5 24.5t-49.5 8.5q-44 0 -71 -31t-27 -85q0 -51 25.5 -80.5t70.5 -29.5z" />
    <glyph glyph-name="ordfeminine" unicode="&#xaa;" horiz-adv-x="467" 
d="M399 522q0 -80 15 -117l-1 -2l-99 -7q-7 8 -13.5 23t-8.5 29h-2q-19 -25 -53 -39.5t-74 -14.5q-51 0 -83.5 26t-32.5 75q0 63 55.5 98.5t171.5 35.5h16q-6 70 -89 70q-58 0 -114 -38h-1l-29 82q86 42 168 42q90 0 132 -37.5t42 -121.5v-104zM203 473q37 0 57 16.5
t25.5 36t5.5 38.5v4h-19q-62 0 -90.5 -15.5t-28.5 -39.5q0 -19 14.5 -29.5t35.5 -10.5z" />
    <glyph glyph-name="guillemotleft" unicode="&#xab;" horiz-adv-x="638" 
d="M43 320l262 169l2 -1v-104l-132 -115l132 -116v-104l-2 -1l-262 168v104zM577 488v-104l-132 -115l132 -116v-104l-2 -1l-262 168v104l262 169z" />
    <glyph glyph-name="registered" unicode="&#xae;" horiz-adv-x="645" 
d="M323 788q56 0 106.5 -18.5t88 -54t58.5 -87t21 -114.5t-21 -115.5t-59 -88.5t-88.5 -55t-107.5 -19q-56 0 -106 18.5t-87.5 54t-58.5 87.5t-21 115q0 47 14 95.5t52.5 93.5t95.5 66.5t113 21.5zM322 315q40 0 76 13.5t63 39t42 63t15 82.5q0 56 -22.5 99t-66.5 70
t-105 27q-41 0 -77 -13.5t-63 -39t-42 -63t-15 -82.5q0 -34 10 -68.5t34 -62.5t62 -46.5t89 -18.5zM440 561q0 -55 -49 -76l61 -104v-1h-83l-52 96h-28v-96h-74v265h117q52 0 80 -22.5t28 -61.5zM289 587v-55h45q35 0 35 27q0 28 -37 28h-43z" />
    <glyph glyph-name="macron" unicode="&#xaf;" horiz-adv-x="469" 
d="M401 645h-353v98l353 9v-107z" />
    <glyph glyph-name="degree" unicode="&#xb0;" horiz-adv-x="446" 
d="M225 785q30 0 61.5 -9.5t58 -32t44 -58t17.5 -82.5q0 -37 -12.5 -70.5t-36.5 -59t-59 -40t-76 -14.5q-30 0 -62 9.5t-58.5 32t-44 58t-17.5 81.5q0 27 8.5 58t33 62.5t63.5 48t80 16.5zM221 516q39 0 63 25.5t24 60.5q0 25 -12.5 46.5t-33 30.5t-40.5 9q-19 0 -39.5 -9
t-33 -31t-12.5 -47q0 -36 23 -60.5t61 -24.5z" />
    <glyph glyph-name="plusminus" unicode="&#xb1;" horiz-adv-x="552" 
d="M331 514h153v-111h-153v-167h-111v167h-153v111h153v167h111v-167zM67 39v111h417v-111h-417z" />
    <glyph glyph-name="acute" unicode="&#xb4;" horiz-adv-x="364" 
d="M144 805l160 -19v-2l-122 -174h-132h-2z" />
    <glyph glyph-name="paragraph" unicode="&#xb6;" horiz-adv-x="650" 
d="M607 721v-125h-95v-707h-146v707h-69v-346h-44q-70 0 -119 27.5t-75.5 79t-26.5 128.5q0 44 11 87.5t38 76.5t69 52.5t101 19.5h356z" />
    <glyph glyph-name="periodcentered" unicode="&#xb7;" horiz-adv-x="299" 
d="M148 196q-41 0 -66.5 23.5t-25.5 61.5t26.5 63.5t68.5 25.5q41 0 66.5 -22.5t25.5 -60.5q0 -39 -26.5 -65t-68.5 -26z" />
    <glyph glyph-name="cedilla" unicode="&#xb8;" horiz-adv-x="369" 
d="M321 -128q0 -47 -38 -75t-115 -28q-78 0 -118 28l23 73h2q24 -24 69 -24q54 0 54 35q0 42 -95 42l-5 5l29 85h100l-14 -46q56 -6 82 -31t26 -64z" />
    <glyph glyph-name="ordmasculine" unicode="&#xba;" horiz-adv-x="479" 
d="M240 785q35 0 70 -10t63.5 -33.5t46.5 -61.5t18 -91q0 -63 -27 -107t-71 -66.5t-103 -22.5q-35 0 -70.5 10t-63 33.5t-45 61.5t-17.5 90q0 87 53 142t146 55zM237 482q18 0 38 10t33 36.5t14 61.5q0 34 -12 60t-31.5 36t-38.5 10q-29 0 -49 -17t-27 -42.5t-7 -47.5
q-1 -34 11 -60.5t31.5 -36.5t37.5 -10z" />
    <glyph glyph-name="guillemotright" unicode="&#xbb;" horiz-adv-x="638" 
d="M61 488l2 1l262 -169v-104l-262 -168l-2 1v104l132 116l-132 115v104zM333 489l262 -169v-104l-262 -168l-2 1v104l132 116l-132 115v104z" />
    <glyph glyph-name="onequarter" unicode="&#xbc;" horiz-adv-x="774" 
d="M218 318h-107v303l-67 -28l-30 86l124 42h80v-403zM527 721h100l-414 -721h-100zM736 157l-3 -79l-57 -1v-77h-103v75l-176 -2v73l168 256h111v-245h60zM582 295l-85 -138h85v138z" />
    <glyph glyph-name="onehalf" unicode="&#xbd;" horiz-adv-x="838" 
d="M111 318v303l-67 -28l-30 86l124 42h80v-403h-107zM511 721h100l-415 -721h-99zM621 83l153 2v-85h-295l-2 65l105 104q33 33 55.5 60t22.5 49q0 20 -16.5 31.5t-44.5 11.5q-19 0 -44 -9t-48 -23h-1l-25 85q28 15 65 24.5t71 9.5q69 0 109 -32.5t40 -87.5
q0 -27 -15.5 -58t-80.5 -98z" />
    <glyph glyph-name="threequarters" unicode="&#xbe;" horiz-adv-x="820" 
d="M338 434q0 -51 -43 -84t-126 -33q-43 0 -79.5 9.5t-51.5 21.5l26 74h1q18 -13 44 -19.5t48 -6.5q34 0 53.5 14t19.5 35q0 22 -24 35.5t-73 13.5h-34v69h34q45 0 67.5 12.5t22.5 34.5q0 18 -14.5 30t-42.5 12q-44 0 -91 -28h-1l-26 73q20 14 54.5 24t76.5 10q73 0 111 -30
t38 -73q0 -32 -18.5 -57t-44.5 -37q32 -11 52.5 -38t20.5 -62zM592 721h100l-415 -721h-99zM784 157l-2 -80h-58v-77h-102v75l-176 -2v73l168 256h110v-245h60zM630 295l-85 -138h85v138z" />
    <glyph glyph-name="questiondown" unicode="&#xbf;" horiz-adv-x="527" 
d="M300 558q40 0 65.5 -23.5t25.5 -61.5t-26.5 -63.5t-68.5 -25.5q-41 0 -66.5 23t-25.5 60q0 39 27 65t69 26zM362 140q-47 -18 -88.5 -41.5t-62.5 -52t-21 -58.5q0 -34 25.5 -55.5t74.5 -21.5q79 0 165 58h2l44 -126q-105 -61 -233 -61q-72 0 -123 20.5t-81 61.5t-30 102
q0 70 45.5 125t146.5 98l8 121h123z" />
    <glyph glyph-name="Agrave" unicode="&#xc0;" horiz-adv-x="717" 
d="M505 819l-31 -72l-284 82v2l74 105l242 -116zM544 0l-58 168l-257 4l-59 -172h-165l268 721h171l268 -721h-168zM323 478l-61 -190l191 1l-62 189q-19 58 -31 111l-2 -2l-4 3q-12 -53 -31 -112z" />
    <glyph glyph-name="Aacute" unicode="&#xc1;" horiz-adv-x="717" 
d="M233 747l-31 72v1l241 115l75 -104v-2zM544 0l-58 168l-257 4l-59 -172h-165l268 721h171l268 -721h-168zM323 478l-61 -190l191 1l-62 189q-19 58 -31 111l-2 -2l-4 3q-12 -53 -31 -112z" />
    <glyph glyph-name="Acircumflex" unicode="&#xc2;" horiz-adv-x="717" 
d="M359 834l-134 -71l-76 43v2l137 111h147l136 -111v-2l-76 -43zM544 0l-58 168l-257 4l-59 -172h-165l268 721h171l268 -721h-168zM323 478l-61 -190l191 1l-62 189q-19 58 -31 111l-2 -2l-4 3q-12 -53 -31 -112z" />
    <glyph glyph-name="Atilde" unicode="&#xc3;" horiz-adv-x="717" 
d="M189 769h-2l-33 88q43 61 122 61q32 0 81 -20t75 -20q54 0 93 42h2l32 -87q-47 -63 -126 -63q-30 0 -78.5 20t-74.5 20q-56 0 -91 -41zM544 0l-58 168l-257 4l-59 -172h-165l268 721h171l268 -721h-168zM323 478l-61 -190l191 1l-62 189q-19 58 -31 111l-2 -2l-4 3
q-12 -53 -31 -112z" />
    <glyph glyph-name="Adieresis" unicode="&#xc4;" horiz-adv-x="717" 
d="M240 774q-42 0 -65 18t-23 50q0 31 25 51t66 20q40 0 63 -18t23 -48q0 -33 -24.5 -53t-64.5 -20zM475 774q-42 0 -64.5 18t-22.5 50q0 31 24.5 51t65.5 20q40 0 63 -18t23 -48q0 -33 -24.5 -53t-64.5 -20zM544 0l-58 168l-257 4l-59 -172h-165l268 721h171l268 -721h-168
zM323 478l-61 -190l191 1l-62 189q-19 58 -31 111l-2 -2l-4 3q-12 -53 -31 -112z" />
    <glyph glyph-name="Aring" unicode="&#xc5;" horiz-adv-x="717" 
d="M544 0l-58 168l-257 4l-59 -172h-165l267 718q-20 17 -31.5 41.5t-11.5 51.5q0 53 37.5 88t92.5 35t92.5 -35t37.5 -88q0 -28 -12 -52t-32 -41l267 -718h-168zM359 857q-20 0 -33.5 -13.5t-13.5 -32.5t13.5 -32.5t33.5 -13.5t33 13.5t13 32.5q0 20 -13 33t-33 13z
M354 590q-12 -53 -31 -112l-61 -190l191 1l-62 189q-19 58 -31 111l-2 -2z" />
    <glyph glyph-name="AE" unicode="&#xc6;" horiz-adv-x="1036" 
d="M644 120l343 7v-127h-507v166l-220 5l-86 -171h-185l391 721h597v-127l-333 7v-179l287 4v-125l-287 5v-186zM319 289l161 1v322z" />
    <glyph glyph-name="Ccedilla" unicode="&#xc7;" horiz-adv-x="658" 
d="M422 -33q56 -6 82.5 -31t26.5 -64q0 -47 -38.5 -75t-115.5 -28t-118 28l23 73h2q24 -24 69 -24q55 0 55 35q0 42 -96 42l-4 5l22 66q-68 10 -122 41t-89.5 79t-53.5 110t-18 133q0 80 23 149t68.5 119t115 78t157.5 28q122 0 211 -52l-47 -138h-2q-24 19 -63.5 35
t-93.5 16q-98 0 -149.5 -64t-51.5 -173q0 -107 50 -166.5t149 -59.5q97 0 171 59h1l45 -133q-90 -56 -201 -64z" />
    <glyph glyph-name="Egrave" unicode="&#xc8;" horiz-adv-x="637" 
d="M488 816l-32 -72l-284 81v2l75 105l241 -115v-1zM245 120l343 8v-128h-503v721h493v-128l-333 8v-181l287 6v-127l-287 6v-185z" />
    <glyph glyph-name="Eacute" unicode="&#xc9;" horiz-adv-x="637" 
d="M216 743l-32 72v1l242 116l74 -105v-2zM245 120l343 8v-128h-503v721h493v-128l-333 8v-181l287 6v-127l-287 6v-185z" />
    <glyph glyph-name="Ecircumflex" unicode="&#xca;" horiz-adv-x="637" 
d="M341 831l-134 -71l-76 43v2l137 110h147l136 -110v-2l-75 -43zM245 120l343 8v-128h-503v721h493v-128l-333 8v-181l287 6v-127l-287 6v-185z" />
    <glyph glyph-name="Edieresis" unicode="&#xcb;" horiz-adv-x="637" 
d="M222 771q-42 0 -65 18t-23 50q0 31 25 51t66 20q40 0 63 -18t23 -48q0 -33 -24.5 -53t-64.5 -20zM458 771q-42 0 -65 18t-23 50q0 31 25 51t66 20q40 0 63 -18t23 -48q0 -33 -24.5 -53t-64.5 -20zM245 120l343 8v-128h-503v721h493v-128l-333 8v-181l287 6v-127l-287 6
v-185z" />
    <glyph glyph-name="Igrave" unicode="&#xcc;" horiz-adv-x="330" 
d="M314 820v-1l-31 -72l-285 82v2l75 105zM85 0v721h160v-721h-160z" />
    <glyph glyph-name="Iacute" unicode="&#xcd;" horiz-adv-x="330" 
d="M10 820l242 115l74 -104v-2l-284 -82l-31 72zM85 0v721h160v-721h-160z" />
    <glyph glyph-name="Icircumflex" unicode="&#xce;" horiz-adv-x="330" 
d="M377 808v-2l-75 -43l-135 71l-134 -71l-76 43v2l137 111h147zM85 0v721h160v-721h-160z" />
    <glyph glyph-name="Idieresis" unicode="&#xcf;" horiz-adv-x="330" 
d="M48 774q-42 0 -64.5 18t-22.5 50q0 31 24.5 51t65.5 20q40 0 63 -18t23 -48q0 -33 -24.5 -53t-64.5 -20zM284 774q-42 0 -65 18t-23 50q0 31 25 51t66 20q40 0 63 -18t23 -48q0 -33 -24.5 -53t-64.5 -20zM85 0v721h160v-721h-160z" />
    <glyph glyph-name="Eth" unicode="&#xd0;" horiz-adv-x="772" 
d="M287 733q112 0 196 -27t137.5 -77t79 -120.5t25.5 -158.5q0 -85 -26 -152.5t-79.5 -114t-137 -71t-195.5 -24.5q-87 0 -202 14v326l-72 4v72h72v315q138 14 202 14zM292 122q139 0 203.5 58.5t64.5 171.5q0 127 -68 187t-201 60l-46 -1v-194h138l-4 -94l-134 8v-195z" />
    <glyph glyph-name="Ntilde" unicode="&#xd1;" horiz-adv-x="803" 
d="M241 769h-2l-33 88q43 61 122 61q32 0 81 -20t75 -20q54 0 93 42h2l32 -87q-46 -63 -126 -63q-30 0 -78.5 20t-74.5 20q-56 0 -91 -41zM570 721h148v-721h-135l-227 301q-53 71 -130 183q7 -178 7 -236v-248h-148v721h132l230 -300q40 -53 131 -186q-8 139 -8 238v248z
" />
    <glyph glyph-name="Ograve" unicode="&#xd2;" horiz-adv-x="796" 
d="M546 817v-1l-31 -72l-285 81v2l75 105zM399 732q79 0 144.5 -26t111.5 -75t70 -117.5t24 -150.5t-24.5 -151.5t-71 -119t-113 -76.5t-146.5 -27q-79 0 -144 26.5t-110 75t-69 117t-24 150.5q0 83 24 152.5t70 119t112 76t146 26.5zM393 127q89 0 140 62.5t51 173.5
q1 110 -48 170.5t-137 60.5t-137.5 -61.5t-49.5 -173.5q-1 -110 46 -171t135 -61z" />
    <glyph glyph-name="Oacute" unicode="&#xd3;" horiz-adv-x="796" 
d="M242 816l242 116l74 -105v-2l-284 -82l-32 72v1zM399 732q79 0 144.5 -26t111.5 -75t70 -117.5t24 -150.5t-24.5 -151.5t-71 -119t-113 -76.5t-146.5 -27q-79 0 -144 26.5t-110 75t-69 117t-24 150.5q0 83 24 152.5t70 119t112 76t146 26.5zM393 127q89 0 140 62.5
t51 173.5q1 110 -48 170.5t-137 60.5t-137.5 -61.5t-49.5 -173.5q-1 -110 46 -171t135 -61z" />
    <glyph glyph-name="Ocircumflex" unicode="&#xd4;" horiz-adv-x="796" 
d="M609 805v-2l-75 -43l-135 71l-134 -71l-76 43v2l137 110h147zM399 732q79 0 144.5 -26t111.5 -75t70 -117.5t24 -150.5t-24.5 -151.5t-71 -119t-113 -76.5t-146.5 -27q-79 0 -144 26.5t-110 75t-69 117t-24 150.5q0 83 24 152.5t70 119t112 76t146 26.5zM393 127
q89 0 140 62.5t51 173.5q1 110 -48 170.5t-137 60.5t-137.5 -61.5t-49.5 -173.5q-1 -110 46 -171t135 -61z" />
    <glyph glyph-name="Otilde" unicode="&#xd5;" horiz-adv-x="796" 
d="M474 767q-31 0 -79.5 20t-73.5 20q-56 0 -92 -41h-2l-32 87q42 62 121 62q31 0 80.5 -20.5t76.5 -20.5q53 0 92 42h2l33 -87q-48 -62 -126 -62zM399 732q79 0 144.5 -26t111.5 -75t70 -117.5t24 -150.5t-24.5 -151.5t-71 -119t-113 -76.5t-146.5 -27q-79 0 -144 26.5
t-110 75t-69 117t-24 150.5q0 83 24 152.5t70 119t112 76t146 26.5zM393 127q89 0 140 62.5t51 173.5q1 110 -48 170.5t-137 60.5t-137.5 -61.5t-49.5 -173.5q-1 -110 46 -171t135 -61z" />
    <glyph glyph-name="Odieresis" unicode="&#xd6;" horiz-adv-x="796" 
d="M280 771q-42 0 -64.5 18t-22.5 50q0 31 24.5 51t65.5 20q40 0 63 -18t23 -48q0 -33 -24.5 -53t-64.5 -20zM516 771q-42 0 -65 18t-23 50q0 31 25 51t66 20q40 0 63 -18t23 -48q0 -33 -24.5 -53t-64.5 -20zM399 732q79 0 144.5 -26t111.5 -75t70 -117.5t24 -150.5
t-24.5 -151.5t-71 -119t-113 -76.5t-146.5 -27q-79 0 -144 26.5t-110 75t-69 117t-24 150.5q0 83 24 152.5t70 119t112 76t146 26.5zM393 127q89 0 140 62.5t51 173.5q1 110 -48 170.5t-137 60.5t-137.5 -61.5t-49.5 -173.5q-1 -110 46 -171t135 -61z" />
    <glyph glyph-name="multiply" unicode="&#xd7;" horiz-adv-x="542" 
d="M490 501l-141 -141l141 -141l-78 -78l-141 141l-141 -141l-78 78l141 141l-141 141l78 78l141 -140l141 140z" />
    <glyph glyph-name="Oslash" unicode="&#xd8;" horiz-adv-x="796" 
d="M771 740l-102 -124q39 -48 59.5 -112.5t20.5 -140.5q0 -82 -24.5 -151.5t-71 -119t-113 -76.5t-146.5 -27q-107 0 -185 46l-44 -58h-146l105 131q-37 47 -57 111.5t-20 138.5q0 83 24 152.5t70 119t112 76t146 26.5q104 0 185 -45l42 53h145zM212 359q0 -69 18 -119
l95 119l167 212q-40 23 -93 23q-88 0 -137.5 -61.5t-49.5 -173.5zM584 363q0 74 -21 123l-104 -127l-160 -208q42 -24 94 -24q89 0 140 62.5t51 173.5z" />
    <glyph glyph-name="Ugrave" unicode="&#xd9;" horiz-adv-x="770" 
d="M533 819l-31 -72l-284 82v2l74 105l241 -116v-1zM534 721h160v-418q0 -65 -17 -121.5t-54 -99.5t-97.5 -67.5t-141.5 -24.5t-140.5 24t-96.5 67t-54 99.5t-17 122.5v418h161v-418q0 -93 38 -132t109 -39q150 0 150 171v418z" />
    <glyph glyph-name="Uacute" unicode="&#xda;" horiz-adv-x="770" 
d="M261 747l-31 72v1l241 115l74 -104l1 -2zM534 721h160v-418q0 -65 -17 -121.5t-54 -99.5t-97.5 -67.5t-141.5 -24.5t-140.5 24t-96.5 67t-54 99.5t-17 122.5v418h161v-418q0 -93 38 -132t109 -39q150 0 150 171v418z" />
    <glyph glyph-name="Ucircumflex" unicode="&#xdb;" horiz-adv-x="770" 
d="M387 834l-134 -71l-76 43v2l136 111h147l137 -111v-2l-76 -43zM534 721h160v-418q0 -65 -17 -121.5t-54 -99.5t-97.5 -67.5t-141.5 -24.5t-140.5 24t-96.5 67t-54 99.5t-17 122.5v418h161v-418q0 -93 38 -132t109 -39q150 0 150 171v418z" />
    <glyph glyph-name="Udieresis" unicode="&#xdc;" horiz-adv-x="770" 
d="M268 774q-42 0 -65 18t-23 50q0 31 25 51t66 20q40 0 63 -18t23 -48q0 -33 -24.5 -53t-64.5 -20zM503 774q-42 0 -64.5 18t-22.5 50q0 31 24.5 51t65.5 20q40 0 63 -18t23 -48q0 -33 -24.5 -53t-64.5 -20zM534 721h160v-418q0 -65 -17 -121.5t-54 -99.5t-97.5 -67.5
t-141.5 -24.5t-140.5 24t-96.5 67t-54 99.5t-17 122.5v418h161v-418q0 -93 38 -132t109 -39q150 0 150 171v418z" />
    <glyph glyph-name="Yacute" unicode="&#xdd;" horiz-adv-x="704" 
d="M230 747l-31 72v1l241 115l75 -104v-2zM696 721l-264 -478v-243h-161v242l-258 467l174 19l115 -231q26 -53 54 -139h10q26 84 52 138l112 225h166z" />
    <glyph glyph-name="Thorn" unicode="&#xde;" horiz-adv-x="692" 
d="M300 626q180 0 269.5 -66.5t89.5 -191.5q0 -63 -22.5 -113t-66 -84t-106.5 -51t-141 -17q-41 0 -78 4v-107h-160v721h160v-96zM315 216q92 0 136.5 36.5t44.5 111.5q0 78 -47.5 113.5t-141.5 35.5q-26 0 -62 -3v-289q45 -5 70 -5z" />
    <glyph glyph-name="germandbls" unicode="&#xdf;" horiz-adv-x="689" 
d="M319 418q0 19 4.5 39t15.5 38.5t30.5 43t26.5 33.5t11.5 21.5t4.5 23.5q0 25 -19 39t-53 14q-55 0 -85.5 -37t-30.5 -108v-525h-153v527q0 123 71.5 190.5t200.5 67.5q104 0 165 -43t61 -114q0 -54 -44 -102.5t-49.5 -64.5t-5.5 -28q0 -25 16 -45t53.5 -46t51.5 -38.5
t25.5 -25t20.5 -28t16 -37.5t7 -52q0 -53 -23.5 -90t-69 -58.5t-113.5 -21.5q-96 0 -171 43l38 110h3q48 -38 102 -38q37 0 56.5 17t19.5 45q0 3 -1 12.5t-10.5 27.5t-57 50t-62 45.5t-24 26t-19 34t-9.5 54.5z" />
    <glyph glyph-name="agrave" unicode="&#xe0;" horiz-adv-x="600" 
d="M363 610h-132l-122 174v2l160 19l96 -195h-2zM531 189q0 -51 3.5 -97.5t18.5 -86.5l-1 -3l-131 -12q-25 32 -32 75h-2q-31 -35 -75.5 -55t-98.5 -20q-56 0 -95.5 19t-60 52t-20.5 80q0 43 19 78.5t58 61.5t101 40t145 14h27q-7 107 -134 107q-82 0 -156 -49h-2l-40 112
q100 53 225 53q130 0 190.5 -54.5t60.5 -177.5v-137zM260 96q37 0 69.5 20t45 51.5t12.5 63.5v-8v26h-30q-48 0 -90.5 -9t-64.5 -30.5t-22 -49.5q0 -30 22 -47t58 -17z" />
    <glyph glyph-name="aacute" unicode="&#xe1;" horiz-adv-x="600" 
d="M326 610h-132h-2l96 195l160 -19v-2zM531 189v-1q0 -51 3.5 -97t18.5 -87l-1 -2l-131 -12q-25 32 -32 75h-2q-31 -35 -75.5 -55t-98.5 -20q-56 0 -95.5 19t-60 52t-20.5 80q0 43 19 78.5t58 61.5t101 40t145 14h27q-7 107 -134 107q-82 0 -156 -49h-2l-40 112
q100 53 225 53q130 0 190.5 -54.5t60.5 -177.5v-137zM260 96q37 0 69.5 20t45 51.5t12.5 63.5v-8v26h-30q-48 0 -90.5 -9t-64.5 -30.5t-22 -49.5q0 -30 22 -47t58 -17z" />
    <glyph glyph-name="acircumflex" unicode="&#xe2;" horiz-adv-x="600" 
d="M192 610h-116l-2 1l122 176h179l122 -176l-2 -1h-116l-94 96zM531 189v-1q0 -51 3.5 -97t18.5 -86l-1 -3l-131 -12q-25 32 -32 75h-2q-31 -35 -75.5 -55t-98.5 -20q-56 0 -95.5 19t-60 52t-20.5 80q0 43 19 78.5t58 61.5t101 40t145 14h27q-7 107 -134 107
q-82 0 -156 -49h-2l-40 112q100 53 225 53q130 0 190.5 -54.5t60.5 -177.5v-137zM260 96q37 0 69.5 20t45 51.5t12.5 63.5v-8v26h-30q-48 0 -90.5 -9t-64.5 -30.5t-22 -49.5q0 -30 22 -47t58 -17z" />
    <glyph glyph-name="atilde" unicode="&#xe3;" horiz-adv-x="600" 
d="M119 626h-2l-31 84q19 22 51 38t65 16q26 0 76.5 -17.5t79.5 -17.5q47 0 93 36h2l31 -84q-56 -56 -125 -56q-32 0 -77.5 17.5t-70.5 17.5q-23 0 -48.5 -9.5t-43.5 -24.5zM531 189q0 -51 3.5 -97.5t18.5 -86.5l-1 -3l-131 -12q-25 32 -32 75h-2q-31 -35 -75.5 -55
t-98.5 -20q-56 0 -95.5 19t-60 52t-20.5 80q0 43 19 78.5t58 61.5t101 40t145 14h27q-7 107 -134 107q-82 0 -156 -49h-2l-40 112q100 53 225 53q130 0 190.5 -54.5t60.5 -177.5v-137zM260 96q37 0 69.5 20t45 51.5t12.5 63.5v-8v26h-30q-48 0 -90.5 -9t-64.5 -30.5
t-22 -49.5q0 -30 22 -47t58 -17z" />
    <glyph glyph-name="adieresis" unicode="&#xe4;" horiz-adv-x="600" 
d="M174 624q-35 0 -57 20.5t-22 52.5q0 31 24 54t57 23q32 0 54.5 -21t22.5 -51q0 -31 -24 -54.5t-55 -23.5zM396 624q-35 0 -57 20.5t-22 52.5q0 31 24 54t57 23q32 0 54.5 -21t22.5 -51q0 -31 -24 -54.5t-55 -23.5zM531 189v-1q0 -51 3.5 -97t18.5 -86l-1 -3l-131 -12
q-25 32 -32 75h-2q-31 -35 -75.5 -55t-98.5 -20q-56 0 -95.5 19t-60 52t-20.5 80q0 43 19 78.5t58 61.5t101 40t145 14h27q-7 107 -134 107q-82 0 -156 -49h-2l-40 112q100 53 225 53q130 0 190.5 -54.5t60.5 -177.5v-137zM260 96q37 0 69.5 20t45 51.5t12.5 63.5v-8v26h-30
q-48 0 -90.5 -9t-64.5 -30.5t-22 -49.5q0 -30 22 -47t58 -17z" />
    <glyph glyph-name="aring" unicode="&#xe5;" horiz-adv-x="600" 
d="M284 587q-24 0 -53.5 12t-51 43t-21.5 69t21.5 69t51 43t53.5 12q25 0 54.5 -12t51 -43t21.5 -69q0 -24 -12.5 -53t-44.5 -50t-70 -21zM284 759q-20 0 -32.5 -13.5t-12.5 -34.5t12.5 -34.5t32.5 -13.5t33 13.5t13 34.5t-13 34.5t-33 13.5zM531 189q0 -51 3.5 -97.5
t18.5 -86.5l-1 -3l-131 -12q-25 32 -32 75h-2q-31 -35 -75.5 -55t-98.5 -20q-56 0 -95.5 19t-60 52t-20.5 80q0 43 19 78.5t58 61.5t101 40t145 14h27q-7 107 -134 107q-82 0 -156 -49h-2l-40 112q100 53 225 53q130 0 190.5 -54.5t60.5 -177.5v-137zM260 96q37 0 69.5 20
t45 51.5t12.5 63.5v-8v26h-30q-48 0 -90.5 -9t-64.5 -30.5t-22 -49.5q0 -30 22 -47t58 -17z" />
    <glyph glyph-name="ae" unicode="&#xe6;" horiz-adv-x="948" 
d="M901 248l-10 -9h-348q7 -70 46 -103t111 -33q47 0 87.5 12.5t70.5 36.5h2l38 -109q-37 -21 -97 -37t-125 -16q-88 0 -148.5 30t-92.5 83h-7q-27 -48 -88 -80.5t-134 -32.5q-78 0 -123.5 38.5t-45.5 108.5q0 90 82.5 140.5t247.5 50.5h23q-7 114 -135 114q-85 0 -159 -56
h-2l-41 116q53 28 108 42t122 14q145 0 206 -65q35 31 82.5 48t103.5 17q115 0 172.5 -62.5t57.5 -176.5q0 -39 -4 -71zM772 326l1 23q0 47 -27 76t-74 29q-51 0 -85 -35.5t-42 -100.5zM263 97q25 0 54 10.5t49.5 39t23.5 68.5v32h-26q-92 0 -137 -23t-45 -64
q0 -30 21.5 -46.5t59.5 -16.5z" />
    <glyph glyph-name="ccedilla" unicode="&#xe7;" horiz-adv-x="552" 
d="M345 -33q56 -6 82 -31t26 -64q0 -47 -38 -75t-115 -28q-78 0 -118 28l23 73h2q24 -24 69 -24q54 0 54 35q0 42 -95 42l-4 5l22 67q-51 9 -91 33.5t-66.5 60.5t-40 82.5t-13.5 98.5q0 62 18.5 115t55.5 91.5t91.5 60t123.5 21.5q62 0 113 -16t74 -35l-41 -115h-2
q-26 19 -62 31t-70 12q-67 0 -104.5 -42.5t-37.5 -123.5q0 -77 34.5 -117t102.5 -40q36 0 73.5 12.5t67.5 36.5h2l41 -117q-32 -19 -76.5 -33.5t-92.5 -18.5z" />
    <glyph glyph-name="egrave" unicode="&#xe8;" horiz-adv-x="595" 
d="M402 610h-132l-122 174v2l160 19l96 -195h-2zM548 248l-11 -9h-345q7 -70 45 -103t106 -33q101 0 161 49h2l39 -109q-37 -21 -97.5 -37t-123.5 -16q-71 0 -125.5 21t-89 58t-51.5 87t-17 108q0 64 19.5 118.5t56.5 93.5t90.5 60.5t117.5 21.5q112 0 169.5 -63t57.5 -174
q0 -21 -4 -73zM419 326l1 25q0 33 -15 58.5t-39 35t-47 9.5q-51 0 -84.5 -35t-41.5 -101z" />
    <glyph glyph-name="eacute" unicode="&#xe9;" horiz-adv-x="595" 
d="M365 610h-131h-2l96 195l160 -19v-2zM548 248l-11 -9h-345q7 -70 45 -103t106 -33q101 0 161 49h2l39 -109q-37 -21 -97.5 -37t-123.5 -16q-71 0 -125.5 21t-89 58t-51.5 87t-17 108q0 64 19.5 118.5t56.5 93.5t90.5 60.5t117.5 21.5q112 0 169.5 -63t57.5 -174
q0 -21 -4 -73zM419 326l1 25q0 33 -15 58.5t-39 35t-47 9.5q-51 0 -84.5 -35t-41.5 -101z" />
    <glyph glyph-name="ecircumflex" unicode="&#xea;" horiz-adv-x="595" 
d="M231 610h-116l-2 1l122 176h179l122 -176l-1 -1h-117l-93 96zM548 248l-11 -9h-345q7 -70 45 -103t106 -33q101 0 161 49h2l39 -109q-37 -21 -97.5 -37t-123.5 -16q-71 0 -125.5 21t-89 58t-51.5 87t-17 108q0 64 19.5 118.5t56.5 93.5t90.5 60.5t117.5 21.5
q112 0 169.5 -63t57.5 -174q0 -21 -4 -73zM419 326l1 25q0 33 -15 58.5t-39 35t-47 9.5q-51 0 -84.5 -35t-41.5 -101z" />
    <glyph glyph-name="edieresis" unicode="&#xeb;" horiz-adv-x="595" 
d="M213 624q-34 0 -56.5 20.5t-22.5 52.5q0 31 24 54t57 23t55.5 -21t22.5 -51q0 -31 -24.5 -54.5t-55.5 -23.5zM435 624q-34 0 -56.5 20.5t-22.5 52.5q0 31 24 54t57 23t55.5 -21t22.5 -51q0 -31 -24.5 -54.5t-55.5 -23.5zM548 248l-11 -9h-345q7 -70 45 -103t106 -33
q101 0 161 49h2l39 -109q-37 -21 -97.5 -37t-123.5 -16q-71 0 -125.5 21t-89 58t-51.5 87t-17 108q0 64 19.5 118.5t56.5 93.5t90.5 60.5t117.5 21.5q112 0 169.5 -63t57.5 -174q0 -21 -4 -73zM419 326l1 25q0 33 -15 58.5t-39 35t-47 9.5q-51 0 -84.5 -35t-41.5 -101z" />
    <glyph glyph-name="igrave" unicode="&#xec;" horiz-adv-x="296" 
d="M134 805l96 -195h-2h-132l-122 174v2zM70 0v527l156 24v-551h-156z" />
    <glyph glyph-name="iacute" unicode="&#xed;" horiz-adv-x="296" 
d="M154 805l159 -19v-2l-122 -174h-131h-2zM70 0v527l156 24v-551h-156z" />
    <glyph glyph-name="icircumflex" unicode="&#xee;" horiz-adv-x="296" 
d="M353 610h-112l-90 96l-91 -96h-112l-1 1l117 176h173l118 -176zM70 0v527l156 24v-551h-156z" />
    <glyph glyph-name="idieresis" unicode="&#xef;" horiz-adv-x="296" 
d="M39 624q-35 0 -57 20.5t-22 52.5q0 31 24 54t57 23q32 0 54.5 -21t22.5 -51q0 -31 -24 -54.5t-55 -23.5zM261 624q-35 0 -57 20.5t-22 52.5q0 31 24 54t57 23t55.5 -21t22.5 -51q0 -31 -24.5 -54.5t-55.5 -23.5zM70 0v527l156 24v-551h-156z" />
    <glyph glyph-name="eth" unicode="&#xf0;" horiz-adv-x="650" 
d="M606 280q0 -54 -16 -106t-51 -93.5t-92 -66t-134 -24.5q-66 0 -118.5 21t-86.5 57.5t-51 84t-17 100.5q0 55 21 111.5t65 94.5t92.5 52.5t95.5 14.5q40 0 77 -9q-30 53 -77 93l-155 -64l-27 57l108 52q-55 25 -128 36l32 94q128 -21 218 -70l133 65l32 -82l-86 -35
q82 -67 123.5 -163.5t41.5 -218.5v-1zM443 261q0 31 -9.5 67t-38.5 60t-74 24q-36 0 -65.5 -18.5t-43.5 -55.5t-14 -80q0 -31 7 -60t22 -50t38 -32t52 -11q59 0 92.5 42.5t33.5 113.5z" />
    <glyph glyph-name="ntilde" unicode="&#xf1;" horiz-adv-x="664" 
d="M176 626h-2l-31 84q19 22 51 38t65 16q26 0 76.5 -17.5t79.5 -17.5q47 0 93 36h2l31 -84q-56 -56 -125 -56q-32 0 -77.5 17.5t-70.5 17.5q-23 0 -48.5 -9.5t-43.5 -24.5zM410 558q90 0 139.5 -53t49.5 -151v-354h-156v319q0 113 -89 113q-22 0 -42.5 -7t-38 -21.5
t-31.5 -45t-14 -80.5v-278h-156v427l-12 108l136 20l22 -80h2q34 38 83.5 60.5t106.5 22.5z" />
    <glyph glyph-name="ograve" unicode="&#xf2;" horiz-adv-x="659" 
d="M316 805l96 -195h-2h-131l-123 174v2zM330 -10q-32 0 -71 6.5t-76 24.5t-65 45.5t-46 64t-24.5 74.5t-6.5 68q0 132 78 208.5t211 76.5q65 0 118.5 -19.5t91.5 -57t58 -90.5t20 -118q0 -47 -13 -96.5t-46 -90.5t-76.5 -62t-82.5 -27.5t-70 -6.5zM330 108q61 0 95 43
t34 123q-1 80 -34.5 122.5t-94.5 42.5t-95 -42t-35 -123q0 -80 34.5 -123t95.5 -43z" />
    <glyph glyph-name="oacute" unicode="&#xf3;" horiz-adv-x="659" 
d="M336 805l160 -19v-2l-122 -174h-132h-2zM330 -10q-32 0 -71 6.5t-76 24.5t-65 45.5t-46 64t-24.5 74.5t-6.5 68q0 132 78 208.5t211 76.5q65 0 118.5 -19.5t91.5 -57t58 -90.5t20 -118q0 -47 -13 -96.5t-46 -90.5t-76.5 -62t-82.5 -27.5t-70 -6.5zM330 108q61 0 95 42.5
t34 123.5q-1 80 -34.5 122.5t-94.5 42.5t-95 -42t-35 -123q0 -81 34.5 -123.5t95.5 -42.5z" />
    <glyph glyph-name="ocircumflex" unicode="&#xf4;" horiz-adv-x="659" 
d="M543 610h-116l-94 96l-93 -96h-117l-1 1l122 176h179l121 -176zM330 -10q-32 0 -71 6.5t-76 24.5t-65 45.5t-46 64t-24.5 74.5t-6.5 68q0 132 78 208.5t211 76.5q65 0 118.5 -19.5t91.5 -57t58 -90.5t20 -118q0 -47 -13 -96.5t-46 -90.5t-76.5 -62t-82.5 -27.5t-70 -6.5z
M330 108q61 0 95 43t34 123q-1 80 -34.5 122.5t-94.5 42.5t-95 -42t-35 -123q0 -81 34.5 -123.5t95.5 -42.5z" />
    <glyph glyph-name="otilde" unicode="&#xf5;" horiz-adv-x="659" 
d="M407 625q-32 0 -78 17.5t-71 17.5q-23 0 -48.5 -10t-42.5 -24h-2l-31 84q18 22 50 38t66 16q26 0 76.5 -17.5t79.5 -17.5q47 0 93 36h2l31 -84q-56 -56 -125 -56zM330 -10q-32 0 -71 6.5t-76 24.5t-65 45.5t-46 64t-24.5 74.5t-6.5 68q0 132 78 208.5t211 76.5
q65 0 118.5 -19.5t91.5 -57t58 -90.5t20 -118q0 -47 -13 -96.5t-46 -90.5t-76.5 -62t-82.5 -27.5t-70 -6.5zM330 108q61 0 95 42.5t34 123.5q-1 80 -34.5 122.5t-94.5 42.5t-95 -42t-35 -123q0 -81 34.5 -123.5t95.5 -42.5z" />
    <glyph glyph-name="odieresis" unicode="&#xf6;" horiz-adv-x="659" 
d="M221 624q-34 0 -56 20.5t-22 52.5q0 31 24 54t57 23q32 0 54.5 -21t22.5 -51q0 -15 -8 -33t-28.5 -31.5t-43.5 -13.5zM443 624q-34 0 -56 20.5t-22 52.5q0 31 24 54t57 23q32 0 54.5 -21t22.5 -51q0 -15 -8 -33t-28.5 -31.5t-43.5 -13.5zM330 -10q-32 0 -71 6.5t-76 24.5
t-65 45.5t-46 64t-24.5 74.5t-6.5 68q0 132 78 208.5t211 76.5q65 0 118.5 -19.5t91.5 -57t58 -90.5t20 -118q0 -47 -13 -96.5t-46 -90.5t-76.5 -62t-82.5 -27.5t-70 -6.5zM330 108q61 0 95 43t34 123q-1 80 -34.5 122.5t-94.5 42.5t-95 -42t-35 -123q0 -81 34.5 -123.5
t95.5 -42.5z" />
    <glyph glyph-name="divide" unicode="&#xf7;" horiz-adv-x="514" 
d="M256 490q-37 0 -60 21t-23 56q0 16 8 35t29.5 32.5t49.5 13.5q37 0 60 -21t23 -55q0 -35 -24.5 -58.5t-62.5 -23.5zM48 422h417v-111h-417v111zM256 89q-37 0 -60 21t-23 56t24 58t63 23q37 0 60 -21t23 -55q0 -35 -24.5 -58.5t-62.5 -23.5z" />
    <glyph glyph-name="oslash" unicode="&#xf8;" horiz-adv-x="659" 
d="M635 576l-85 -104q68 -76 68 -199q0 -47 -13 -96.5t-46 -90.5t-76.5 -62t-82.5 -27.5t-70 -6.5q-78 0 -138 26l-35 -45h-141l88 111q-63 74 -63 191q0 132 78 208.5t211 76.5q70 0 131 -24l33 42h141zM200 274q0 -37 7 -62l58 73l114 145q-22 9 -49 9q-61 0 -95 -42
t-35 -123zM459 274q0 38 -10 73l-56 -69h1l-122 -157q26 -12 58 -12q61 0 95 42.5t34 122.5z" />
    <glyph glyph-name="ugrave" unicode="&#xf9;" horiz-adv-x="656" 
d="M403 610h-132l-122 174v2l160 19l96 -195h-2zM583 172q0 -44 3.5 -84.5t17.5 -82.5l-1 -3l-139 -12q-25 29 -33 75h-4q-27 -33 -76.5 -54t-103.5 -21q-85 0 -133.5 52.5t-48.5 151.5v344l156 20v-332q0 -112 88 -112q33 0 60 14.5t42.5 41.5t15.5 69v309h156v-376z" />
    <glyph glyph-name="uacute" unicode="&#xfa;" horiz-adv-x="656" 
d="M366 610h-131h-2l95 195l160 -19v-2zM583 172q0 -44 3.5 -84.5t17.5 -82.5l-1 -3l-139 -12q-25 29 -33 75h-4q-27 -33 -76.5 -54t-103.5 -21q-85 0 -133.5 52.5t-48.5 151.5v344l156 20v-332q0 -112 88 -112q33 0 60 14.5t42.5 41.5t15.5 69v309h156v-376z" />
    <glyph glyph-name="ucircumflex" unicode="&#xfb;" horiz-adv-x="656" 
d="M232 610h-116l-2 1l122 176h179l122 -176l-2 -1h-116l-93 96zM583 172q0 -44 3.5 -84.5t17.5 -82.5l-1 -3l-140 -12q-24 30 -32 75h-4q-27 -33 -76.5 -54t-103.5 -21q-85 0 -133.5 52.5t-48.5 151.5v344l156 20v-332q0 -112 88 -112q33 0 60 14.5t42.5 41.5t15.5 69v309
h156v-376z" />
    <glyph glyph-name="udieresis" unicode="&#xfc;" horiz-adv-x="656" 
d="M214 624q-35 0 -57 20.5t-22 52.5q0 31 24 54t57 23q32 0 54.5 -21t22.5 -51q0 -31 -24 -54.5t-55 -23.5zM436 624q-35 0 -57 20.5t-22 52.5q0 31 24 54t57 23q32 0 54.5 -21t22.5 -51q0 -31 -24 -54.5t-55 -23.5zM583 172q0 -44 3.5 -84.5t17.5 -82.5l-1 -3l-140 -12
q-24 30 -32 75h-4q-27 -33 -76.5 -54t-103.5 -21q-85 0 -133.5 52.5t-48.5 151.5v344l156 20v-332q0 -112 88 -112q33 0 60 14.5t42.5 41.5t15.5 69v309h156v-376z" />
    <glyph glyph-name="yacute" unicode="&#xfd;" horiz-adv-x="613" 
d="M356 610h-132h-2l96 195l160 -19v-2zM445 548h162l-141 -358q-44 -114 -84.5 -185.5t-91.5 -122t-136 -93.5l-109 86v2q124 61 182 147l-214 511l172 21l89 -272q22 -77 35 -137h10q13 62 37 135z" />
    <glyph glyph-name="thorn" unicode="&#xfe;" horiz-adv-x="665" 
d="M404 558q102 0 160.5 -69t58.5 -195q0 -143 -76.5 -223.5t-209.5 -80.5q-62 0 -110 18v-189l-156 -26v958l156 24v-300h3q30 39 74 61t100 22zM328 108q135 0 135 169q0 80 -28.5 120t-81.5 40q-22 0 -42.5 -7.5t-37.5 -22t-31.5 -45.5t-14.5 -81v-147q20 -12 48 -19
t53 -7z" />
    <glyph glyph-name="ydieresis" unicode="&#xff;" horiz-adv-x="613" 
d="M204 624q-35 0 -57 20.5t-22 52.5q0 31 24 54t57 23q32 0 54.5 -21t22.5 -51q0 -31 -24 -54.5t-55 -23.5zM426 624q-35 0 -57 20.5t-22 52.5q0 31 24 54t57 23q32 0 54.5 -21t22.5 -51q0 -31 -24 -54.5t-55 -23.5zM445 548h162l-141 -358q-44 -114 -84.5 -185.5
t-91.5 -122t-136 -93.5l-109 86v2q124 61 182 147l-214 511l172 21l89 -272q22 -77 35 -137h10q13 62 37 135z" />
    <glyph glyph-name="Amacron" unicode="&#x100;" horiz-adv-x="717" 
d="M548 900v-106h-378v98zM544 0l-58 168l-257 4l-59 -172h-165l268 721h171l268 -721h-168zM323 478l-61 -190l191 1l-62 189q-19 58 -31 111l-2 -2l-4 3q-12 -53 -31 -112z" />
    <glyph glyph-name="amacron" unicode="&#x101;" horiz-adv-x="600" 
d="M462 752v-107h-353v98zM531 189q0 -51 3.5 -97.5t18.5 -86.5l-1 -3l-131 -12q-25 32 -32 75h-2q-31 -35 -75.5 -55t-98.5 -20q-56 0 -95.5 19t-60 52t-20.5 80q0 43 19 78.5t58 61.5t101 40t145 14h27q-7 107 -134 107q-82 0 -156 -49h-2l-40 112q100 53 225 53
q130 0 190.5 -54.5t60.5 -177.5v-137zM260 96q37 0 69.5 20t45 51.5t12.5 63.5v-8v26h-30q-48 0 -90.5 -9t-64.5 -30.5t-22 -49.5q0 -30 22 -47t58 -17z" />
    <glyph glyph-name="Abreve" unicode="&#x102;" horiz-adv-x="717" 
d="M359 759q-45 0 -89 15.5t-71.5 54.5t-27.5 89h104q0 -26 23 -45.5t61 -19.5t61 19.5t23 45.5h104q0 -24 -8 -50.5t-28.5 -50.5t-58 -41t-93.5 -17zM544 0l-58 168l-257 4l-59 -172h-165l268 721h171l268 -721h-168zM323 478l-61 -190l191 1l-62 189q-19 58 -31 111l-2 -2
l-4 3q-12 -53 -31 -112z" />
    <glyph glyph-name="abreve" unicode="&#x103;" horiz-adv-x="600" 
d="M285 592q-90 0 -139 51t-49 136h98q0 -41 23.5 -65t66.5 -24q44 0 67.5 24t23.5 65h98q0 -30 -8 -62t-28.5 -59.5t-58 -46.5t-94.5 -19zM531 189v-1q0 -51 3.5 -97t18.5 -86l-1 -3l-131 -12q-25 32 -32 75h-2q-31 -35 -75.5 -55t-98.5 -20q-56 0 -95.5 19t-60 52
t-20.5 80q0 43 19 78.5t58 61.5t101 40t145 14h27q-7 107 -134 107q-82 0 -156 -49h-2l-40 112q100 53 225 53q130 0 190.5 -54.5t60.5 -177.5v-137zM260 96q37 0 69.5 20t45 51.5t12.5 63.5v-8v26h-30q-48 0 -90.5 -9t-64.5 -30.5t-22 -49.5q0 -30 22 -47t58 -17z" />
    <glyph glyph-name="Aogonek" unicode="&#x104;" horiz-adv-x="717" 
d="M714 -109l22 -77q-54 -32 -127 -32q-62 0 -97.5 24.5t-35.5 69.5q0 37 24.5 69t66.5 55h-23l-58 168l-257 4l-59 -172h-165l268 721h171l268 -721h-4q-44 -18 -71.5 -45.5t-27.5 -54.5q0 -16 11 -25.5t29 -9.5q29 0 63 26h2zM323 478l-61 -190l191 1l-62 189
q-19 58 -31 111l-2 -2l-4 3q-12 -53 -31 -112z" />
    <glyph glyph-name="aogonek" unicode="&#x105;" horiz-adv-x="600" 
d="M564 -109l22 -77q-54 -32 -126 -32q-63 0 -98.5 24.5t-35.5 69.5q0 36 23.5 67.5t64.5 54.5q-19 29 -25 67h-2q-31 -35 -75.5 -55t-98.5 -20q-56 0 -95.5 19t-60 52t-20.5 80q0 43 19 78.5t58 61.5t101 40t145 14h27q-7 107 -134 107q-82 0 -156 -49h-2l-40 112
q100 53 225 53q130 0 190.5 -54.5t60.5 -177.5v-137q0 -51 3.5 -97.5t18.5 -86.5l-1 -3l-16 -1l22 -1q-44 -18 -71.5 -45.5t-27.5 -54.5q0 -16 11 -25.5t29 -9.5q29 0 63 26h2zM260 96q37 0 69.5 20t45 51.5t12.5 63.5v-8v26h-30q-48 0 -90.5 -9t-64.5 -30.5t-22 -49.5
q0 -30 22 -47t58 -17z" />
    <glyph glyph-name="Cacute" unicode="&#x106;" horiz-adv-x="658" 
d="M248 820l241 115l74 -104v-2l-284 -82l-31 72v1zM416 592q-98 0 -149.5 -64t-51.5 -173q0 -107 50 -166.5t149 -59.5q97 0 171 59h1l45 -133q-103 -65 -237 -65q-83 0 -149 27.5t-110 76.5t-66 116.5t-22 146.5q0 80 23 149t68.5 119t115 78t157.5 28q122 0 211 -52
l-47 -138h-2q-24 19 -63.5 35t-93.5 16z" />
    <glyph glyph-name="cacute" unicode="&#x107;" horiz-adv-x="552" 
d="M327 805l160 -19v-2l-122 -174h-132h-2zM343 435q-67 0 -104.5 -42.5t-37.5 -123.5q0 -77 34.5 -117t102.5 -40q36 0 73.5 12.5t67.5 36.5h2l42 -117q-38 -22 -93.5 -38t-113.5 -16q-66 0 -118 21t-86.5 58.5t-52 89t-17.5 111.5q0 62 18.5 115t55.5 91.5t91.5 60
t123.5 21.5q62 0 113 -16t74 -35l-41 -115h-2q-26 19 -62 31t-70 12z" />
    <glyph glyph-name="Ccircumflex" unicode="&#x108;" horiz-adv-x="658" 
d="M614 808v-2l-75 -43l-135 71l-134 -71l-76 43v2l137 111h147zM416 592q-98 0 -149.5 -64t-51.5 -173q0 -107 50 -166.5t149 -59.5q97 0 171 59h1l45 -133q-103 -65 -237 -65q-83 0 -149 27.5t-110 76.5t-66 116.5t-22 146.5q0 80 23 149t68.5 119t115 78t157.5 28
q122 0 211 -52l-47 -138h-2q-24 19 -63.5 35t-93.5 16z" />
    <glyph glyph-name="ccircumflex" unicode="&#x109;" horiz-adv-x="552" 
d="M534 610h-117l-93 96l-93 -96h-117l-1 1l122 176h179l121 -176zM343 435q-67 0 -104.5 -42.5t-37.5 -123.5q0 -77 34.5 -117t102.5 -40q36 0 73.5 12.5t67.5 36.5h2l42 -117q-38 -22 -93.5 -38t-113.5 -16q-66 0 -118 21t-86.5 58.5t-52 89t-17.5 111.5q0 62 18.5 115
t55.5 91.5t91.5 60t123.5 21.5q62 0 113 -16t74 -35l-41 -115h-2q-26 20 -61.5 31.5t-70.5 11.5z" />
    <glyph glyph-name="Cdotaccent" unicode="&#x10a;" horiz-adv-x="658" 
d="M402 780q-46 0 -71.5 18t-25.5 51t27 53.5t75 20.5q45 0 70.5 -18.5t25.5 -50.5q0 -34 -27 -54t-74 -20zM416 592q-98 0 -149.5 -64t-51.5 -173q0 -107 50 -166.5t149 -59.5q97 0 171 59h1l45 -133q-103 -65 -237 -65q-83 0 -149 27.5t-110 76.5t-66 116.5t-22 146.5
q0 80 23 149t68.5 119t115 78t157.5 28q122 0 211 -52l-47 -138h-2q-24 19 -63.5 35t-93.5 16z" />
    <glyph glyph-name="cdotaccent" unicode="&#x10b;" horiz-adv-x="552" 
d="M321 620q-45 0 -71 21.5t-26 55.5q0 35 28 57.5t75 22.5q44 0 70.5 -20.5t26.5 -54.5q0 -36 -28.5 -59t-74.5 -23zM343 435q-67 0 -104.5 -42.5t-37.5 -123.5q0 -77 34.5 -117t102.5 -40q36 0 73.5 12.5t67.5 36.5h2l42 -117q-38 -22 -93.5 -38t-113.5 -16q-66 0 -118 21
t-86.5 58.5t-52 89t-17.5 111.5q0 62 18.5 115t55.5 91.5t91.5 60t123.5 21.5q62 0 113 -16t74 -35l-41 -115h-2q-26 19 -62 31t-70 12z" />
    <glyph glyph-name="Ccaron" unicode="&#x10c;" horiz-adv-x="658" 
d="M609 875l-136 -111h-147l-137 111v2l76 43l134 -71l135 71l75 -43v-2zM416 592q-98 0 -149.5 -64t-51.5 -173q0 -107 50 -166.5t149 -59.5q97 0 171 59h1l45 -133q-103 -65 -237 -65q-83 0 -149 27.5t-110 76.5t-66 116.5t-22 146.5q0 80 23 149t68.5 119t115 78
t157.5 28q122 0 211 -52l-47 -138h-2q-24 19 -63.5 35t-93.5 16z" />
    <glyph glyph-name="ccaron" unicode="&#x10d;" horiz-adv-x="552" 
d="M534 785l1 -1l-121 -176h-179l-122 176l1 1h117l93 -97l93 97h117zM343 435q-67 0 -104.5 -42.5t-37.5 -123.5q0 -77 34.5 -117t102.5 -40q36 0 73.5 12.5t67.5 36.5h2l42 -117q-38 -22 -93.5 -38t-113.5 -16q-66 0 -118 21t-86.5 58.5t-52 89t-17.5 111.5q0 62 18.5 115
t55.5 91.5t91.5 60t123.5 21.5q62 0 113 -16t74 -35l-41 -115h-2q-26 19 -62 31t-70 12z" />
    <glyph glyph-name="Dcaron" unicode="&#x10e;" horiz-adv-x="772" 
d="M453 761h-147l-137 110v3l76 42l135 -70l134 70l76 -42v-3zM287 733q112 0 196 -27t137.5 -77t79 -120.5t25.5 -158.5q0 -85 -26 -152.5t-79.5 -114t-137 -71t-195.5 -24.5q-87 0 -202 14v717q138 14 202 14zM292 122q139 0 203.5 58.5t64.5 171.5q0 127 -68 187t-201 60
l-46 -1v-475z" />
    <glyph glyph-name="dcaron" unicode="&#x10f;" horiz-adv-x="677" 
d="M655 852h126l-47 -252h-104zM584 780v-588q0 -53 3.5 -98.5t18.5 -88.5l-1 -3l-139 -12q-24 33 -33 80h-4q-14 -18 -37.5 -37.5t-59 -31t-74.5 -11.5q-99 0 -157.5 70t-58.5 195q0 70 20 127t58 96t91.5 59.5t118.5 20.5q49 0 99 -13l-1 212zM308 109q35 0 64.5 20
t42.5 52.5t14 66.5v162q-16 12 -41 20.5t-52 8.5q-63 0 -99 -43.5t-36 -128.5q0 -76 28 -117t79 -41z" />
    <glyph glyph-name="Dcroat" unicode="&#x110;" horiz-adv-x="772" 
d="M287 733q112 0 196 -27t137.5 -77t79 -120.5t25.5 -158.5q0 -85 -26 -152.5t-79.5 -114t-137 -71t-195.5 -24.5q-87 0 -202 14v326l-72 4v72h72v315q138 14 202 14zM292 122q139 0 203.5 58.5t64.5 171.5q0 127 -68 187t-201 60l-46 -1v-194h138l-4 -94l-134 8v-195z" />
    <glyph glyph-name="dcroat" unicode="&#x111;" horiz-adv-x="657" 
d="M671 598l-87 5v-411q0 -54 3.5 -99.5t18.5 -87.5l-1 -3l-139 -12q-24 33 -33 80h-4q-14 -18 -37.5 -37.5t-59 -31t-74.5 -11.5q-99 0 -157.5 70t-58.5 195q0 70 20 127t58 96t91.5 59.5t118.5 20.5q49 0 99 -13l-1 68l-128 7v72h128v65l156 23v-88h92zM308 109
q35 0 64.5 20t42.5 52.5t14 66.5v162q-16 12 -41 20.5t-52 8.5q-63 0 -99 -43.5t-36 -128.5q0 -76 28 -117t79 -41z" />
    <glyph glyph-name="Emacron" unicode="&#x112;" horiz-adv-x="637" 
d="M530 896v-105h-378v97zM245 120l343 8v-128h-503v721h493v-128l-333 8v-181l287 6v-127l-287 6v-185z" />
    <glyph glyph-name="emacron" unicode="&#x113;" horiz-adv-x="595" 
d="M501 752v-107h-353v98zM548 248l-11 -9h-345q7 -70 45 -103t106 -33q101 0 161 49h2l39 -109q-37 -21 -97.5 -37t-123.5 -16q-71 0 -125.5 21t-89 58t-51.5 87t-17 108q0 64 19.5 118.5t56.5 93.5t90.5 60.5t117.5 21.5q112 0 169.5 -63t57.5 -174q0 -21 -4 -73zM419 326
l1 25q0 33 -15 58.5t-39 35t-47 9.5q-51 0 -84.5 -35t-41.5 -101z" />
    <glyph glyph-name="Ebreve" unicode="&#x114;" horiz-adv-x="637" 
d="M341 755q-56 0 -101 21t-66 59t-21 79h104q0 -26 23 -45t61 -19t61 19t23 45h104q0 -41 -21 -79t-66 -59t-101 -21zM245 120l343 8v-128h-503v721h493v-128l-333 8v-181l287 6v-127l-287 6v-185z" />
    <glyph glyph-name="ebreve" unicode="&#x115;" horiz-adv-x="595" 
d="M325 592q-34 0 -67.5 9t-60.5 31.5t-44 58.5t-17 88h99q0 -41 23.5 -65t66.5 -24t66.5 24t23.5 65h98q0 -41 -12 -75.5t-35.5 -59.5t-59.5 -38.5t-81 -13.5zM548 248l-11 -9h-345q7 -70 45 -103t106 -33q101 0 161 49h2l39 -109q-37 -21 -97.5 -37t-123.5 -16
q-71 0 -125.5 21t-89 58t-51.5 87t-17 108q0 64 19.5 118.5t56.5 93.5t90.5 60.5t117.5 21.5q112 0 169.5 -63t57.5 -174q0 -21 -4 -73zM419 326l1 25q0 33 -15 58.5t-39 35t-47 9.5q-51 0 -84.5 -35t-41.5 -101z" />
    <glyph glyph-name="Edotaccent" unicode="&#x116;" horiz-adv-x="637" 
d="M339 776q-46 0 -71.5 18.5t-25.5 51.5t27 53t75 20q45 0 70.5 -18t25.5 -50q0 -34 -27.5 -54.5t-73.5 -20.5zM245 120l343 8v-128h-503v721h493v-128l-333 8v-181l287 6v-127l-287 6v-185z" />
    <glyph glyph-name="edotaccent" unicode="&#x117;" horiz-adv-x="595" 
d="M322 620q-45 0 -71 21.5t-26 55.5q0 35 27.5 57.5t74.5 22.5q44 0 70.5 -20.5t26.5 -54.5q0 -36 -28 -59t-74 -23zM548 248l-11 -9h-345q7 -70 45 -103t106 -33q101 0 161 49h2l39 -109q-37 -21 -97.5 -37t-123.5 -16q-71 0 -125.5 21t-89 58t-51.5 87t-17 108
q0 64 19.5 118.5t56.5 93.5t90.5 60.5t117.5 21.5q112 0 169.5 -63t57.5 -174q0 -21 -4 -73zM419 326l1 25q0 33 -15 58.5t-39 35t-47 9.5q-51 0 -84.5 -35t-41.5 -101z" />
    <glyph glyph-name="Eogonek" unicode="&#x118;" horiz-adv-x="637" 
d="M594 -109l22 -77q-54 -32 -126 -32q-63 0 -98.5 24.5t-35.5 69.5q0 37 24.5 69t66.5 55h-362v721h493v-128l-333 8v-181l287 6v-127l-287 6v-185l343 8v-128q-44 -18 -71.5 -45.5t-27.5 -54.5q0 -16 11 -25.5t29 -9.5q29 0 63 26h2z" />
    <glyph glyph-name="eogonek" unicode="&#x119;" horiz-adv-x="595" 
d="M548 248l-11 -9h-345q7 -70 45 -103t106 -33q101 0 161 49h2l39 -109q-36 -20 -95 -37q-40 -18 -65 -44t-25 -52q0 -16 11 -25.5t29 -9.5q29 0 63 26h2l21 -77q-53 -32 -126 -32q-62 0 -97.5 24.5t-35.5 69.5q0 60 61 105q-30 2 -65.5 11.5t-67.5 29t-58.5 51.5t-41 79.5
t-14.5 101.5q0 64 19.5 118.5t56.5 93.5t90.5 60.5t117.5 21.5q112 0 169.5 -63t57.5 -174q0 -21 -4 -73zM419 326l1 25q0 33 -15 58.5t-39 35t-47 9.5q-51 0 -84.5 -35t-41.5 -101z" />
    <glyph glyph-name="Ecaron" unicode="&#x11a;" horiz-adv-x="637" 
d="M410 761h-147l-137 110v3l76 42l134 -70l135 70l75 -42v-3zM245 120l343 8v-128h-503v721h493v-128l-333 8v-181l287 6v-127l-287 6v-185z" />
    <glyph glyph-name="ecaron" unicode="&#x11b;" horiz-adv-x="595" 
d="M414 608h-179l-122 176l2 1h116l94 -97l93 97h117l1 -1zM548 248l-11 -9h-345q7 -70 45 -103t106 -33q101 0 161 49h2l39 -109q-37 -21 -97.5 -37t-123.5 -16q-71 0 -125.5 21t-89 58t-51.5 87t-17 108q0 64 19.5 118.5t56.5 93.5t90.5 60.5t117.5 21.5q112 0 169.5 -63
t57.5 -174q0 -21 -4 -73zM419 326l1 25q0 33 -15 58.5t-39 35t-47 9.5q-51 0 -84.5 -35t-41.5 -101z" />
    <glyph glyph-name="Gcircumflex" unicode="&#x11c;" horiz-adv-x="727" 
d="M415 834l-134 -71l-76 43v2l137 111h147l136 -111v-2l-75 -43zM526 366h146v-313q-51 -29 -118 -46t-142 -17q-93 0 -163.5 27t-115 76t-65.5 115.5t-21 144.5q0 84 24 154t71.5 120t119 77t162.5 27q65 0 126 -13.5t104 -35.5l-48 -140h-2q-35 25 -80.5 38.5t-93.5 13.5
q-104 0 -159.5 -63t-55.5 -180q0 -110 52 -168.5t153 -58.5q56 0 112 20z" />
    <glyph glyph-name="gcircumflex" unicode="&#x11d;" horiz-adv-x="616" 
d="M195 610h-116l-2 1l122 176h179l122 -176l-2 -1h-116l-93 96zM597 553l-8 -114l-76 6q15 -34 15 -78q0 -89 -63 -140t-174 -51q-50 -4 -50 -27q0 -24 56 -27q150 -10 213.5 -48t63.5 -117q0 -50 -31 -88t-95.5 -63t-162.5 -25q-124 0 -193.5 41.5t-69.5 116.5
q0 92 108 132q-41 18 -41 58q0 27 19.5 45.5t54.5 24.5q-24 10 -49.5 31t-41 56.5t-15.5 79.5q0 88 63.5 140t172.5 52q77 0 136 -27l166 23zM291 263q43 0 68 27.5t25 75.5q0 49 -24 75.5t-68 26.5q-42 0 -67.5 -28t-25.5 -76q0 -47 24.5 -74t67.5 -27zM422 -47
q0 24 -16 38t-56 22.5t-126 10.5q-29 -7 -45.5 -25.5t-16.5 -44.5q0 -35 34 -55.5t93 -20.5q45 0 77 11.5t44 29.5t12 34z" />
    <glyph glyph-name="Gbreve" unicode="&#x11e;" horiz-adv-x="727" 
d="M415 759q-33 0 -66.5 8.5t-60.5 28t-44 50.5t-17 72h104q0 -26 23 -45.5t61 -19.5t61.5 19.5t23.5 45.5h104q0 -50 -25 -85.5t-66.5 -54.5t-97.5 -19zM526 366h146v-313q-51 -29 -118 -46t-142 -17q-93 0 -163.5 27t-115 76t-65.5 115.5t-21 144.5q0 84 24 154t71.5 120
t119 77t162.5 27q65 0 126 -13.5t104 -35.5l-48 -140h-2q-35 25 -80.5 38.5t-93.5 13.5q-104 0 -159.5 -63t-55.5 -180q0 -110 52 -168.5t153 -58.5q56 0 112 20z" />
    <glyph glyph-name="gbreve" unicode="&#x11f;" horiz-adv-x="616" 
d="M289 592q-34 0 -67.5 9t-60.5 31.5t-44 58.5t-17 88h99q0 -41 23 -65t67 -24q43 0 66.5 24t23.5 65h98q0 -41 -12 -75.5t-35.5 -59.5t-59.5 -38.5t-81 -13.5zM597 553l-8 -114l-76 6q15 -34 15 -78q0 -89 -63 -140t-174 -51q-50 -4 -50 -27q0 -24 56 -27
q150 -10 213.5 -48t63.5 -117q0 -50 -31 -88t-95.5 -63t-162.5 -25q-124 0 -193.5 41.5t-69.5 116.5q0 92 108 132q-41 18 -41 58q0 27 19.5 45.5t54.5 24.5q-24 10 -49.5 31t-41 56.5t-15.5 79.5q0 88 63.5 140t172.5 52q77 0 136 -27l166 23zM291 263q43 0 68 27.5
t25 75.5q0 49 -24 75.5t-68 26.5q-42 0 -67.5 -28t-25.5 -76q0 -47 24.5 -74t67.5 -27zM422 -47q0 24 -16 38t-56 22.5t-126 10.5q-29 -7 -45.5 -25.5t-16.5 -44.5q0 -35 34 -55.5t93 -20.5q45 0 77 11.5t44 29.5t12 34z" />
    <glyph glyph-name="Gdotaccent" unicode="&#x120;" horiz-adv-x="727" 
d="M413 780q-46 0 -71.5 18t-25.5 51t27 53.5t75 20.5q45 0 70.5 -18.5t25.5 -50.5q0 -34 -27 -54t-74 -20zM526 366h146v-313q-51 -29 -118 -46t-142 -17q-93 0 -163.5 27t-115 76t-65.5 115.5t-21 144.5q0 84 24 154t71.5 120t119 77t162.5 27q65 0 126 -13.5t104 -35.5
l-48 -140h-2q-35 25 -80.5 38.5t-93.5 13.5q-104 0 -159.5 -63t-55.5 -180q0 -110 52 -168.5t153 -58.5q56 0 112 20z" />
    <glyph glyph-name="gdotaccent" unicode="&#x121;" horiz-adv-x="616" 
d="M286 620q-45 0 -71 21.5t-26 55.5q0 35 27.5 57.5t74.5 22.5q44 0 70.5 -20.5t26.5 -54.5q0 -36 -28 -59t-74 -23zM598 553l-9 -114l-76 6q15 -34 15 -78q0 -89 -63 -140t-174 -51q-50 -4 -50 -27q0 -24 56 -27q150 -10 213.5 -48t63.5 -117q0 -50 -31 -88t-95.5 -63
t-162.5 -25q-124 0 -193.5 41.5t-69.5 116.5q0 92 108 132q-41 18 -41 58q0 27 19.5 45.5t54.5 24.5q-24 10 -49.5 31t-41 56.5t-15.5 79.5q0 88 63.5 140t172.5 52q77 0 136 -27l167 23zM291 263q43 0 68 27.5t25 75.5q0 49 -24 75.5t-68 26.5q-42 0 -67.5 -28t-25.5 -76
q0 -47 24.5 -74t67.5 -27zM422 -47q0 24 -16 38t-56 22.5t-126 10.5q-29 -7 -45.5 -25.5t-16.5 -44.5q0 -35 34 -55.5t93 -20.5q29 0 60.5 6.5t52 25t20.5 43.5z" />
    <glyph glyph-name="Gcommaaccent" unicode="&#x122;" horiz-adv-x="727" 
d="M526 366h146v-313q-51 -29 -118 -46t-142 -17q-93 0 -163.5 27t-115 76t-65.5 115.5t-21 144.5q0 84 24 154t71.5 120t119 77t162.5 27q65 0 126 -13.5t104 -35.5l-48 -140h-2q-35 25 -80.5 38.5t-93.5 13.5q-104 0 -159.5 -63t-55.5 -180q0 -110 52 -168.5t153 -58.5
q56 0 112 20zM276 -240q34 35 46.5 73t11.5 95h138q-5 -139 -132 -216l-64 46v2z" />
    <glyph glyph-name="gcommaaccent" unicode="&#x123;" horiz-adv-x="616" 
d="M429 799h-1q-33 -35 -45.5 -73t-11.5 -94h-138q5 139 132 215l64 -46v-2zM597 553l-8 -114l-76 6q15 -34 15 -78q0 -89 -63 -140t-174 -51q-50 -4 -50 -27q0 -24 56 -27q150 -10 213.5 -48t63.5 -117q0 -50 -31 -88t-95.5 -63t-162.5 -25q-124 0 -193.5 41.5t-69.5 116.5
q0 92 108 132q-41 18 -41 58q0 27 19.5 45.5t54.5 24.5q-24 10 -49.5 31t-41 56.5t-15.5 79.5q0 88 63.5 140t172.5 52q77 0 136 -27l166 23zM291 263q43 0 68 27.5t25 75.5q0 49 -24 75.5t-68 26.5q-42 0 -67.5 -28t-25.5 -76q0 -47 24.5 -74t67.5 -27zM422 -47
q0 24 -16 38t-56 22.5t-126 10.5q-29 -7 -45.5 -25.5t-16.5 -44.5q0 -35 34 -55.5t93 -20.5q45 0 77 11.5t44 29.5t12 34z" />
    <glyph glyph-name="Hcircumflex" unicode="&#x124;" horiz-adv-x="797" 
d="M399 834l-135 -71l-76 43v2l137 111h147l137 -111v-2l-76 -43zM552 721h160v-721h-160v300l-307 5v-305h-160v721h160v-296l307 3v293z" />
    <glyph glyph-name="hcircumflex" unicode="&#x125;" horiz-adv-x="663" 
d="M278 781l-125 63l-124 -63l-71 38v2l127 99h137l126 -99v-2zM409 558q90 0 139.5 -53t49.5 -151v-354h-156v319q0 113 -89 113q-22 0 -42.5 -7t-38 -21.5t-31.5 -45t-14 -80.5v-278h-156v752l156 23v-294h3q31 35 78 56t101 21z" />
    <glyph glyph-name="Hbar" unicode="&#x126;" horiz-adv-x="797" 
d="M777 616l-6 -87l-59 1v-530h-160v300l-307 5v-305h-160v536l-67 1v79h67v105h160v-105h307v105h160v-105h65zM552 428v103l-307 4v-110z" />
    <glyph glyph-name="hbar" unicode="&#x127;" horiz-adv-x="663" 
d="M409 558q90 0 139.5 -53t49.5 -151v-354h-156v319q0 113 -89 113q-22 0 -42.5 -7t-38 -21.5t-31.5 -45t-14 -80.5v-278h-156v617l-82 5v71h82v59l156 23v-82h138l-5 -93l-133 8v-127h3q31 35 78 56t101 21z" />
    <glyph glyph-name="Itilde" unicode="&#x128;" horiz-adv-x="330" 
d="M242 770q-31 0 -79.5 20t-73.5 20q-55 0 -92 -41h-2l-32 88q43 61 121 61q31 0 80.5 -20t76.5 -20q53 0 92 42h2l33 -87q-47 -63 -126 -63zM85 0v721h160v-721h-160z" />
    <glyph glyph-name="itilde" unicode="&#x129;" horiz-adv-x="296" 
d="M220 625q-30 0 -73 17.5t-66 17.5q-22 0 -45.5 -9.5t-40.5 -24.5h-2l-29 84q17 22 47 38t62 16q24 0 71 -17.5t75 -17.5q42 0 87 36h1l29 -84q-51 -56 -116 -56zM70 0v527l156 24v-551h-156z" />
    <glyph glyph-name="Imacron" unicode="&#x12a;" horiz-adv-x="330" 
d="M357 794h-379v98l379 8v-106zM85 0v721h160v-721h-160z" />
    <glyph glyph-name="imacron" unicode="&#x12b;" horiz-adv-x="296" 
d="M321 645h-341v98l341 9v-107zM70 0v527l156 24v-551h-156z" />
    <glyph glyph-name="Ibreve" unicode="&#x12c;" horiz-adv-x="330" 
d="M167 759q-33 0 -66.5 8.5t-60.5 28t-44 50.5t-17 72h104q0 -26 23 -45.5t61 -19.5t61.5 19.5t23.5 45.5h104q0 -50 -25 -85.5t-66.5 -54.5t-97.5 -19zM85 0v721h160v-721h-160z" />
    <glyph glyph-name="ibreve" unicode="&#x12d;" horiz-adv-x="296" 
d="M151 592q-34 0 -67.5 9t-60.5 31.5t-44 58.5t-17 88h99q0 -41 23.5 -65t66.5 -24t66.5 24t23.5 65h98q0 -41 -12 -75.5t-35.5 -59.5t-59.5 -38.5t-81 -13.5zM70 0v527l156 24v-551h-156z" />
    <glyph glyph-name="Iogonek" unicode="&#x12e;" horiz-adv-x="330" 
d="M251 -109l22 -77q-54 -32 -126 -32q-61 0 -97.5 25t-36.5 69q0 37 24.5 69t67.5 55h-20v721h160v-721q-44 -18 -71.5 -45.5t-27.5 -54.5q0 -16 11 -25.5t29 -9.5q29 0 63 26h2z" />
    <glyph glyph-name="iogonek" unicode="&#x12f;" horiz-adv-x="296" 
d="M148 620q-45 0 -71 21.5t-26 55.5q0 35 27.5 57.5t74.5 22.5q44 0 70.5 -20.5t26.5 -54.5q0 -36 -28 -59t-74 -23zM232 -109l21 -77q-53 -32 -126 -32q-62 0 -97.5 24.5t-35.5 69.5q0 37 24.5 69t66.5 55h-15v527l156 24v-551q-44 -18 -71.5 -45.5t-27.5 -54.5
q0 -16 11 -25.5t29 -9.5q29 0 63 26h2z" />
    <glyph glyph-name="Idotaccent" unicode="&#x130;" horiz-adv-x="330" 
d="M165 780q-46 0 -71.5 18t-25.5 51t27 53.5t75 20.5q45 0 70.5 -18.5t25.5 -50.5q0 -34 -27 -54t-74 -20zM85 0v721h160v-721h-160z" />
    <glyph glyph-name="dotlessi" unicode="&#x131;" horiz-adv-x="296" 
d="M70 0v527l156 24v-551h-156z" />
    <glyph glyph-name="IJ" unicode="&#x132;" horiz-adv-x="660" 
d="M85 0v721h160v-721h-160zM416 721h160v-610q0 -117 -44.5 -189.5t-142.5 -113.5l-95 105v2q69 25 95.5 69.5t26.5 118.5v618z" />
    <glyph glyph-name="ij" unicode="&#x133;" horiz-adv-x="593" 
d="M153 772q44 0 69.5 -19.5t25.5 -52.5q0 -34 -27.5 -56t-72.5 -22t-70.5 20t-25.5 53q0 34 27.5 55.5t73.5 21.5zM449 772q44 0 69.5 -19.5t25.5 -52.5q0 -35 -27 -56.5t-73 -21.5q-44 0 -69.5 20t-25.5 53q0 34 26.5 55.5t73.5 21.5zM70 0v523l156 25v-548h-156zM367 56
v467l156 25v-472q0 -106 -41 -177t-125 -110l-94 102v2q104 42 104 163z" />
    <glyph glyph-name="Jcircumflex" unicode="&#x134;" horiz-adv-x="330" 
d="M239 919l137 -111v-2l-76 -43l-134 71l-134 -71l-76 43v2l136 111h147zM86 103v618h161v-610q0 -117 -45 -189.5t-143 -113.5l-94 105v2q68 25 94.5 69.5t26.5 118.5z" />
    <glyph glyph-name="jcircumflex" unicode="&#x135;" horiz-adv-x="297" 
d="M240 777l122 -176l-1 -1h-117l-93 96l-93 -96h-117l-1 1l122 176h178zM71 56v467l156 25v-472q0 -94 -35.5 -170t-92.5 -117l-133 72v2q56 40 80.5 84.5t24.5 108.5z" />
    <glyph glyph-name="Kcommaaccent" unicode="&#x136;" horiz-adv-x="715" 
d="M398 368q71 -98 151 -187.5t175 -177.5v-3l-195 -11q-142 134 -272 333h-12v-322h-160v721h160v-325h2l260 325h182l1 -2zM246 -240q33 35 46 73t11 95h139q-6 -139 -132 -216l-65 46z" />
    <glyph glyph-name="kcommaaccent" unicode="&#x137;" horiz-adv-x="610" 
d="M387 272q33 -49 83 -107.5t152 -156.5v-2l-172 -14q-46 44 -91 96t-113 156l-9 13h-10v-257h-156v753l156 26v-446h12l178 215h171l1 -2l-227 -237zM203 -240q33 35 45.5 73t11.5 95h138q-5 -139 -132 -216l-64 46z" />
    <glyph glyph-name="kgreenlandic" unicode="&#x138;" horiz-adv-x="606" 
d="M388 241q40 -54 92.5 -107.5t135.5 -124.5v-2l-165 -19q-52 41 -98.5 90t-102.5 138l-11 17h-12v-233h-156v536l156 22v-250h11l180 240h170l1 -2l-228 -269z" />
    <glyph glyph-name="Lacute" unicode="&#x139;" horiz-adv-x="580" 
d="M351 831v-2l-284 -82l-31 72v1l241 115zM245 128l313 9v-137h-473v721h160v-593z" />
    <glyph glyph-name="lacute" unicode="&#x13a;" horiz-adv-x="297" 
d="M-11 821l241 116l74 -105v-2l-284 -82l-31 72v1zM71 0v730l156 24v-754h-156z" />
    <glyph glyph-name="Lcommaaccent" unicode="&#x13b;" horiz-adv-x="580" 
d="M245 128l313 9v-137h-473v721h160v-593zM190 -240q34 35 46.5 73t11.5 95h138q-5 -139 -132 -216l-64 46v2z" />
    <glyph glyph-name="lcommaaccent" unicode="&#x13c;" horiz-adv-x="297" 
d="M71 0v750l156 25v-775h-156zM221 -72q-6 -139 -132 -216l-65 46l1 2q33 35 46 73t11 95h139z" />
    <glyph glyph-name="Lcaron" unicode="&#x13d;" horiz-adv-x="580" 
d="M536 821l-47 -252h-104l25 252h126zM245 128l313 9v-137h-473v721h160v-593z" />
    <glyph glyph-name="lcaron" unicode="&#x13e;" horiz-adv-x="317" 
d="M293 852h126l-47 -252h-104zM71 0v750l156 25v-775h-156z" />
    <glyph glyph-name="Ldot" unicode="&#x13f;" horiz-adv-x="600" 
d="M245 128l313 9v-137h-473v721h160v-593zM446 304q-41 0 -66.5 23.5t-25.5 61.5t27 63.5t69 25.5q41 0 66 -23t25 -61q0 -28 -15 -50.5t-37.5 -31t-42.5 -8.5z" />
    <glyph glyph-name="ldot" unicode="&#x140;" horiz-adv-x="452" 
d="M71 0v750l156 25v-775h-156zM368 193q-41 0 -66 23t-25 61t26.5 63.5t68.5 25.5q41 0 66 -22.5t25 -60.5q0 -28 -15 -50.5t-37.5 -31t-42.5 -8.5z" />
    <glyph glyph-name="Lslash" unicode="&#x141;" horiz-adv-x="580" 
d="M245 128l313 9v-137h-473v239l-82 -47l-18 103l100 57v369h160v-278l146 83l18 -103l-164 -93v-202z" />
    <glyph glyph-name="lslash" unicode="&#x142;" horiz-adv-x="395" 
d="M376 403l-100 -53v-350h-156v270l-68 -35l-37 87l105 54v374l156 25v-318l64 33z" />
    <glyph glyph-name="Nacute" unicode="&#x143;" horiz-adv-x="803" 
d="M285 747l-31 72v1l241 115l75 -104v-2zM570 721h148v-721h-135l-227 301q-53 71 -130 183q7 -178 7 -236v-248h-148v721h132l230 -300q40 -53 131 -186q-8 139 -8 238v248z" />
    <glyph glyph-name="nacute" unicode="&#x144;" horiz-adv-x="664" 
d="M383 610h-132h-2l96 195l160 -19v-2zM410 558q90 0 139.5 -53t49.5 -151v-354h-156v319q0 113 -89 113q-22 0 -42.5 -7t-38 -21.5t-31.5 -45t-14 -80.5v-278h-156v427l-12 108l136 19l22 -79h2q34 38 83.5 60.5t106.5 22.5z" />
    <glyph glyph-name="Ncommaaccent" unicode="&#x145;" horiz-adv-x="803" 
d="M570 721h148v-721h-135l-227 301q-53 71 -130 183q7 -178 7 -236v-248h-148v721h132l230 -300q40 -53 131 -186q-8 139 -8 238v248zM267 -240q33 35 46 73t11 95h139q-6 -139 -132 -216l-65 46z" />
    <glyph glyph-name="ncommaaccent" unicode="&#x146;" horiz-adv-x="664" 
d="M410 558q90 0 139.5 -53t49.5 -151v-354h-156v319q0 113 -89 113q-22 0 -42.5 -7t-38 -21.5t-31.5 -45t-14 -80.5v-278h-156v427l-12 108l136 20l22 -80h1q34 38 84 60.5t107 22.5zM210 -240q34 35 46.5 73t10.5 95h139q-2 -50 -21 -94t-50 -74t-61 -48l-64 46v2z" />
    <glyph glyph-name="Ncaron" unicode="&#x147;" horiz-adv-x="803" 
d="M480 764h-147l-137 111v2l76 43l134 -71l134 71l76 -43v-2zM570 721h148v-721h-135l-227 301q-53 71 -130 183q7 -178 7 -236v-248h-148v721h132l230 -300q40 -53 131 -186q-8 139 -8 238v248z" />
    <glyph glyph-name="ncaron" unicode="&#x148;" horiz-adv-x="664" 
d="M432 610h-179l-122 176l2 1h116l94 -97l93 97h116l2 -1zM410 558q90 0 139.5 -53t49.5 -151v-354h-156v319q0 113 -89 113q-22 0 -42.5 -7t-38 -21.5t-31.5 -45t-14 -80.5v-278h-156v427l-12 108l136 20l22 -80h2q34 38 83.5 60.5t106.5 22.5z" />
    <glyph glyph-name="napostrophe" unicode="&#x149;" horiz-adv-x="824" 
d="M64 748l2 1l148 -23q0 -79 -31 -149t-96 -146l-87 50l1 2q47 57 60.5 118t2.5 147zM570 558q90 0 139 -53t49 -151v-354h-156v319q0 113 -88 113q-22 0 -42.5 -7t-38 -21.5t-32 -45t-14.5 -80.5v-278h-156v427l-11 108l136 20l21 -80h2q34 38 84 60.5t107 22.5z" />
    <glyph glyph-name="Eng" unicode="&#x14a;" horiz-adv-x="802" 
d="M570 721h148v-622q0 -113 -37 -182.5t-112 -111.5l-139 81v2q61 26 91.5 61t37.5 87l-203 265q-62 81 -130 183q6 -156 6 -236v-248h-147v721h132l230 -300q72 -97 131 -186q-8 139 -8 238v248z" />
    <glyph glyph-name="eng" unicode="&#x14b;" horiz-adv-x="664" 
d="M413 558q87 0 136.5 -53.5t49.5 -150.5v-278q0 -94 -35 -170t-92 -117l-134 72v2q56 40 80.5 84.5t24.5 108.5v263q0 113 -89 113q-23 0 -52.5 -11t-51.5 -45.5t-22 -90.5v-285h-156v427l-10 100l136 23l22 -82h2q34 42 84.5 66t106.5 24z" />
    <glyph glyph-name="Omacron" unicode="&#x14c;" horiz-adv-x="796" 
d="M589 791h-379v97l379 8v-105zM399 732q79 0 144.5 -26t111.5 -75t70 -117.5t24 -150.5t-24.5 -151.5t-71 -119t-113 -76.5t-146.5 -27q-79 0 -144 26.5t-110 75t-69 117t-24 150.5q0 83 24 152.5t70 119t112 76t146 26.5zM393 127q89 0 140 62.5t51 173.5
q1 110 -48 170.5t-137 60.5t-137.5 -61.5t-49.5 -173.5q-1 -110 46 -171t135 -61z" />
    <glyph glyph-name="omacron" unicode="&#x14d;" horiz-adv-x="659" 
d="M509 645h-353v98l353 9v-107zM330 -10q-32 0 -71 6.5t-76 24.5t-65 45.5t-46 64t-24.5 74.5t-6.5 68q0 132 78 208.5t211 76.5q65 0 118.5 -19.5t91.5 -57t58 -90.5t20 -118q0 -47 -13 -96.5t-46 -90.5t-76.5 -62t-82.5 -27.5t-70 -6.5zM330 108q61 0 95 43t34 123
q-1 80 -34.5 122.5t-94.5 42.5t-95 -42t-35 -123q0 -81 34.5 -123.5t95.5 -42.5z" />
    <glyph glyph-name="Obreve" unicode="&#x14e;" horiz-adv-x="796" 
d="M399 755q-56 0 -97 19t-66 55t-25 85h104q0 -26 23 -45t61 -19t61.5 19t23.5 45h103q0 -41 -21 -79t-66 -59t-101 -21zM399 732q79 0 144.5 -26t111.5 -75t70 -117.5t24 -150.5t-24.5 -151.5t-71 -119t-113 -76.5t-146.5 -27q-79 0 -144 26.5t-110 75t-69 117t-24 150.5
q0 83 24 152.5t70 119t112 76t146 26.5zM393 127q89 0 140 62.5t51 173.5q1 110 -48 170.5t-137 60.5t-137.5 -61.5t-49.5 -173.5q-1 -110 46 -171t135 -61z" />
    <glyph glyph-name="obreve" unicode="&#x14f;" horiz-adv-x="659" 
d="M333 592q-45 0 -81 13.5t-59.5 38.5t-35.5 59.5t-12 75.5h98q0 -41 23.5 -65t66.5 -24q44 0 67 24t23 65h98q0 -41 -12 -75.5t-35.5 -59.5t-59.5 -38.5t-81 -13.5zM330 -10q-32 0 -71 6.5t-76 24.5t-65 45.5t-46 64t-24.5 74.5t-6.5 68q0 132 78 208.5t211 76.5
q65 0 118.5 -19.5t91.5 -57t58 -90.5t20 -118q0 -47 -13 -96.5t-46 -90.5t-76.5 -62t-82.5 -27.5t-70 -6.5zM330 108q61 0 95 43t34 123q-1 80 -34.5 122.5t-94.5 42.5t-95 -42t-35 -123q0 -81 34.5 -123.5t95.5 -42.5z" />
    <glyph glyph-name="Ohungarumlaut" unicode="&#x150;" horiz-adv-x="796" 
d="M312 925l119 -61v-4l-167 -88l-87 28l-1 2zM550 925l119 -61v-4l-167 -88l-87 28l-1 2zM399 732q79 0 144.5 -26t111.5 -75t70 -117.5t24 -150.5t-24.5 -151.5t-71 -119t-113 -76.5t-146.5 -27q-79 0 -144 26.5t-110 75t-69 117t-24 150.5q0 83 24 152.5t70 119t112 76
t146 26.5zM393 127q89 0 140 62.5t51 173.5q1 110 -48 170.5t-137 60.5t-137.5 -61.5t-49.5 -173.5q-1 -110 46 -171t135 -61z" />
    <glyph glyph-name="ohungarumlaut" unicode="&#x151;" horiz-adv-x="659" 
d="M220 803l159 -24v-2l-115 -167h-122h-2zM440 803l159 -24v-2l-115 -167h-122h-2zM330 -10q-32 0 -71 6.5t-76 24.5t-65 45.5t-46 64t-24.5 74.5t-6.5 68q0 132 78 208.5t211 76.5q65 0 118.5 -19.5t91.5 -57t58 -90.5t20 -118q0 -47 -13 -96.5t-46 -90.5t-76.5 -62
t-82.5 -27.5t-70 -6.5zM330 108q61 0 95 42.5t34 123.5q-1 80 -34.5 122.5t-94.5 42.5t-95 -42t-35 -123q0 -81 34.5 -123.5t95.5 -42.5z" />
    <glyph glyph-name="OE" unicode="&#x152;" horiz-adv-x="1142" 
d="M750 120l343 8v-128h-503v66q-38 -36 -90 -56.5t-116 -20.5q-74 0 -136.5 26.5t-107.5 75t-69 117.5t-24 150q0 82 24.5 151.5t70 119.5t109 76.5t137.5 26.5q125 0 202 -74v63h493v-128l-333 8v-181l287 6v-127l-287 6v-185zM396 127q89 0 141 62.5t53 173.5v3
q-1 108 -51 168t-137 60q-88 0 -139 -61.5t-51 -173.5q-1 -109 47.5 -170.5t136.5 -61.5z" />
    <glyph glyph-name="oe" unicode="&#x153;" horiz-adv-x="1012" 
d="M965 248l-11 -9h-345q7 -70 45.5 -103t110.5 -33q46 0 87.5 13t68.5 37h2l39 -110q-35 -21 -93.5 -37t-121.5 -16q-76 0 -131 24t-87 67q-31 -43 -84 -67t-124 -24q-66 0 -119.5 21.5t-89 59.5t-53.5 90t-18 111q0 61 19.5 114t56.5 91.5t90.5 59.5t119.5 21
q72 0 124.5 -25.5t83.5 -70.5q34 45 87.5 70.5t123.5 25.5q111 0 167 -63.5t56 -175.5q0 -33 -4 -71zM836 326l1 26q0 32 -15 57t-39 35t-47 10q-51 0 -84.5 -35t-41.5 -101zM455 276q0 73 -32 115t-93 42t-94 -43t-33 -117q-1 -74 30.5 -116.5t92.5 -42.5t94.5 43.5
t34.5 118.5z" />
    <glyph glyph-name="Racute" unicode="&#x154;" horiz-adv-x="714" 
d="M225 747l-32 72v1l242 115l74 -104v-2zM501 283q65 -122 185 -281v-2l-181 -5q-48 66 -91 137t-72 132h-97v-264h-160v719q135 14 204 14q100 0 172 -17t115.5 -48t63.5 -73.5t20 -94.5q0 -80 -41.5 -135.5t-117.5 -81.5zM245 617v-240h115q66 0 102 30.5t36 87.5
q0 62 -47.5 93t-154.5 31z" />
    <glyph glyph-name="racute" unicode="&#x155;" horiz-adv-x="436" 
d="M263 805l160 -19v-2l-123 -174h-131h-2zM220 465q35 45 81 69t110 24l10 -139q-100 0 -146.5 -40.5t-46.5 -132.5v-246h-156v427l-12 108l136 19l21 -89h3z" />
    <glyph glyph-name="Rcommaaccent" unicode="&#x156;" horiz-adv-x="714" 
d="M501 283q65 -122 185 -281v-2l-181 -5q-48 66 -91 137t-72 132h-97v-264h-160v719q135 14 204 14q100 0 172 -17t115.5 -48t63.5 -73.5t20 -94.5q0 -80 -41.5 -135.5t-117.5 -81.5zM245 617v-240h115q66 0 102 30.5t36 87.5q0 62 -47.5 93t-154.5 31zM240 -240
q33 35 46 73t11 95h139q-6 -139 -132 -216l-65 46z" />
    <glyph glyph-name="rcommaaccent" unicode="&#x157;" horiz-adv-x="436" 
d="M411 558l10 -139q-100 0 -146.5 -40.5t-46.5 -132.5v-246h-156v427l-12 108l136 20l21 -90h3q35 45 81 69t110 24zM21 -240q33 35 46 73t11 95h139q-6 -139 -132 -216l-65 46z" />
    <glyph glyph-name="Rcaron" unicode="&#x158;" horiz-adv-x="714" 
d="M419 764h-147l-137 111v2l76 43l134 -71l135 71l75 -43v-2zM501 283q65 -122 185 -281v-2l-181 -5q-48 66 -91 137t-72 132h-97v-264h-160v719q135 14 204 14q100 0 172 -17t115.5 -48t63.5 -73.5t20 -94.5q0 -80 -41.5 -135.5t-117.5 -81.5zM245 617v-240h115
q66 0 102 30.5t36 87.5q0 62 -47.5 93t-154.5 31z" />
    <glyph glyph-name="rcaron" unicode="&#x159;" horiz-adv-x="436" 
d="M337 610h-179l-122 176l1 1h117l93 -97l93 97h117l1 -1zM220 465q35 45 81 69t110 24l10 -139q-100 0 -146.5 -40.5t-46.5 -132.5v-246h-156v427l-12 108l136 20l21 -90h3z" />
    <glyph glyph-name="Sacute" unicode="&#x15a;" horiz-adv-x="618" 
d="M184 820l241 115l75 -104v-2l-285 -82l-31 72v1zM517 546l-2 1q-37 23 -79.5 40t-96.5 17q-59 0 -90 -20.5t-30 -55.5q1 -17 11 -33.5t34.5 -31t105 -43t117.5 -53.5t54.5 -49.5t26 -52t8.5 -60.5q0 -49 -19.5 -89.5t-57 -68t-91 -42t-118.5 -14.5q-142 0 -250 63l39 135
h2q50 -37 98.5 -54t103.5 -17q45 0 76 11.5t41.5 31t10.5 37.5q0 22 -13 40.5t-40 33t-92 37.5t-93.5 38.5t-47 30t-33 33t-25 47t-10.5 67.5q0 98 72.5 151.5t206.5 53.5q60 0 112 -12t109 -40z" />
    <glyph glyph-name="sacute" unicode="&#x15b;" horiz-adv-x="539" 
d="M299 805l160 -19v-2l-122 -174h-132h-2zM490 505l-39 -109h-3q-72 56 -153 56q-41 0 -64.5 -15t-23.5 -41q0 -13 9 -26t32.5 -23t85.5 -27t99 -39.5t51.5 -54t14.5 -66.5q0 -52 -27 -89t-80 -58.5t-135 -21.5q-65 0 -124.5 15t-100.5 40l40 108h2q31 -27 75.5 -42.5
t93.5 -15.5q47 0 73 14.5t26 41.5q0 22 -19.5 38.5t-94 38.5t-104 40.5t-43 36t-20.5 39t-7 46.5q0 78 61 122.5t172 44.5t203 -53z" />
    <glyph glyph-name="Scircumflex" unicode="&#x15c;" horiz-adv-x="618" 
d="M551 808v-2l-76 -43l-134 71l-134 -71l-76 43v2l137 111h147zM517 546l-2 1q-37 23 -79.5 40t-96.5 17q-59 0 -90 -20.5t-30 -55.5q1 -17 11 -33.5t34.5 -31t105 -43t117.5 -53.5t54.5 -49.5t26 -52t8.5 -60.5q0 -49 -19.5 -89.5t-57 -68t-91 -42t-118.5 -14.5
q-142 0 -250 63l39 135h2q50 -37 98.5 -54t103.5 -17q45 0 76 11.5t41.5 31t10.5 37.5q0 22 -13 40.5t-40 33t-92 37.5t-93.5 38.5t-47 30t-33 33t-25 47t-10.5 67.5q0 98 72.5 151.5t206.5 53.5q60 0 112 -12t109 -40z" />
    <glyph glyph-name="scircumflex" unicode="&#x15d;" horiz-adv-x="539" 
d="M506 610h-116l-94 96l-93 -96h-117l-1 1l122 176h179l122 -176zM490 505l-39 -109h-3q-72 56 -153 56q-41 0 -64.5 -15t-23.5 -41q0 -13 9 -26t32.5 -23t85.5 -27t99 -39.5t51.5 -54t14.5 -66.5q0 -52 -27 -89t-80 -58.5t-135 -21.5q-65 0 -124.5 15t-100.5 40l40 108h2
q31 -27 75.5 -42.5t93.5 -15.5q47 0 73 14.5t26 41.5q0 22 -19.5 38.5t-94 38.5t-104 40.5t-43 36t-20.5 39t-7 46.5q0 78 61 122.5t172 44.5t203 -53z" />
    <glyph glyph-name="Scedilla" unicode="&#x15e;" horiz-adv-x="618" 
d="M576 205q0 -90 -61 -145t-171 -66l-8 -27q56 -6 82 -31t26 -64q0 -47 -38 -75t-115 -28q-78 0 -118 28l23 73h2q24 -24 69 -24q54 0 54 35q0 42 -95 42l-4 5l22 65q-115 9 -204 61l39 135h2q50 -37 98.5 -54t103.5 -17q45 0 76 11.5t41.5 31t10.5 37.5q0 22 -13 40.5
t-40 33t-92 37.5t-93.5 38.5t-47 30t-33 33t-25 47t-10.5 67.5q0 98 72.5 151.5t206.5 53.5q60 0 112 -12t109 -40l-40 -132l-2 1q-37 23 -79.5 40t-96.5 17q-59 0 -90 -20.5t-30 -55.5q1 -17 11 -33.5t34.5 -31t105 -43t117.5 -53.5t54.5 -49.5t26 -52t8.5 -60.5z" />
    <glyph glyph-name="scedilla" unicode="&#x15f;" horiz-adv-x="539" 
d="M499 160q0 -73 -50.5 -115t-137.5 -51l-8 -27q55 -6 81.5 -31t26.5 -64q0 -47 -38.5 -75t-115.5 -28t-117 28l22 73h2q25 -24 69 -24q55 0 55 35q0 42 -96 42l-4 5l22 65q-51 4 -97.5 18.5t-80.5 34.5l40 108h2q31 -27 75.5 -42.5t93.5 -15.5q47 0 73 14.5t26 41.5
q0 22 -19.5 38.5t-94 38.5t-104 40.5t-43 36t-20.5 39t-7 46.5q0 78 61 122.5t172 44.5t203 -53l-39 -109h-3q-72 56 -153 56q-41 0 -64.5 -15t-23.5 -41q0 -13 9 -26t32.5 -23t85.5 -27t99 -39.5t51.5 -54t14.5 -66.5z" />
    <glyph glyph-name="Scaron" unicode="&#x160;" horiz-adv-x="618" 
d="M546 875l-137 -111h-147l-136 111v2l76 43l134 -71l134 71l76 -43v-2zM517 546l-2 1q-37 23 -79.5 40t-96.5 17q-59 0 -90 -20.5t-30 -55.5q1 -17 11 -33.5t34.5 -31t105 -43t117.5 -53.5t54.5 -49.5t26 -52t8.5 -60.5q0 -49 -19.5 -89.5t-57 -68t-91 -42t-118.5 -14.5
q-142 0 -250 63l39 135h2q50 -37 98.5 -54t103.5 -17q45 0 76 11.5t41.5 31t10.5 37.5q0 22 -13 40.5t-40 33t-92 37.5t-93.5 38.5t-47 30t-33 33t-25 47t-10.5 67.5q0 98 72.5 151.5t206.5 53.5q60 0 112 -12t109 -40z" />
    <glyph glyph-name="scaron" unicode="&#x161;" horiz-adv-x="539" 
d="M504 787l1 -1l-121 -176h-179l-122 176l1 1h117l93 -97l94 97h116zM490 505l-39 -109h-3q-72 56 -153 56q-41 0 -64.5 -15t-23.5 -41q0 -13 9 -26t32.5 -23t85.5 -27t99 -39.5t51.5 -54t14.5 -66.5q0 -52 -27 -89t-80 -58.5t-135 -21.5q-65 0 -124.5 15t-100.5 40l40 108
h2q31 -27 75.5 -42.5t93.5 -15.5q47 0 73 14.5t26 41.5q0 22 -19.5 38.5t-94 38.5t-104 40.5t-43 36t-20.5 39t-7 46.5q0 78 61 122.5t172 44.5t203 -53z" />
    <glyph glyph-name="Tcommaaccent" unicode="&#x162;" horiz-adv-x="645" 
d="M402 0h-38l-10 -33q55 -6 81.5 -31t26.5 -64q0 -47 -38.5 -75t-115.5 -28t-117 28l22 73h2q12 -12 30.5 -18t38.5 -6q55 0 55 35q0 42 -96 42l-4 5l24 72h-22v591l-220 2v128h602v-135l-221 3v-589z" />
    <glyph glyph-name="tcommaaccent" unicode="&#x163;" horiz-adv-x="467" 
d="M329 -33q55 -6 81.5 -31t26.5 -64q0 -47 -38.5 -75t-115.5 -28t-117 28l22 73h2q25 -24 69 -24q55 0 55 35q0 42 -96 42l-4 5l23 69q-58 14 -87 59.5t-29 115.5v246h-100v112l98 9h2v1l9 122l143 25v-154l163 9l-7 -124h-156v-226q0 -76 64 -76q37 0 75 24h2l38 -108
q-21 -13 -52.5 -24.5t-63.5 -15.5z" />
    <glyph glyph-name="Tcaron" unicode="&#x164;" horiz-adv-x="645" 
d="M390 764h-147l-136 111v2l76 43l134 -71l134 71l76 -43v-2zM623 721v-135l-221 3v-589h-161v591l-220 2v128h602z" />
    <glyph glyph-name="tcaron" unicode="&#x165;" horiz-adv-x="467" 
d="M492 858l-47 -252h-104l25 252h126zM412 140h2l38 -108q-28 -18 -68.5 -30t-85.5 -12q-90 0 -133.5 47t-43.5 135v246h-100v112l98 9h2v1l9 122l143 25v-154l163 9l-7 -124h-156v-226q0 -76 64 -76q37 0 75 24z" />
    <glyph glyph-name="Tbar" unicode="&#x166;" horiz-adv-x="645" 
d="M623 586l-221 3v-207h142l-6 -102l-136 8v-288h-161v297l-138 8v77h138v209l-220 2v128h602v-135z" />
    <glyph glyph-name="tbar" unicode="&#x167;" horiz-adv-x="469" 
d="M419 128l35 -99q-62 -39 -151 -39q-181 0 -181 188v92l-78 5v71h78v78h-96v106l95 9h1l9 123l144 25v-154l163 9l-7 -118h-156v-78h127l-5 -93l-122 8v-82q0 -79 64 -79q19 0 41 8t37 20h2z" />
    <glyph glyph-name="Utilde" unicode="&#x168;" horiz-adv-x="770" 
d="M216 769h-2l-32 88q43 61 121 61q32 0 81.5 -20t75.5 -20q54 0 93 42h2l32 -87q-47 -63 -126 -63q-30 0 -78.5 20t-74.5 20q-55 0 -92 -41zM534 721h160v-418q0 -65 -17 -121.5t-54 -99.5t-97.5 -67.5t-141.5 -24.5t-140.5 24t-96.5 67t-54 99.5t-17 122.5v418h161v-418
q0 -93 38 -132t109 -39q150 0 150 171v418z" />
    <glyph glyph-name="utilde" unicode="&#x169;" horiz-adv-x="656" 
d="M159 626h-2l-31 84q19 22 51 38t65 16q26 0 76.5 -17.5t79.5 -17.5q47 0 93 36h2l31 -84q-56 -56 -125 -56q-32 0 -77.5 17.5t-70.5 17.5q-23 0 -48.5 -9.5t-43.5 -24.5zM583 172q0 -44 3.5 -84.5t17.5 -82.5l-1 -3l-139 -12q-25 29 -33 75h-4q-27 -33 -76.5 -54
t-103.5 -21q-85 0 -133.5 52.5t-48.5 151.5v344l156 20v-332q0 -112 88 -112q33 0 60 14.5t42.5 41.5t15.5 69v309h156v-376z" />
    <glyph glyph-name="Umacron" unicode="&#x16a;" horiz-adv-x="770" 
d="M576 900v-106h-379v98zM534 721h160v-418q0 -65 -17 -121.5t-54 -99.5t-97.5 -67.5t-141.5 -24.5t-140.5 24t-96.5 67t-54 99.5t-17 122.5v418h161v-418q0 -93 38 -132t109 -39q150 0 150 171v418z" />
    <glyph glyph-name="umacron" unicode="&#x16b;" horiz-adv-x="656" 
d="M502 752v-107h-353v98zM583 172q0 -44 3.5 -84.5t17.5 -82.5l-1 -3l-139 -12q-25 29 -33 75h-4q-27 -33 -76.5 -54t-103.5 -21q-85 0 -133.5 52.5t-48.5 151.5v344l156 20v-332q0 -112 88 -112q33 0 60 14.5t42.5 41.5t15.5 69v309h156v-376z" />
    <glyph glyph-name="Ubreve" unicode="&#x16c;" horiz-adv-x="770" 
d="M387 759q-56 0 -97.5 19t-66.5 54.5t-25 85.5h104q0 -26 23.5 -45.5t61.5 -19.5t61 19.5t23 45.5h104q0 -24 -8 -50.5t-28.5 -50.5t-58 -41t-93.5 -17zM534 721h160v-418q0 -65 -17 -121.5t-54 -99.5t-97.5 -67.5t-141.5 -24.5t-140.5 24t-96.5 67t-54 99.5t-17 122.5
v418h161v-418q0 -93 38 -132t109 -39q150 0 150 171v418z" />
    <glyph glyph-name="ubreve" unicode="&#x16d;" horiz-adv-x="656" 
d="M326 592q-34 0 -67.5 9t-60.5 31.5t-44 58.5t-17 88h98q0 -41 23.5 -65t67.5 -24q43 0 66.5 24t23.5 65h98q0 -41 -12 -75.5t-35.5 -59.5t-59.5 -38.5t-81 -13.5zM583 172q0 -44 3.5 -84.5t17.5 -82.5l-1 -3l-140 -12q-24 30 -32 75h-4q-27 -33 -76.5 -54t-103.5 -21
q-85 0 -133.5 52.5t-48.5 151.5v344l156 20v-332q0 -112 88 -112q33 0 60 14.5t42.5 41.5t15.5 69v309h156v-376z" />
    <glyph glyph-name="Uring" unicode="&#x16e;" horiz-adv-x="770" 
d="M387 689q-55 0 -92.5 35t-37.5 87q0 53 37.5 88t92.5 35t92 -35t37 -88q0 -52 -37 -87t-92 -35zM387 857q-20 0 -33.5 -13.5t-13.5 -32.5t13.5 -32.5t33.5 -13.5t33 13.5t13 32.5q0 20 -13 33t-33 13zM534 721h160v-418q0 -65 -17 -121.5t-54 -99.5t-97.5 -67.5
t-141.5 -24.5t-140.5 24t-96.5 67t-54 99.5t-17 122.5v418h161v-418q0 -93 38 -132t109 -39q150 0 150 171v418z" />
    <glyph glyph-name="uring" unicode="&#x16f;" horiz-adv-x="656" 
d="M324 587q-24 0 -53.5 12t-51 43t-21.5 69t21.5 69t51 43t53.5 12q25 0 54.5 -12t51 -43t21.5 -69q0 -24 -12.5 -53t-44.5 -50t-70 -21zM324 759q-20 0 -32.5 -13.5t-12.5 -34.5t12.5 -34.5t32.5 -13.5t33 13.5t13 34.5t-13 34.5t-33 13.5zM583 172q0 -44 3.5 -84.5
t17.5 -82.5l-1 -3l-139 -12q-25 29 -33 75h-4q-27 -33 -76.5 -54t-103.5 -21q-85 0 -133.5 52.5t-48.5 151.5v344l156 20v-332q0 -112 88 -112q33 0 60 14.5t42.5 41.5t15.5 69v309h156v-376z" />
    <glyph glyph-name="Uhungarumlaut" unicode="&#x170;" horiz-adv-x="770" 
d="M252 775l-87 28l-1 3l136 122l119 -61v-3zM403 803l-1 3l136 122l119 -61v-3l-167 -89zM534 721h160v-418q0 -65 -17 -121.5t-54 -99.5t-97.5 -67.5t-141.5 -24.5t-140.5 24t-96.5 67t-54 99.5t-17 122.5v418h161v-418q0 -93 38 -132t109 -39q150 0 150 171v418z" />
    <glyph glyph-name="uhungarumlaut" unicode="&#x171;" horiz-adv-x="656" 
d="M256 610h-122h-2l80 193l159 -24v-2zM354 610h-2l80 193l159 -24v-2l-115 -167h-122zM583 172q0 -44 3.5 -84.5t17.5 -82.5l-1 -3l-139 -12q-25 29 -33 75h-4q-27 -33 -76.5 -54t-103.5 -21q-85 0 -133.5 52.5t-48.5 151.5v344l156 20v-332q0 -112 88 -112q33 0 60 14.5
t42.5 41.5t15.5 69v309h156v-376z" />
    <glyph glyph-name="Uogonek" unicode="&#x172;" horiz-adv-x="770" 
d="M534 721h160v-418q0 -67 -20 -130.5t-67.5 -107.5t-112.5 -61q-38 -19 -61 -44t-23 -50q0 -16 11 -25.5t29 -9.5q29 0 63 26h2l21 -77q-53 -32 -126 -32q-62 0 -97.5 24.5t-35.5 69.5q0 61 62 106q-51 5 -100 24t-85 57t-57 95t-21 135v418h161v-418q0 -93 38 -132
t109 -39q150 0 150 171v418z" />
    <glyph glyph-name="uogonek" unicode="&#x173;" horiz-adv-x="656" 
d="M610 -107l22 -77q-53 -32 -126 -32q-61 0 -97.5 25t-36.5 69q0 35 22.5 66t62.5 54q-19 28 -26 67h-4q-27 -33 -76.5 -54t-103.5 -21q-85 0 -133.5 52.5t-48.5 151.5v344l156 20v-332q0 -112 88 -112q33 0 60 14.5t42.5 41.5t15.5 69v309h156v-376q0 -44 3.5 -84.5
t17.5 -83.5l-1 -2h1q-44 -18 -71 -45.5t-27 -54.5q0 -16 11 -25.5t29 -9.5q26 0 62 26h2z" />
    <glyph glyph-name="Wcircumflex" unicode="&#x174;" horiz-adv-x="1026" 
d="M512 834l-134 -71l-76 43v2l137 111h147l137 -111v-2l-76 -43zM855 721h157l-202 -722h-160l-108 388q-17 67 -31 156h-3q-13 -96 -29 -156l-103 -387h-161l-199 707l169 18l89 -376q15 -69 25 -166h6q10 95 29 167l100 371h173l98 -370q16 -62 26 -164h6q10 98 26 163z
" />
    <glyph glyph-name="wcircumflex" unicode="&#x175;" horiz-adv-x="931" 
d="M382 610h-116l-1 1l121 176h179l122 -176l-1 -1h-117l-93 96zM781 548h142l-195 -548h-150l-76 244q-17 59 -36 149h-3q-13 -68 -35 -149l-76 -244h-151l-191 535l161 21l74 -260q19 -71 31 -138h6q17 81 34 138l77 252h166l74 -252q14 -48 33 -137h6q16 74 34 137z" />
    <glyph glyph-name="Ycircumflex" unicode="&#x176;" horiz-adv-x="704" 
d="M356 834l-134 -71l-76 43v2l137 111h146l137 -111v-2l-76 -43zM696 721l-264 -478v-243h-161v242l-258 467l174 19l115 -231q26 -53 54 -139h10q26 84 52 138l112 225h166z" />
    <glyph glyph-name="ycircumflex" unicode="&#x177;" horiz-adv-x="613" 
d="M222 610h-116l-2 1l122 176h179l122 -176l-2 -1h-116l-94 96zM445 548h162l-141 -358q-44 -114 -84.5 -185.5t-91.5 -122t-136 -93.5l-109 86v2q124 61 182 147l-214 511l172 21l89 -272q22 -77 35 -137h10q13 62 37 135z" />
    <glyph glyph-name="Ydieresis" unicode="&#x178;" horiz-adv-x="704" 
d="M237 774q-42 0 -65 18t-23 50q0 31 25 51t66 20q40 0 63 -18t23 -48q0 -33 -24.5 -53t-64.5 -20zM472 774q-42 0 -64.5 18t-22.5 50q0 31 24.5 51t65.5 20q40 0 63 -18t23 -48q0 -33 -24.5 -53t-64.5 -20zM696 721l-264 -478v-243h-161v242l-258 467l174 19l115 -231
q26 -53 54 -139h10q26 84 52 138l112 225h166z" />
    <glyph glyph-name="Zacute" unicode="&#x179;" horiz-adv-x="640" 
d="M195 747l-31 72v1l241 115l74 -104v-2zM232 129l367 9v-138h-552l-8 113l366 479l-352 -9v138h524l10 -121z" />
    <glyph glyph-name="zacute" unicode="&#x17a;" horiz-adv-x="562" 
d="M326 610h-132h-2l96 195l160 -19v-2zM235 114l289 6v-120h-487l-4 82l284 351l-264 -6v121h456l6 -90z" />
    <glyph glyph-name="Zdotaccent" unicode="&#x17b;" horiz-adv-x="640" 
d="M318 780q-46 0 -71.5 18t-25.5 51t27 53.5t75 20.5q45 0 70.5 -18.5t25.5 -50.5q0 -34 -27 -54t-74 -20zM232 129l367 9v-138h-552l-8 113l366 479l-352 -9v138h524l10 -121z" />
    <glyph glyph-name="zdotaccent" unicode="&#x17c;" horiz-adv-x="562" 
d="M282 620q-44 0 -70.5 21.5t-26.5 55.5q0 35 28 57.5t75 22.5q44 0 70.5 -20.5t26.5 -54.5q0 -36 -28.5 -59t-74.5 -23zM235 114l288 6v-120h-486l-4 82l284 351l-264 -6v121h456l5 -90z" />
    <glyph glyph-name="Zcaron" unicode="&#x17d;" horiz-adv-x="640" 
d="M389 764h-147l-137 111v2l76 43l134 -71l135 71l76 -43v-2zM232 129l367 9v-138h-552l-8 113l366 479l-352 -9v138h524l10 -121z" />
    <glyph glyph-name="zcaron" unicode="&#x17e;" horiz-adv-x="562" 
d="M375 609h-179l-122 176l1 1h117l93 -96l94 96h116l1 -1zM235 114l289 6v-120h-487l-4 82l284 351l-264 -6v121h456l6 -90z" />
    <glyph glyph-name="uni018F" unicode="&#x18f;" horiz-adv-x="730" 
d="M330 731q69 0 125.5 -17t97.5 -47.5t68.5 -72t44.5 -99.5t17 -133q0 -80 -22 -149t-65 -118.5t-107 -77t-144 -27.5q-73 0 -130 23t-94 66t-56 102.5t-19 130.5q0 34 3 83l11 9h460q-12 92 -66.5 142.5t-154.5 50.5q-56 0 -106.5 -15t-84.5 -38h-2l-42 122q28 17 76 33.5
t99 24t91 7.5zM349 124q74 0 118 47.5t53 133.5h-326l-1 -27q0 -48 20.5 -82.5t54.5 -53t81 -18.5z" />
    <glyph glyph-name="uni019D" unicode="&#x19d;" horiz-adv-x="804" 
d="M571 721h148v-721h-135l-227 301q-53 71 -130 183q7 -178 7 -236v-134q0 -115 -39.5 -184.5t-127.5 -111.5l-118 81v2q78 34 107.5 78.5t29.5 121.5v620h132l230 -300q40 -53 131 -186q-8 139 -8 238v248z" />
    <glyph glyph-name="Gcaron" unicode="&#x1e6;" horiz-adv-x="727" 
d="M484 764h-147l-137 111v2l76 43l134 -71l135 71l75 -43v-2zM526 366h146v-313q-51 -29 -118 -46t-142 -17q-93 0 -163.5 27t-115 76t-65.5 115.5t-21 144.5q0 84 24 154t71.5 120t119 77t162.5 27q65 0 126 -13.5t104 -35.5l-48 -140h-2q-35 25 -80.5 38.5t-93.5 13.5
q-104 0 -159.5 -63t-55.5 -180q0 -110 52 -168.5t153 -58.5q56 0 112 20z" />
    <glyph glyph-name="gcaron" unicode="&#x1e7;" horiz-adv-x="616" 
d="M378 609h-179l-122 176l2 1h116l94 -97l93 97h116l2 -1zM598 553l-9 -114l-76 6q15 -34 15 -78q0 -89 -63 -140t-174 -51q-50 -4 -50 -27q0 -24 56 -27q150 -10 213.5 -48t63.5 -117q0 -50 -31 -88t-95.5 -63t-162.5 -25q-124 0 -193.5 41.5t-69.5 116.5q0 92 108 132
q-41 18 -41 58q0 27 19.5 45.5t54.5 24.5q-24 10 -49.5 31t-41 56.5t-15.5 79.5q0 88 63.5 140t172.5 52q77 0 136 -27l167 23zM291 263q43 0 68 27.5t25 75.5q0 49 -24 75.5t-68 26.5q-42 0 -67.5 -28t-25.5 -76q0 -47 24.5 -74t67.5 -27zM422 -47q0 24 -16 38t-56 22.5
t-126 10.5q-29 -7 -45.5 -25.5t-16.5 -44.5q0 -35 34 -55.5t93 -20.5q29 0 60.5 6.5t52 25t20.5 43.5z" />
    <glyph glyph-name="uni01EA" unicode="&#x1ea;" horiz-adv-x="796" 
d="M512 5q-39 -18 -63.5 -44t-24.5 -51q0 -16 11 -25.5t29 -9.5q29 0 63 26h2l21 -77q-53 -32 -126 -32q-62 0 -97.5 24.5t-35.5 69.5q0 61 61 105q-70 7 -127.5 36t-97 77t-60 113t-20.5 141q0 83 24 152.5t70 119t112 76t146 26.5q79 0 144.5 -26t111.5 -75t70 -117.5
t24 -150.5q0 -135 -63 -229.5t-174 -128.5zM212 359q-1 -110 46 -171t135 -61q89 0 140 62.5t51 173.5q1 110 -48 170.5t-137 60.5t-137.5 -61.5t-49.5 -173.5z" />
    <glyph glyph-name="uni01EB" unicode="&#x1eb;" horiz-adv-x="659" 
d="M439 6q-38 -19 -61 -44t-23 -49q0 -17 10.5 -26.5t29.5 -9.5q28 0 63 27h2l22 -78q-53 -31 -126 -31q-62 0 -98 24.5t-36 69.5q0 29 16 56t44 48q-113 13 -177 87.5t-64 192.5q0 132 78 208.5t211 76.5q65 0 118.5 -19.5t91.5 -57t58 -90.5t20 -118q0 -101 -47 -170.5
t-132 -96.5zM200 274q0 -81 34.5 -123.5t95.5 -42.5t95 42.5t34 123.5q-1 80 -34.5 122.5t-94.5 42.5t-95 -42t-35 -123z" />
    <glyph glyph-name="Aringacute" unicode="&#x1fa;" horiz-adv-x="717" 
d="M544 0l-58 168l-257 4l-59 -172h-165l267 718q-20 17 -31.5 41.5t-11.5 51.5q0 53 37.5 88t92.5 35q36 0 66 -16t46 -43l126 60l2 -1l42 -113l-156 -40q-9 -38 -40 -63l267 -718h-168zM359 857q-20 0 -33.5 -13.5t-13.5 -32.5t13.5 -32.5t33.5 -13.5t33 13.5t13 32.5
q0 20 -13 33t-33 13zM354 590q-12 -53 -31 -112l-61 -190l191 1l-62 189q-19 58 -31 111l-2 -2z" />
    <glyph glyph-name="aringacute" unicode="&#x1fb;" horiz-adv-x="600" 
d="M284 587q-24 0 -53.5 12t-51 43t-21.5 69q0 22 10.5 49t37.5 48t60 26l53 107l145 -18v-2l-87 -124q15 -16 24.5 -39.5t9.5 -46.5q0 -24 -12.5 -53t-44.5 -50t-70 -21zM284 663q20 0 33 13.5t13 34.5t-13 34.5t-33 13.5t-32.5 -13.5t-12.5 -34.5t12.5 -34.5t32.5 -13.5z
M531 189q0 -51 3.5 -97.5t18.5 -86.5l-1 -3l-131 -12q-25 32 -32 75h-2q-31 -35 -75.5 -55t-98.5 -20q-56 0 -95.5 19t-60 52t-20.5 80q0 43 19 78.5t58 61.5t101 40t145 14h27q-7 107 -134 107q-82 0 -156 -49h-2l-40 112q100 53 225 53q130 0 190.5 -54.5t60.5 -177.5
v-137zM260 96q37 0 69.5 20t45 51.5t12.5 63.5v-8v26h-30q-48 0 -90.5 -9t-64.5 -30.5t-22 -49.5q0 -30 22 -47t58 -17z" />
    <glyph glyph-name="AEacute" unicode="&#x1fc;" horiz-adv-x="1036" 
d="M523 747l-31 72v1l241 115l74 -104v-2zM644 120l343 7v-127h-507v166l-220 5l-86 -171h-185l391 721h597v-127l-333 7v-179l287 4v-125l-287 5v-186zM319 289l161 1v322z" />
    <glyph glyph-name="aeacute" unicode="&#x1fd;" horiz-adv-x="948" 
d="M536 610h-132h-2l96 195l160 -19v-2zM901 248l-10 -9h-348q7 -70 46 -103t111 -33q47 0 87.5 12.5t70.5 36.5h2l38 -109q-37 -21 -97 -37t-125 -16q-88 0 -148.5 30t-92.5 83h-7q-27 -48 -88 -80.5t-134 -32.5q-78 0 -123.5 38.5t-45.5 108.5q0 90 82.5 140.5t247.5 50.5
h23q-7 114 -135 114q-85 0 -159 -56h-2l-41 116q53 28 108 42t122 14q144 0 206 -65q35 31 82.5 48t103.5 17q115 0 172.5 -62.5t57.5 -176.5q0 -39 -4 -71zM772 326l1 23q0 47 -27 76t-74 29q-51 0 -85 -35.5t-42 -100.5zM263 97q25 0 54 10.5t49.5 39t23.5 68.5v32h-26
q-92 0 -137 -23t-45 -64q0 -30 21.5 -46.5t59.5 -16.5z" />
    <glyph glyph-name="Oslashacute" unicode="&#x1fe;" horiz-adv-x="796" 
d="M275 747l-31 72l-1 1l242 115l74 -104v-2zM771 740l-102 -124q39 -48 59.5 -112.5t20.5 -140.5q0 -82 -24.5 -151.5t-71 -119t-113 -76.5t-146.5 -27q-107 0 -185 46l-44 -58h-146l105 131q-37 47 -57 111.5t-20 138.5q0 83 24 152.5t70 119t112 76t146 26.5
q104 0 185 -45l42 53h145zM212 359q0 -69 18 -119l95 119l167 212q-40 23 -93 23q-88 0 -137.5 -61.5t-49.5 -173.5zM584 363q0 74 -21 123l-104 -127l-160 -208q42 -24 94 -24q89 0 140 62.5t51 173.5z" />
    <glyph glyph-name="oslashacute" unicode="&#x1ff;" horiz-adv-x="659" 
d="M372 610h-132h-2l96 195l160 -19v-2zM635 576l-85 -104q68 -76 68 -199q0 -47 -13 -96.5t-46 -90.5t-76.5 -62t-82.5 -27.5t-70 -6.5q-78 0 -138 26l-34 -45h-142l88 111q-63 74 -63 191q0 132 78 208.5t211 76.5q70 0 131 -24l33 42h141zM200 274q0 -37 7 -62l58 73
l114 145q-22 9 -49 9q-61 0 -95 -42t-35 -123zM459 274q0 38 -10 73l-56 -69h1l-122 -157q28 -13 58 -13q61 0 95 43t34 123z" />
    <glyph glyph-name="Scommaaccent" unicode="&#x218;" horiz-adv-x="618" 
d="M517 546l-2 1q-37 23 -79.5 40t-96.5 17q-59 0 -90 -20.5t-30 -55.5q1 -17 11 -33.5t34.5 -31t105 -43t117.5 -53.5t54.5 -49.5t26 -52t8.5 -60.5q0 -49 -19.5 -89.5t-57 -68t-91 -42t-118.5 -14.5q-142 0 -250 63l39 135h2q50 -37 98.5 -54t103.5 -17q45 0 76 11.5
t41.5 31t10.5 37.5q0 22 -13 40.5t-40 33t-92 37.5t-93.5 38.5t-47 30t-33 33t-25 47t-10.5 67.5q0 98 72.5 151.5t206.5 53.5q60 0 112 -12t109 -40zM376 -72q-5 -139 -132 -216l-64 46l1 2q33 35 45.5 73t11.5 95h138z" />
    <glyph glyph-name="scommaaccent" unicode="&#x219;" horiz-adv-x="539" 
d="M490 505l-39 -109h-3q-72 56 -153 56q-41 0 -64.5 -15t-23.5 -41q0 -13 9 -26t32.5 -23t85.5 -27t99 -39.5t51.5 -54t14.5 -66.5q0 -52 -27 -89t-80 -58.5t-135 -21.5q-65 0 -124.5 15t-100.5 40l40 108h2q31 -27 75.5 -42.5t93.5 -15.5q47 0 73 14.5t26 41.5
q0 22 -19.5 38.5t-94 38.5t-104 40.5t-43 36t-20.5 39t-7 46.5q0 78 61 122.5t172 44.5t203 -53zM343 -72q-6 -139 -132 -216l-65 46l1 2q34 35 46.5 73t10.5 95h139z" />
    <glyph glyph-name="uni021A" unicode="&#x21a;" horiz-adv-x="645" 
d="M623 721v-135l-221 3v-589h-161v591l-220 2v128h602zM198 -240q33 35 46 73t11 95h139q-6 -139 -132 -216l-65 46z" />
    <glyph glyph-name="uni021B" unicode="&#x21b;" horiz-adv-x="467" 
d="M452 32q-28 -18 -68.5 -30t-85.5 -12q-90 0 -133.5 47t-43.5 135v246h-100v112l98 9h2v1l9 122l143 25v-154l163 9l-7 -124h-156v-226q0 -76 64 -76q37 0 75 24h2zM173 -240q34 35 46.5 73t10.5 95h139q-6 -139 -132 -216l-65 46z" />
    <glyph glyph-name="uni0232" unicode="&#x232;" horiz-adv-x="704" 
d="M545 900v-106h-379v98zM696 721l-264 -478v-243h-161v242l-258 467l174 19l115 -231q26 -53 54 -139h10q26 84 52 138l112 225h166z" />
    <glyph glyph-name="uni0233" unicode="&#x233;" horiz-adv-x="613" 
d="M492 752v-107h-353v98zM445 548h162l-141 -358q-44 -114 -84.5 -185.5t-91.5 -122t-136 -93.5l-109 86v2q124 61 182 147l-214 511l172 21l89 -272q22 -77 35 -137h10q13 62 37 135z" />
    <glyph glyph-name="uni0237" unicode="&#x237;" horiz-adv-x="297" 
d="M71 523l156 25v-472q0 -94 -35.5 -170t-92.5 -117l-133 72v2q56 40 80.5 84.5t24.5 108.5v467z" />
    <glyph glyph-name="uni0259" unicode="&#x259;" horiz-adv-x="603" 
d="M273 558q54 0 107 -14t93.5 -47.5t64.5 -87.5t24 -130q0 -65 -19 -118.5t-55.5 -91.5t-90 -58.5t-119.5 -20.5q-118 0 -176 62.5t-58 176.5q0 37 4 73l10 9h347q-7 69 -45 101t-110 32q-98 0 -159 -49h-2l-39 109q38 21 98 37.5t125 16.5zM284 97q51 0 82.5 32t38.5 96
h-227l-1 -27q0 -32 15.5 -57t41.5 -34.5t50 -9.5z" />
    <glyph glyph-name="uni0272" unicode="&#x272;" horiz-adv-x="665" 
d="M413 558q88 0 137 -53.5t49 -150.5v-354h-156v319q0 113 -88 113q-23 0 -53 -11t-52 -45.5t-22 -90.5v-209q0 -94 -35 -170t-92 -117l-134 72v2q56 40 80.5 84.5t24.5 108.5v371l-11 108l136 20l23 -87h3q34 42 84 66t106 24z" />
    <glyph glyph-name="circumflex" unicode="&#x2c6;" horiz-adv-x="523" 
d="M471 610h-116l-94 96l-93 -96h-117l-1 1l122 176h179l122 -176z" />
    <glyph glyph-name="caron" unicode="&#x2c7;" horiz-adv-x="523" 
d="M471 785l2 -1l-122 -176h-179l-122 176l1 1h117l93 -97l94 97h116z" />
    <glyph glyph-name="breve" unicode="&#x2d8;" horiz-adv-x="473" 
d="M237 592q-34 0 -67.5 9t-60.5 31.5t-44 58.5t-17 88h99q0 -41 23.5 -65t66.5 -24t66.5 24t23.5 65h98q0 -41 -12 -75.5t-35.5 -59.5t-59.5 -38.5t-81 -13.5z" />
    <glyph glyph-name="dotaccent" unicode="&#x2d9;" horiz-adv-x="296" 
d="M146 620q-45 0 -71.5 21.5t-26.5 55.5q0 35 28 57.5t75 22.5q44 0 70.5 -20.5t26.5 -54.5q0 -36 -28.5 -59t-73.5 -23z" />
    <glyph glyph-name="ring" unicode="&#x2da;" horiz-adv-x="354" 
d="M173 587q-24 0 -53.5 12t-51 43t-21.5 69t21.5 69t51 43t53.5 12q25 0 54.5 -12t51 -43t21.5 -69q0 -24 -12.5 -53t-44.5 -50t-70 -21zM173 663q20 0 33 13.5t13 34.5t-13 34.5t-33 13.5t-32.5 -13.5t-12.5 -34.5t12.5 -34.5t32.5 -13.5z" />
    <glyph glyph-name="ogonek" unicode="&#x2db;" horiz-adv-x="357" 
d="M286 -109l22 -77q-53 -32 -126 -32q-61 0 -97.5 25t-36.5 69q0 38 26.5 71.5t72.5 56.5l133 -4q-44 -18 -71 -45.5t-27 -54.5q0 -16 11 -25.5t29 -9.5q30 0 62 26h2z" />
    <glyph glyph-name="tilde" unicode="&#x2dc;" horiz-adv-x="495" 
d="M322 625q-33 0 -79 17.5t-70 17.5q-23 0 -48.5 -9.5t-43.5 -24.5h-2l-31 84q19 22 51 38t66 16q25 0 75.5 -17.5t80.5 -17.5q46 0 92 36h2l31 -84q-54 -56 -124 -56z" />
    <glyph glyph-name="hungarumlaut" unicode="&#x2dd;" horiz-adv-x="556" 
d="M129 803l159 -24v-2l-116 -167h-122h-2zM349 803l159 -24v-2l-116 -167h-122h-2z" />
    <glyph glyph-name="gravecomb" unicode="&#x300;" 
d="M-144 805l96 -195h-2h-132l-122 174v2z" />
    <glyph glyph-name="acutecomb" unicode="&#x301;" 
d="M-213 805l160 -19v-2l-122 -174h-132h-2z" />
    <glyph glyph-name="uni0302" unicode="&#x302;" 
d="M-51 610h-117l-93 96l-94 -96h-116l-2 1l122 176h179l122 -176z" />
    <glyph glyph-name="tildecomb" unicode="&#x303;" 
d="M-173 625q-32 0 -78 17.5t-71 17.5q-18 0 -42.5 -7t-48.5 -27h-2l-31 84q18 22 50 38t66 16q26 0 76.5 -17.5t79.5 -17.5q47 0 93 36h2l31 -84q-56 -56 -125 -56z" />
    <glyph glyph-name="uni0304" unicode="&#x304;" 
d="M-48 645h-353v98l353 9v-107z" />
    <glyph glyph-name="uni0306" unicode="&#x306;" 
d="M-237 592q-90 0 -139 51t-49 136h98q0 -41 23.5 -65t66.5 -24q44 0 67 24t23 65h99q0 -41 -12 -75.5t-36 -59.5t-60 -38.5t-81 -13.5z" />
    <glyph glyph-name="uni0307" unicode="&#x307;" 
d="M-151 620q-45 0 -71 21.5t-26 55.5q0 35 28 57.5t75 22.5q44 0 70.5 -20.5t26.5 -54.5q0 -36 -28.5 -59t-74.5 -23z" />
    <glyph glyph-name="uni0308" unicode="&#x308;" 
d="M-350 624q-34 0 -56.5 20.5t-22.5 52.5q0 31 24 54t57 23t55.5 -21t22.5 -51q0 -31 -24.5 -54.5t-55.5 -23.5zM-128 624q-34 0 -56.5 20.5t-22.5 52.5q0 31 24 54t57 23t55.5 -21t22.5 -51q0 -31 -24.5 -54.5t-55.5 -23.5z" />
    <glyph glyph-name="uni030A" unicode="&#x30a;" 
d="M-173 587q-25 0 -54.5 12t-51 43t-21.5 69q0 25 12.5 54t44.5 49.5t70 20.5q24 0 53.5 -12t51 -43t21.5 -69q0 -24 -12.5 -53t-44 -50t-69.5 -21zM-173 663q20 0 32.5 13.5t12.5 34.5t-12.5 34.5t-32.5 13.5t-33 -13.5t-13 -34.5t12.5 -34.5t33.5 -13.5z" />
    <glyph glyph-name="uni030B" unicode="&#x30b;" 
d="M-427 803l159 -24v-2l-115 -167h-122h-2zM-207 803l159 -24v-2l-115 -167h-122h-2z" />
    <glyph glyph-name="uni030C" unicode="&#x30c;" 
d="M-66 785l1 -1l-122 -176h-178l-122 176l1 1h117l93 -97l93 97h117z" />
    <glyph glyph-name="dotbelowcomb" unicode="&#x323;" 
d="M-151 -217q-45 0 -71 21t-26 56t28 57.5t75 22.5q44 0 70.5 -21t26.5 -55q0 -35 -28.5 -58t-74.5 -23z" />
    <glyph glyph-name="uni0326" unicode="&#x326;" 
d="M-46 -72q-6 -139 -132 -216l-65 46l1 2q33 35 46 73t11 95h139z" />
    <glyph glyph-name="uni0327" unicode="&#x327;" 
d="M-29 -128q0 -47 -38 -75t-115 -28q-78 0 -118 28l23 73h2q24 -24 69 -24q54 0 54 35q0 42 -95 42l-4 5l29 85h99l-14 -46q56 -6 82 -31t26 -64z" />
    <glyph glyph-name="uni0328" unicode="&#x328;" 
d="M-57 -109l22 -77q-54 -32 -126 -32q-61 0 -97.5 25t-36.5 69q0 38 26.5 71.5t72.5 56.5l133 -4q-44 -18 -71.5 -45.5t-27.5 -54.5q0 -16 11 -25.5t29 -9.5q29 0 63 26h2z" />
    <glyph glyph-name="uni0335" unicode="&#x335;" 
d="M-431 392h376l-5 -94l-371 23v71z" />
    <glyph glyph-name="uni0336" unicode="&#x336;" 
d="M-794 672h758l-5 -87l-753 7v80z" />
    <glyph glyph-name="uni0337" unicode="&#x337;" 
d="M-50 410l37 -87l-324 -168l-37 87z" />
    <glyph glyph-name="uni0338" unicode="&#x338;" 
d="M-48 576l-242 -298l-236 -306h-141l248 313l229 291h142z" />
    <glyph glyph-name="Wgrave" unicode="&#x1e80;" horiz-adv-x="1026" 
d="M679 819l-32 -72l-284 82v2l74 105l242 -116v-1zM855 721h157l-201 -722h-161l-108 388q-17 67 -31 156h-3q-13 -96 -29 -156l-103 -387h-161l-199 707l169 18l89 -376q15 -69 25 -166h6q10 95 29 167l100 371h173l98 -370q16 -62 26 -164h7q8 94 25 163z" />
    <glyph glyph-name="wgrave" unicode="&#x1e81;" horiz-adv-x="931" 
d="M553 610h-132l-122 174v2l160 19l96 -195h-2zM781 548h142l-195 -548h-150l-76 244q-17 59 -36 149h-3q-13 -68 -35 -149l-76 -244h-151l-191 535l161 21l74 -260q19 -71 31 -138h6q17 81 34 138l77 252h166l74 -252q17 -63 33 -137h6q16 74 34 137z" />
    <glyph glyph-name="Wacute" unicode="&#x1e82;" horiz-adv-x="1026" 
d="M387 747l-31 72v1l241 115l74 -104v-2zM855 721h157l-201 -722h-161l-108 388q-17 67 -31 156h-3q-13 -96 -29 -156l-103 -387h-161l-199 707l169 18l89 -376q15 -69 25 -166h6q10 95 29 167l100 371h173l98 -370q16 -62 26 -164h7q8 94 25 163z" />
    <glyph glyph-name="wacute" unicode="&#x1e83;" horiz-adv-x="931" 
d="M516 610h-131h-2l96 195l160 -19v-2zM781 548h142l-195 -548h-150l-76 244q-17 59 -36 149h-3q-13 -68 -35 -149l-76 -244h-151l-191 535l161 21l74 -260q19 -71 31 -138h6q17 81 34 138l77 252h166l74 -252q17 -63 33 -137h6q16 74 34 137z" />
    <glyph glyph-name="Wdieresis" unicode="&#x1e84;" horiz-adv-x="1026" 
d="M393 774q-42 0 -64.5 18t-22.5 50q0 31 24.5 51t65.5 20q40 0 63 -18t23 -48q0 -33 -24.5 -53t-64.5 -20zM629 774q-42 0 -65 18t-23 50q0 31 25 51t66 20q40 0 63 -18t23 -48q0 -33 -24.5 -53t-64.5 -20zM855 721h157l-201 -722h-161l-108 388q-17 67 -31 156h-3
q-13 -96 -29 -156l-103 -387h-161l-199 707l169 18l89 -376q15 -69 25 -166h6q10 95 29 167l100 371h173l98 -370q16 -62 26 -164h7q8 94 25 163z" />
    <glyph glyph-name="wdieresis" unicode="&#x1e85;" horiz-adv-x="931" 
d="M364 624q-34 0 -56.5 20.5t-22.5 52.5q0 31 24 54t57 23t55.5 -21t22.5 -51q0 -15 -8 -33t-28.5 -31.5t-43.5 -13.5zM586 624q-34 0 -56.5 20.5t-22.5 52.5q0 31 24.5 54t57.5 23q32 0 54.5 -21t22.5 -51q0 -15 -8 -33t-28.5 -31.5t-43.5 -13.5zM781 548h142l-195 -548
h-150l-76 244q-17 59 -36 149h-3q-20 -95 -35 -149l-76 -244h-151l-191 535l161 21l74 -260q19 -71 31 -138h6q17 81 34 138l77 252h166l74 -252q17 -63 33 -137h6q16 74 34 137z" />
    <glyph glyph-name="uni1E9E" unicode="&#x1e9e;" horiz-adv-x="747" 
d="M549 412q73 -24 113.5 -77t40.5 -129q0 -36 -11.5 -73.5t-43.5 -73t-82.5 -52.5t-103.5 -17q-52 0 -102 14.5t-83 37.5l40 113h2q24 -19 58 -30.5t69 -11.5q52 0 81 26.5t29 72.5q0 51 -37 78.5t-109 27.5h-36l-6 42l132 244q-32 5 -61 5q-206 0 -206 -190v-419h-157v428
q0 72 24 129.5t69.5 96t110.5 58.5t145 20q72 0 143.5 -16.5t113.5 -40.5v-3l-51 -108z" />
    <glyph glyph-name="uni1EA0" unicode="&#x1ea0;" horiz-adv-x="717" 
d="M712 0h-168l-58 168l-257 4l-59 -172h-165l268 721h171zM323 478l-61 -190l191 1l-62 189q-19 58 -31 111l-2 -2l-4 3q-12 -53 -31 -112zM361 -60q44 0 70.5 -21t26.5 -54q0 -36 -28.5 -59t-74.5 -23q-44 0 -70.5 21t-26.5 56t28 57.5t75 22.5z" />
    <glyph glyph-name="uni1EA1" unicode="&#x1ea1;" horiz-adv-x="600" 
d="M531 189v-1q0 -51 3.5 -97t18.5 -86l-1 -3l-131 -12q-25 32 -32 75h-2q-31 -35 -75.5 -55t-98.5 -20q-56 0 -95.5 19t-60 52t-20.5 80q0 43 19 78.5t58 61.5t101 40t145 14h27q-7 107 -134 107q-82 0 -156 -49h-2l-40 112q100 53 225 53q130 0 190.5 -54.5t60.5 -177.5
v-137zM260 96q37 0 69.5 20t45 51.5t12.5 63.5v-8v26h-30q-48 0 -90.5 -9t-64.5 -30.5t-22 -49.5q0 -30 22 -47t58 -17zM291 -60q44 0 70.5 -21t26.5 -55q0 -35 -28 -58t-74 -23q-45 0 -71 21t-26 56t28 57.5t74 22.5z" />
    <glyph glyph-name="uni1EB8" unicode="&#x1eb8;" horiz-adv-x="637" 
d="M245 120l343 8v-128h-503v721h493v-128l-333 8v-181l287 6v-127l-287 6v-185zM321 -60q44 0 70.5 -21t26.5 -55q0 -35 -28.5 -58t-74.5 -23q-44 0 -70.5 21t-26.5 56t28 57.5t75 22.5z" />
    <glyph glyph-name="uni1EB9" unicode="&#x1eb9;" horiz-adv-x="595" 
d="M548 248l-11 -9h-345q7 -70 45 -103t106 -33q101 0 161 49h2l39 -109q-37 -21 -97.5 -37t-123.5 -16q-71 0 -125.5 21t-89 58t-51.5 87t-17 108q0 64 19.5 118.5t56.5 93.5t90.5 60.5t117.5 21.5q112 0 169.5 -63t57.5 -174q0 -21 -4 -73zM419 326l1 25q0 33 -15 58.5
t-39 35t-47 9.5q-51 0 -84.5 -35t-41.5 -101zM311 -60q44 0 70.5 -21t26.5 -54q0 -36 -28 -59t-74 -23q-45 0 -71 21t-26 56t28 57.5t74 22.5z" />
    <glyph glyph-name="uni1EBC" unicode="&#x1ebc;" horiz-adv-x="637" 
d="M171 766h-2l-32 87q42 62 121 62q31 0 80.5 -20.5t76.5 -20.5q53 0 92 42h2l33 -87q-48 -62 -126 -62q-30 0 -79 20t-75 20q-55 0 -91 -41zM245 120l343 8v-128h-503v721h493v-128l-333 8v-181l287 6v-127l-287 6v-185z" />
    <glyph glyph-name="uni1EBD" unicode="&#x1ebd;" horiz-adv-x="595" 
d="M158 626h-2l-31 84q19 22 51 38t66 16q25 0 75.5 -17.5t80.5 -17.5q46 0 92 36h2l31 -84q-24 -25 -56 -40.5t-69 -15.5q-32 0 -77.5 17.5t-70.5 17.5q-23 0 -48.5 -9.5t-43.5 -24.5zM548 248l-11 -9h-345q7 -70 45 -103t106 -33q101 0 161 49h2l39 -109
q-37 -21 -97.5 -37t-123.5 -16q-71 0 -125.5 21t-89 58t-51.5 87t-17 108q0 64 19.5 118.5t56.5 93.5t90.5 60.5t117.5 21.5q112 0 169.5 -63t57.5 -174q0 -21 -4 -73zM419 326l1 25q0 33 -15 58.5t-39 35t-47 9.5q-51 0 -84.5 -35t-41.5 -101z" />
    <glyph glyph-name="uni1ECA" unicode="&#x1eca;" horiz-adv-x="330" 
d="M85 0v721h160v-721h-160zM162 -217q-45 0 -71 21t-26 56t28 57.5t74 22.5q44 0 70.5 -21t26.5 -54q0 -36 -28 -59t-74 -23z" />
    <glyph glyph-name="uni1ECB" unicode="&#x1ecb;" horiz-adv-x="296" 
d="M148 622q-45 0 -70.5 20t-25.5 53q0 34 27.5 55.5t73.5 21.5q44 0 69.5 -19.5t25.5 -52.5q0 -34 -27.5 -56t-72.5 -22zM70 0v523l156 25v-548h-156zM144 -217q-44 0 -70.5 21t-26.5 56t28 57.5t75 22.5q44 0 70.5 -21t26.5 -55q0 -35 -28.5 -58t-74.5 -23z" />
    <glyph glyph-name="uni1ECC" unicode="&#x1ecc;" horiz-adv-x="796" 
d="M399 732q79 0 144.5 -26t111.5 -75t70 -117.5t24 -150.5t-24.5 -151.5t-71 -119t-113 -76.5t-146.5 -27q-79 0 -144 26.5t-110 75t-69 117t-24 150.5q0 83 24 152.5t70 119t112 76t146 26.5zM393 127q89 0 140 62.5t51 173.5q1 110 -48 170.5t-137 60.5t-137.5 -61.5
t-49.5 -173.5q-1 -110 46 -171t135 -61zM395 -217q-44 0 -70.5 21t-26.5 56t28 57.5t75 22.5q44 0 70.5 -21t26.5 -54q0 -36 -28.5 -59t-74.5 -23z" />
    <glyph glyph-name="uni1ECD" unicode="&#x1ecd;" horiz-adv-x="659" 
d="M330 -10q-32 0 -71 6.5t-76 24.5t-65 45.5t-46 64t-24.5 74.5t-6.5 68q0 132 78 208.5t211 76.5q65 0 118.5 -19.5t91.5 -57t58 -90.5t20 -118q0 -47 -13 -96.5t-46 -90.5t-76.5 -62t-82.5 -27.5t-70 -6.5zM330 108q61 0 95 43t34 123q-1 80 -34.5 122.5t-94.5 42.5
t-95 -42t-35 -123q0 -81 34.5 -123.5t95.5 -42.5zM325 -217q-45 0 -71 21t-26 56t28 57.5t74 22.5q44 0 70.5 -21t26.5 -55q0 -35 -28 -58t-74 -23z" />
    <glyph glyph-name="uni1EE4" unicode="&#x1ee4;" horiz-adv-x="770" 
d="M534 721h160v-418q0 -65 -17 -121.5t-54 -99.5t-97.5 -67.5t-141.5 -24.5t-140.5 24t-96.5 67t-54 99.5t-17 122.5v418h161v-418q0 -93 38 -132t109 -39q150 0 150 171v418zM388 -60q44 0 70.5 -21t26.5 -54q0 -36 -28.5 -59t-74.5 -23q-44 0 -70.5 21t-26.5 56t28 57.5
t75 22.5z" />
    <glyph glyph-name="uni1EE5" unicode="&#x1ee5;" horiz-adv-x="656" 
d="M583 172q0 -44 3.5 -84.5t17.5 -82.5l-1 -3l-139 -12q-25 29 -33 75h-4q-27 -33 -76.5 -54t-103.5 -21q-85 0 -133.5 52.5t-48.5 151.5v344l156 20v-332q0 -112 88 -112q33 0 60 14.5t42.5 41.5t15.5 69v309h156v-376zM330 -60q44 0 70.5 -21t26.5 -54q0 -36 -28 -59
t-74 -23q-45 0 -71 21t-26 56t28 57.5t74 22.5z" />
    <glyph glyph-name="Ygrave" unicode="&#x1ef2;" horiz-adv-x="704" 
d="M502 819l-31 -72l-284 82v2l74 105l242 -116zM696 721l-264 -478v-243h-161v242l-258 467l174 19l115 -231q26 -53 54 -139h10q26 84 52 138l112 225h166z" />
    <glyph glyph-name="ygrave" unicode="&#x1ef3;" horiz-adv-x="613" 
d="M393 610h-132l-122 174v2l160 19l96 -195h-2zM445 548h162l-141 -358q-44 -114 -84.5 -185.5t-91.5 -122t-136 -93.5l-109 86v2q124 61 182 147l-214 511l172 21l89 -272q22 -77 35 -137h10q13 62 37 135z" />
    <glyph glyph-name="uni1EF8" unicode="&#x1ef8;" horiz-adv-x="704" 
d="M186 769h-2l-33 88q43 61 122 61q32 0 81 -20t75 -20q54 0 93 42h2l32 -87q-47 -63 -126 -63q-30 0 -78.5 20t-74.5 20q-56 0 -91 -41zM696 721l-264 -478v-243h-161v242l-258 467l174 19l115 -231q26 -53 54 -139h10q26 84 52 138l112 225h166z" />
    <glyph glyph-name="uni1EF9" unicode="&#x1ef9;" horiz-adv-x="613" 
d="M149 626h-2l-31 84q19 22 51 38t65 16q26 0 76.5 -17.5t79.5 -17.5q47 0 93 36h2l31 -84q-56 -56 -125 -56q-32 0 -77.5 17.5t-70.5 17.5q-23 0 -49 -10t-43 -24zM445 548h162l-141 -358q-44 -114 -84.5 -185.5t-91.5 -122t-136 -93.5l-109 86v2q124 61 182 147l-214 511
l172 21l89 -272q22 -77 35 -137h10q13 62 37 135z" />
    <glyph glyph-name="endash" unicode="&#x2013;" horiz-adv-x="657" 
d="M68 318h523l-4 -103l-519 7v96z" />
    <glyph glyph-name="emdash" unicode="&#x2014;" horiz-adv-x="999" 
d="M68 321h864l-5 -102l-859 8v94z" />
    <glyph glyph-name="quoteleft" unicode="&#x2018;" horiz-adv-x="284" 
d="M42 480q0 79 31.5 149t96.5 146l86 -50l-1 -2q-47 -57 -60.5 -118t-2.5 -147l-2 -1z" />
    <glyph glyph-name="quoteright" unicode="&#x2019;" horiz-adv-x="278" 
d="M244 752q0 -80 -31 -150t-97 -145l-86 49l1 2q47 57 60.5 118t2.5 148l2 1z" />
    <glyph glyph-name="quotesinglbase" unicode="&#x201a;" horiz-adv-x="271" 
d="M213 103q0 -79 -31 -149t-96 -146l-87 50l1 2q47 57 60.5 118t2.5 147l2 1z" />
    <glyph glyph-name="quotedblleft" unicode="&#x201c;" horiz-adv-x="512" 
d="M43 482q0 80 31 150t96 145l87 -49l-1 -2q-47 -57 -60.5 -118t-2.5 -148l-2 -1zM270 482q0 80 31 150t96 145l87 -49l-1 -2q-47 -57 -60.5 -118t-2.5 -148l-2 -1z" />
    <glyph glyph-name="quotedblright" unicode="&#x201d;" horiz-adv-x="505" 
d="M244 752q0 -80 -31 -150t-97 -145l-86 49l1 2q47 57 60.5 118t2.5 148l2 1zM471 752q0 -80 -31 -150t-97 -145l-86 49l1 2q47 57 60.5 118t2.5 148l2 1z" />
    <glyph glyph-name="quotedblbase" unicode="&#x201e;" horiz-adv-x="498" 
d="M213 103q0 -79 -31 -149t-96 -146l-87 50l1 2q47 57 60.5 118t2.5 147l2 1zM440 103q0 -79 -31 -149t-96 -146l-87 50l1 2q47 57 60.5 118t2.5 147l2 1z" />
    <glyph glyph-name="dagger" unicode="&#x2020;" horiz-adv-x="522" 
d="M467 551v-125l-157 14l22 -555h-142l22 555l-157 -14v125l154 -15l-19 185h142l-19 -184z" />
    <glyph glyph-name="daggerdbl" unicode="&#x2021;" horiz-adv-x="522" 
d="M467 520v-126l-154 14l9 -101l-9 -103l154 15v-125l-155 13l20 -222h-142l20 222l-155 -13v125l155 -15l-10 103l10 101l-155 -14v126l155 -15l-20 216h142l-19 -216z" />
    <glyph glyph-name="bullet" unicode="&#x2022;" horiz-adv-x="451" 
d="M224 205q-71 0 -114 41t-43 109t45 112.5t119 44.5q71 0 114 -40t43 -108q0 -69 -45.5 -114t-118.5 -45z" />
    <glyph glyph-name="ellipsis" unicode="&#x2026;" horiz-adv-x="860" 
d="M140 -9q-41 0 -66 23.5t-25 61.5t26.5 63.5t68.5 25.5q41 0 66.5 -23t25.5 -61t-27 -64t-69 -26zM428 -9q-41 0 -66.5 23.5t-25.5 61.5t27 63.5t69 25.5q41 0 66 -23t25 -61q0 -39 -26.5 -64.5t-68.5 -25.5zM715 -9q-41 0 -66 23.5t-25 61.5t26.5 63.5t68.5 25.5
q41 0 66 -23t25 -61q0 -39 -26.5 -64.5t-68.5 -25.5z" />
    <glyph glyph-name="perthousand" unicode="&#x2030;" horiz-adv-x="1240" 
d="M201 725q77 0 120 -48.5t43 -145.5q0 -96 -43.5 -145.5t-120.5 -49.5t-119.5 48.5t-42.5 144.5q0 97 43 146.5t120 49.5zM601 721h100l-430 -721h-100zM200 423q64 0 64 108q0 56 -16 80.5t-47 24.5q-64 0 -64 -107q0 -58 16.5 -82t46.5 -24zM667 379h1q76 0 119 -48.5
t43 -145.5t-43.5 -146t-120.5 -49t-119.5 48.5t-42.5 144.5q0 97 43 146.5t120 49.5zM1043 379q76 0 119 -48.5t43 -145.5t-43.5 -146t-120.5 -49q-76 0 -118.5 48.5t-42.5 144.5q0 97 43 146.5t120 49.5zM666 77q31 0 48 24.5t17 83.5q0 106 -64 106t-64 -109
q0 -105 63 -105zM1042 77q30 0 47 24.5t17 83.5q0 106 -63 106q-64 0 -64 -109q0 -57 16.5 -81t46.5 -24z" />
    <glyph glyph-name="guilsinglleft" unicode="&#x2039;" horiz-adv-x="368" 
d="M307 488v-104l-132 -115l132 -116v-104l-2 -1l-262 168v104l262 169z" />
    <glyph glyph-name="guilsinglright" unicode="&#x203a;" horiz-adv-x="368" 
d="M63 489l262 -169v-104l-262 -168l-2 1v104l132 116l-132 115v104z" />
    <glyph glyph-name="fraction" unicode="&#x2044;" horiz-adv-x="160" 
d="M237 721h100l-415 -721h-100z" />
    <glyph glyph-name="Euro" unicode="&#x20ac;" horiz-adv-x="735" 
d="M527 469l-14 -81h-454l14 81h79q12 59 39.5 107.5t69 83t99 53t126.5 18.5q110 0 195 -49l-45 -137h-2q-25 19 -62.5 34.5t-81.5 15.5q-57 0 -99 -32.5t-62 -93.5h198zM646 180l43 -127q-44 -28 -101 -45.5t-119 -17.5t-115 18t-93 51t-67 80.5t-40 105.5h-116l13 81h454
l-14 -81h-172q19 -60 61.5 -91.5t103.5 -31.5q83 0 161 58h1z" />
    <glyph glyph-name="trademark" unicode="&#x2122;" horiz-adv-x="791" 
d="M293 721v-74h-84v-260h-85v260h-83v74h252zM731 387h-86l-24 243l-53 -219h-105l-54 220l-24 -244h-86l42 334h120l55 -238l55 238h119z" />
    <glyph glyph-name="oneeighth" unicode="&#x215b;" horiz-adv-x="802" 
d="M121 318v303l-67 -28l-31 86l125 42h79v-403h-106zM524 721h100l-414 -721h-100zM697 205q61 -38 61 -98q0 -27 -13.5 -53t-50.5 -43.5t-85 -17.5q-35 0 -70.5 11t-56.5 39.5t-21 64.5q0 30 15 58t43 43q-45 35 -45 87q0 36 21 64t53 38.5t64 10.5q62 0 99 -30.5
t37 -81.5q0 -56 -51 -92zM611 334q-20 0 -32.5 -10.5t-12.5 -28.5q0 -15 13 -28.5t56 -32.5q21 22 21 52q0 24 -12.5 36t-32.5 12zM612 69q21 0 35.5 11.5t14.5 28.5q0 9 -4.5 17.5t-16 17.5t-63.5 33q-21 -23 -21 -52q0 -25 15 -40.5t40 -15.5z" />
    <glyph glyph-name="threeeighths" unicode="&#x215c;" horiz-adv-x="847" 
d="M327 434q0 -37 -21.5 -63t-58.5 -40t-89 -14q-43 0 -80 9.5t-52 21.5l26 74h1q15 -10 39 -18t53 -8q34 0 53.5 14t19.5 35q0 22 -24 35.5t-73 13.5h-34v69h34q45 0 68 12.5t23 34.5q0 18 -14.5 30t-42.5 12q-45 0 -92 -28h-1l-26 73q21 14 55 24t77 10q73 0 110.5 -30
t37.5 -73q0 -32 -18.5 -57t-44.5 -37q33 -11 53.5 -38t20.5 -62zM584 721h100l-415 -721h-99zM746 200q60 -38 60 -98q0 -53 -41 -83.5t-108 -30.5q-35 0 -70.5 11t-56.5 39.5t-21 64.5q0 30 15 58t43 44q-45 33 -45 86q0 36 21 64t53 38.5t64 10.5q29 0 61.5 -10t54 -37.5
t21.5 -64.5q0 -55 -51 -92zM659 329q-20 0 -32.5 -10.5t-12.5 -28.5q0 -15 13 -29t57 -32q20 23 20 52q0 24 -12.5 36t-32.5 12zM660 64q21 0 35.5 11.5t14.5 28.5q0 9 -4.5 17.5t-16 17.5t-63.5 33q-21 -21 -21 -52q0 -25 15 -40.5t40 -15.5z" />
    <glyph glyph-name="fiveeighths" unicode="&#x215d;" horiz-adv-x="848" 
d="M330 445q0 -59 -42 -93.5t-128 -34.5q-45 0 -80.5 9.5t-49.5 21.5l26 75h2q16 -14 43 -21t49 -7q37 0 54.5 15t17.5 37q0 25 -19.5 40.5t-56.5 15.5t-70 -13l-2 1l-22 46l8 184h236v-82l-149 5l-4 -73l29 2q74 0 116 -34t42 -94zM585 721h100l-415 -721h-99zM747 200
q60 -38 60 -98q0 -33 -16.5 -58.5t-51 -40.5t-81.5 -15q-35 0 -70.5 11t-56.5 39.5t-21 64.5q0 30 15 58t43 44q-45 33 -45 86q0 36 21 64t53 38.5t64 10.5q29 0 61.5 -10t54 -37.5t21.5 -64.5q0 -55 -51 -92zM660 329q-20 0 -32.5 -10.5t-12.5 -28.5q0 -15 13 -29t57 -32
q20 23 20 52q0 24 -12.5 36t-32.5 12zM661 64q22 0 36 11t14 29q0 9 -4.5 17.5t-16 17.5t-63.5 33q-21 -21 -21 -52q0 -25 15 -40.5t40 -15.5z" />
    <glyph glyph-name="seveneighths" unicode="&#x215e;" horiz-adv-x="793" 
d="M173 319h-110q40 178 137 325l-173 -5v82h270l11 -51q-41 -62 -76 -143.5t-59 -207.5zM513 721h100l-415 -721h-99zM692 200q61 -38 61 -98q0 -54 -42.5 -84t-106.5 -30q-35 0 -70.5 11t-56.5 39.5t-21 64.5q0 30 15 58t43 44q-45 33 -45 86q0 36 21 64t53 38.5t64 10.5
q62 0 99 -30.5t37 -81.5q0 -56 -51 -92zM606 329q-20 0 -32.5 -10.5t-12.5 -28.5q0 -15 13 -28.5t56 -32.5q21 22 21 52q0 24 -12.5 36t-32.5 12zM607 64q21 0 35.5 11.5t14.5 28.5q0 9 -4.5 17.5t-16 17.5t-63.5 33q-21 -21 -21 -52q0 -25 15 -40.5t40 -15.5z" />
    <glyph glyph-name="minus" unicode="&#x2212;" horiz-adv-x="558" 
d="M70 416h417v-111h-417v111z" />
    <glyph glyph-name="approxequal" unicode="&#x2248;" horiz-adv-x="565" 
d="M377 380q-36 0 -92 22.5t-92 22.5q-29 0 -53.5 -8.5t-37.5 -26.5h-2l-36 92q13 22 46 38t70 16q33 0 95 -22.5t98 -22.5q58 0 89 37h2l37 -93q-20 -26 -52.5 -40.5t-71.5 -14.5zM377 172q-36 0 -92 22.5t-92 22.5q-29 0 -53.5 -8.5t-37.5 -26.5h-2l-36 92q13 22 46 38
t70 16q33 0 95 -22.5t98 -22.5q58 0 89 37h2l37 -93q-20 -26 -52.5 -40.5t-71.5 -14.5z" />
    <glyph glyph-name="notequal" unicode="&#x2260;" horiz-adv-x="558" 
d="M487 403h-133l-39 -111h172v-111h-210l-41 -119h-117l41 119h-90v111h128l39 111h-167v111h206l46 135h117l-46 -135h94v-111z" />
    <glyph glyph-name="uniF8FF" unicode="&#xf8ff;" horiz-adv-x="1308" 
d="M680 522q-25 0 -43 18t-18 43q0 26 18 44t43 18q26 0 44 -18t18 -44q0 -25 -18 -43t-44 -18zM28 270q0 173 9 314h100q9 -141 10 -314h-119zM534 264q-41 0 -62.5 17t-21.5 49l4 87h-22v79l119 30l1 -17h178q10 -66 10 -239h-118q0 92 3 147h-61l3 -65q5 -4 15 -4
q13 0 18 5v-74q-4 -6 -21.5 -10.5t-44.5 -4.5zM256 265q-43 0 -67.5 28.5t-24.5 84.5q0 136 137 136q60 0 90.5 -30.5t30.5 -86.5v-127h-83l-8 61q-6 -32 -23.5 -49t-51.5 -17zM762 270q0 173 10 239h80q6 -46 6 -76q0 11 8 31t21 31t26.5 15t25.5 4q30 0 47 -14t22.5 -39.5
t6.5 -52.5l3 -138h-114l2 96q0 26 -15 26q-18 0 -18 -26l3 -96h-114zM1155 265q-30 0 -58.5 11t-45.5 40.5t-17 67.5q0 130 122 130q62 0 92.5 -30.5t30.5 -99.5q0 -39 -17.5 -68.5t-46.5 -40t-60 -10.5zM295 345q10 0 16.5 8.5t6.5 21.5q0 26 -23 26t-23 -26q0 -14 6 -22
t17 -8zM1156 345q10 0 16.5 8.5t6.5 21.5q0 26 -23 26q-21 0 -21 -26q0 -14 5.5 -22t15.5 -8zM321 -50q-34 0 -58.5 5t-32.5 12v83q8 -6 26.5 -11t42.5 -5q26 0 40 8.5t15 19.5q-14 -11 -49 -11q-90 0 -90 83v13h-55l3 -65q5 -4 15 -4q13 0 18 5v-73q-4 -6 -22 -10.5
t-45 -4.5q-82 0 -82 64q0 46 3 88h-18v80l117 29l-1 -17l177 -1v-119q0 -27 14 -27q17 0 17 27v119h104q10 -61 10 -147q0 -73 -35 -107t-114 -34zM486 -44q0 169 10 282h78q7 -53 7 -76q5 32 26 56.5t54 24.5q37 0 58.5 -29.5t21.5 -82.5q0 -136 -137 -136l1 -39h-119z
M898 -5q-25 0 -50.5 5.5t-48.5 21t-32.5 41t-9.5 49.5q0 64 32.5 97.5t93.5 33.5q53 0 84 -30.5t31 -83.5q0 -24 -3 -37h-124q4 -7 17 -12.5t32 -5.5q36 0 56 12v-75q-8 -6 -29 -11t-49 -5zM866 109h40q1 13 -3.5 20t-13.5 7q-10 0 -16.5 -7.5t-6.5 -19.5zM598 72
q14 1 25.5 11t11.5 27q0 10 -5.5 16t-14.5 6q-22 0 -22 -32q0 -14 5 -28zM1026 -10q-9 0 -16 7t-7 16t7 15.5t16 6.5t15.5 -6.5t6.5 -15.5t-6.5 -16t-15.5 -7zM1026 -5q6 0 11.5 5.5t5.5 12.5t-5.5 12.5t-11.5 5.5q-7 0 -12.5 -5.5t-5.5 -12.5t5.5 -12.5t12.5 -5.5zM1016 2
v23h11q10 0 10 -7t-7 -7l6 -9h-6l-4 9h-5v-9h-5zM1021 15h6q5 0 5 4l-6 2h-5v-6z" />
    <glyph glyph-name="i.locl" horiz-adv-x="296" 
d="M148 620q-45 0 -71 21.5t-26 55.5q0 35 27.5 57.5t74.5 22.5q44 0 70.5 -20.5t26.5 -54.5q0 -36 -28 -59t-74 -23zM70 0v527l156 24v-551h-156z" />
    <glyph glyph-name="c.salt" horiz-adv-x="616" 
d="M0 672h616v-84h-616v84zM370 414q-76 0 -116.5 -40t-40.5 -111q0 -70 40 -109.5t116 -39.5q39 0 75 11t56 27l42 -130q-76 -45 -186 -45q-71 0 -128 20t-95 57t-58 89.5t-20 116.5q0 65 20.5 118.5t60 91t97.5 57.5t129 20q49 0 95.5 -9.5t75.5 -26.5l-43 -133h-2
q-55 36 -118 36zM0 -64h616v-84h-616v84z" />
    <glyph glyph-name="d.salt" horiz-adv-x="712" 
d="M0 672h712v-84h-712v84zM657 255q0 -95 -41.5 -155.5t-119.5 -91.5t-199 -31q-87 0 -185 15v540q105 15 191 15q70 0 136 -15t114.5 -50.5t76 -91.5t27.5 -135zM310 96q99 0 145.5 41t46.5 121q0 58 -22.5 95t-64.5 56t-106 19q-24 0 -44 -2v-328zM0 -148v84h712v-84
h-712z" />
    <glyph glyph-name="i.salt" horiz-adv-x="370" 
d="M0 672h370v-84h-370v84zM107 0v524h156v-524h-156zM0 -64h370v-84h-370v84z" />
    <glyph glyph-name="l.salt" horiz-adv-x="542" 
d="M0 672h542v-84h-542v84zM107 524h156v-410l238 7v-121h-394v524zM0 -148v84h542v-84h-542z" />
    <glyph glyph-name="m.salt" horiz-adv-x="875" 
d="M0 672h875v-84h-875v84zM251 338l-2 -17l-55 -321h-132l102 524h152l111 -319h13l118 319h152l105 -524h-147l-56 325l-3 19h-6l-4 -12l-113 -292h-121l-106 290l-3 8h-5zM433 187l2 5h-4zM0 -148v84h875v-84h-875z" />
    <glyph glyph-name="v.salt" horiz-adv-x="666" 
d="M0 672h666v-84h-666v84zM632 524l-212 -524h-168l-218 524h163l105 -297q12 -32 32 -109h10q16 64 33 113l105 293h150zM341 104h-4l2 -7zM0 -148v84h666v-84h-666z" />
    <glyph glyph-name="x.salt" horiz-adv-x="644" 
d="M0 672h644v-84h-644v84zM34 0v2l195 267l-192 253v2h171l117 -165l113 165h165v-1l-188 -252l207 -269v-2h-167l-133 181l-126 -181h-162zM0 -148v84h644v-84h-644z" />
    <glyph glyph-name="f_b.dlig" horiz-adv-x="1065" 
d="M806 558q100 0 158 -70.5t58 -198.5q0 -147 -78 -223t-225 -76q-70 0 -136 17t-105 46v601q-32 20 -74 20q-30 0 -60 -11.5t-49 -43t-19 -72.5v-20l123 9l-6 -112h-117v-424h-156v424h-95v100l95 9v23q0 48 18.5 90t53.5 73t84.5 48.5t109.5 17.5q66 0 124 -30l123 20h1
v-292h3q68 75 169 75zM724 112q69 0 103 40t34 122q0 78 -28.5 118.5t-78.5 40.5q-37 0 -66.5 -21.5t-41.5 -58t-12 -75.5v-143q12 -12 38 -17.5t52 -5.5z" />
    <glyph glyph-name="f_h.dlig" horiz-adv-x="1070" 
d="M816 558h-1q91 0 140.5 -53t49.5 -151v-354h-156v319q0 113 -89 113q-35 0 -63 -17t-40.5 -39.5t-17 -43t-5.5 -37.5v-295h-156v654q-32 20 -74 20q-30 0 -60 -11.5t-49 -43t-19 -72.5v-20l123 9l-6 -112h-117v-424h-156v424h-95v100l95 9v23q0 48 18.5 90t53.5 73
t84.5 48.5t109.5 17.5q66 0 124 -30l123 20h1v-294h3q31 35 78 56t101 21z" />
    <glyph glyph-name="f_k.dlig" horiz-adv-x="1018" 
d="M795 272q78 -115 234 -264v-2l-171 -14q-61 59 -105.5 114t-98.5 138l-9 13h-11v-257h-156v654q-32 20 -74 20q-30 0 -60 -11.5t-49 -43t-19 -72.5v-20l123 9l-6 -112h-117v-424h-156v424h-95v100l95 9v23q0 48 18.5 90t53.5 73t84.5 48.5t109.5 17.5q63 0 119 -27
l129 21v-446h12l179 215h170l1 -2l-227 -237z" />
    <glyph glyph-name="f_t.dlig" horiz-adv-x="826" 
d="M775 138l37 -106q-27 -18 -67.5 -30t-85.5 -12q-90 0 -135.5 47.5t-45.5 134.5v255h-202v-427h-156v427h-95v99l95 10v20q0 107 61.5 168t170.5 61q74 0 133 -32l-40 -109h-2q-33 26 -75 26q-92 0 -92 -125v-15l191 5l9 1h2l9 87l147 25v-118l161 9l-6 -112h-155v-235
q0 -76 63 -76q39 0 76 22h2z" />
    <glyph glyph-name="f_y.dlig" horiz-adv-x="990" 
d="M825 548h162l-141 -358q-44 -114 -84.5 -185.5t-91.5 -122t-136 -93.5l-109 86v2q124 61 182 147l-164 391h-165v-415h-156v415h-95v115l94 9h1v17q0 107 62 168t173 61q75 0 134 -32l-37 -104h-2q-36 22 -72 22q-48 0 -75 -29t-27 -97v-12l188 10l100 12l88 -271
q22 -77 35 -137h10q13 62 37 135z" />
    <glyph glyph-name="t_t.dlig" horiz-adv-x="869" 
d="M815 140l38 -108q-27 -18 -67.5 -30t-86.5 -12q-90 0 -133.5 47t-43.5 135v246h-249v-226q0 -77 59 -77q35 0 75 25h2l37 -108q-27 -18 -66.5 -30t-81.5 -12q-90 0 -133.5 47t-43.5 135v246h-100v112l98 9h2v1l8 122l144 25v-157l248 9h1v1l9 122l144 25v-154l163 9
l-8 -124h-155v-226q0 -76 64 -76q37 0 74 24h2z" />
    <glyph glyph-name="A.c2sc" horiz-adv-x="652" 
d="M481 0l-39 120l-236 5l-40 -125h-155l227 581h173l233 -581h-163zM292 388l-60 -158l181 1l-61 157l-28 89h-5z" />
    <glyph glyph-name="Aacute.aalt" horiz-adv-x="652" 
d="M366 643h-132h-2l96 195l160 -19v-2zM481 0l-39 120l-236 5l-40 -125h-155l227 581h173l233 -581h-163zM292 388l-60 -158l181 1l-61 157l-28 89h-5z" />
    <glyph glyph-name="Abreve.aalt" horiz-adv-x="652" 
d="M325 625q-90 0 -139 51t-49 136h98q0 -41 23.5 -65t66.5 -24q44 0 67 24t23 65h99q0 -30 -8 -62t-28.5 -59.5t-58 -46.5t-94.5 -19zM481 0l-39 120l-236 5l-40 -125h-155l227 581h173l233 -581h-163zM292 388l-60 -158l181 1l-61 157l-28 89h-5z" />
    <glyph glyph-name="Acircumflex.aalt" horiz-adv-x="652" 
d="M232 643h-116l-2 1l122 176h179l122 -176l-2 -1h-116l-94 97zM481 0l-39 120l-236 5l-40 -125h-155l227 581h173l233 -581h-163zM292 388l-60 -158l181 1l-61 157l-28 89h-5z" />
    <glyph glyph-name="Adieresis.aalt" horiz-adv-x="652" 
d="M214 657q-35 0 -57 21t-22 53q0 31 24 53.5t57 22.5t55 -20.5t22 -50.5q0 -32 -24 -55.5t-55 -23.5zM436 657q-35 0 -57 21t-22 53q0 31 24 53.5t57 22.5t55 -20.5t22 -50.5q0 -32 -24 -55.5t-55 -23.5zM481 0l-39 120l-236 5l-40 -125h-155l227 581h173l233 -581h-163z
M292 388l-60 -158l181 1l-61 157l-28 89h-5z" />
    <glyph glyph-name="uni1EA1.aalt" horiz-adv-x="652" 
d="M644 0h-163l-39 120l-236 5l-40 -125h-155l227 581h173zM292 388l-60 -158l181 1l-61 157l-28 89h-5zM328 -60q44 0 70.5 -21t26.5 -54q0 -36 -28.5 -59t-74.5 -23q-44 0 -70.5 21t-26.5 56t28 57.5t75 22.5z" />
    <glyph glyph-name="Agrave.aalt" horiz-adv-x="652" 
d="M402 643h-131l-122 174v2l160 20l95 -196h-2zM481 0l-39 120l-236 5l-40 -125h-155l227 581h173l233 -581h-163zM292 388l-60 -158l181 1l-61 157l-28 89h-5z" />
    <glyph glyph-name="Amacron.aalt" horiz-adv-x="652" 
d="M502 785v-107h-353v99zM481 0l-39 120l-236 5l-40 -125h-155l227 581h173l233 -581h-163zM292 388l-60 -158l181 1l-61 157l-28 89h-5z" />
    <glyph glyph-name="Aogonek.aalt" horiz-adv-x="652" 
d="M650 -109l22 -77q-54 -32 -126 -32q-61 0 -97.5 25t-36.5 69q0 37 24.5 69t67.5 55h-23l-39 120l-236 5l-40 -125h-155l227 581h173l233 -581q-44 -18 -71.5 -45.5t-27.5 -54.5q0 -16 11 -25.5t29 -9.5q29 0 63 26h2zM292 388l-60 -158l181 1l-61 157l-28 89h-5z" />
    <glyph glyph-name="Aring.aalt" horiz-adv-x="652" 
d="M324 621q-24 0 -53.5 12t-51 42.5t-21.5 68.5t21.5 69t51 43t53.5 12q25 0 54.5 -12t51 -43t21.5 -69q0 -24 -12.5 -53t-44.5 -49.5t-70 -20.5zM324 793q-20 0 -32.5 -14t-12.5 -35t12.5 -34.5t32.5 -13.5t33 13.5t13 34.5q0 22 -12.5 35.5t-33.5 13.5zM481 0l-39 120
l-236 5l-40 -125h-155l227 581h173l233 -581h-163zM292 388l-60 -158l181 1l-61 157l-28 89h-5z" />
    <glyph glyph-name="Aringacute.aalt" horiz-adv-x="652" 
d="M481 0l-39 120l-236 5l-40 -125h-155l227 581h9q-26 17 -41.5 45.5t-15.5 61.5q0 44 27 78.5t67 45.5l70 114l160 -16v-1l-106 -121q22 -17 35 -43.5t13 -56.5q0 -33 -15.5 -61.5t-41.5 -45.5h12l233 -581h-163zM371 688q0 22 -13.5 36t-34.5 14t-34.5 -14t-13.5 -36
q0 -23 13.5 -37t34.5 -14t34.5 14.5t13.5 36.5zM292 388l-60 -158l181 1l-61 157l-28 89h-5z" />
    <glyph glyph-name="Atilde.aalt" horiz-adv-x="652" 
d="M159 660h-2l-31 83q19 23 51 39t65 16q26 0 76.5 -17.5t79.5 -17.5q49 0 93 36h2l31 -84q-55 -57 -125 -57q-32 0 -78 17.5t-71 17.5q-23 0 -48.5 -9.5t-42.5 -23.5zM481 0l-39 120l-236 5l-40 -125h-155l227 581h173l233 -581h-163zM292 388l-60 -158l181 1l-61 157
l-28 89h-5z" />
    <glyph glyph-name="AE.aalt" horiz-adv-x="947" 
d="M592 104l308 6v-110h-461v124l-195 4l-76 -128h-173l343 581h553v-110l-299 6v-135l257 4v-107l-257 4v-139zM290 234l149 1v254z" />
    <glyph glyph-name="AEacute.aalt" horiz-adv-x="947" 
d="M631 643h-132h-2l96 195l160 -19v-2zM592 104l308 6v-110h-461v124l-195 4l-76 -128h-173l343 581h553v-110l-299 6v-135l257 4v-107l-257 4v-139zM290 234l149 1v254z" />
    <glyph glyph-name="B.aalt" horiz-adv-x="655" 
d="M495 303q64 -17 91 -55t27 -85q0 -40 -18 -72.5t-56.5 -55.5t-99 -35t-142.5 -12q-92 0 -218 17v571q125 17 211 17q103 0 168 -18t98 -52.5t33 -91.5q0 -89 -94 -125v-3zM439 407q0 43 -36 62.5t-124 19.5l-52 -2v-154h112q100 0 100 74zM293 92q81 0 121.5 17t40.5 64
q0 39 -26.5 59t-75.5 20h-126v-157q35 -3 66 -3z" />
    <glyph glyph-name="C.aalt" horiz-adv-x="596" 
d="M375 458q-81 0 -126.5 -48.5t-45.5 -123.5q0 -44 18.5 -82.5t59 -59t91.5 -20.5q84 0 152 47h2l41 -128q-98 -53 -214 -53q-73 0 -131.5 23t-98 64t-59.5 96t-20 117t20.5 117t61 96.5t102.5 65t141 23.5q109 0 191 -42l-44 -132h-1q-62 40 -140 40z" />
    <glyph glyph-name="Cacute.aalt" horiz-adv-x="596" 
d="M370 839l160 -20v-2l-122 -174h-132h-2zM375 458q-81 0 -126.5 -48.5t-45.5 -123.5q0 -44 18.5 -82.5t59 -59t91.5 -20.5q84 0 152 47h2l41 -128q-98 -53 -214 -53q-73 0 -131.5 23t-98 64t-59.5 96t-20 117t20.5 117t61 96.5t102.5 65t141 23.5q109 0 191 -42l-44 -132
h-1q-62 40 -140 40z" />
    <glyph glyph-name="Ccaron.aalt" horiz-adv-x="596" 
d="M577 821l1 -1l-121 -177h-179l-122 177l1 1h117l93 -97l93 97h117zM375 458q-81 0 -126.5 -48.5t-45.5 -123.5q0 -44 18.5 -82.5t59 -59t91.5 -20.5q84 0 152 47h2l41 -128q-98 -53 -214 -53q-73 0 -131.5 23t-98 64t-59.5 96t-20 117t20.5 117t61 96.5t102.5 65
t141 23.5q109 0 191 -42l-44 -132h-1q-62 40 -140 40z" />
    <glyph glyph-name="Ccedilla.aalt" horiz-adv-x="596" 
d="M384 -33q55 -6 81.5 -31t26.5 -64q0 -47 -38.5 -75t-115.5 -28t-117 28l22 73h2q25 -24 69 -24q55 0 55 35q0 42 -96 42l-4 5l22 66q-59 9 -105.5 35.5t-78 66t-47.5 89.5t-16 105q0 62 20.5 117t61 96.5t102.5 65t141 23.5q109 0 191 -42l-44 -132h-1q-62 40 -140 40
q-81 0 -126.5 -48.5t-45.5 -123.5q0 -44 18.5 -82.5t59 -59t91.5 -20.5q84 0 152 47h2l41 -128q-83 -45 -176 -52z" />
    <glyph glyph-name="Ccircumflex.aalt" horiz-adv-x="596" 
d="M577 643h-117l-93 97l-93 -97h-117l-1 1l122 176h179l121 -176zM375 458q-81 0 -126.5 -48.5t-45.5 -123.5q0 -44 18.5 -82.5t59 -59t91.5 -20.5q84 0 152 47h2l41 -128q-98 -53 -214 -53q-73 0 -131.5 23t-98 64t-59.5 96t-20 117t20.5 117t61 96.5t102.5 65t141 23.5
q109 0 191 -42l-44 -132h-1q-62 40 -140 40z" />
    <glyph glyph-name="Cdotaccent.aalt" horiz-adv-x="596" 
d="M364 654q-45 0 -71 21t-26 56t28 57.5t74 22.5q45 0 71.5 -21t26.5 -55q0 -35 -28.5 -58t-74.5 -23zM375 458q-81 0 -126.5 -48.5t-45.5 -123.5q0 -44 18.5 -82.5t59 -59t91.5 -20.5q84 0 152 47h2l41 -128q-98 -53 -214 -53q-73 0 -131.5 23t-98 64t-59.5 96t-20 117
t20.5 117t61 96.5t102.5 65t141 23.5q109 0 191 -42l-44 -132h-1q-62 40 -140 40z" />
    <glyph glyph-name="D.aalt" horiz-adv-x="699" 
d="M290 593q92 0 161.5 -22t114.5 -62.5t67 -98t22 -127.5q0 -67 -21 -122t-64.5 -93.5t-113 -59t-162.5 -20.5q-86 0 -215 17v571q132 17 211 17zM289 113q111 0 160.5 43.5t49.5 130.5q0 181 -210 181l-57 -2v-351z" />
    <glyph glyph-name="Eth.aalt" horiz-adv-x="699" 
d="M290 593q92 0 161.5 -22t114.5 -62.5t67 -98t22 -127.5q0 -67 -21 -122t-64.5 -93.5t-113 -59t-162.5 -20.5q-86 0 -215 17v253l-66 4v72h66v242q132 17 211 17zM289 113q111 0 160.5 43.5t49.5 130.5q0 181 -210 181l-57 -2v-132h133l-5 -94l-128 8v-133z" />
    <glyph glyph-name="Dcaron.aalt" horiz-adv-x="699" 
d="M444 644h-179l-122 176l1 1h117l93 -97l93 97h117l1 -1zM290 593q92 0 161.5 -22t114.5 -62.5t67 -98t22 -127.5q0 -67 -21 -122t-64.5 -93.5t-113 -59t-162.5 -20.5q-86 0 -215 17v571q132 17 211 17zM289 113q111 0 160.5 43.5t49.5 130.5q0 181 -210 181l-57 -2v-351z
" />
    <glyph glyph-name="Dcroat.aalt" horiz-adv-x="699" 
d="M290 593q92 0 161.5 -22t114.5 -62.5t67 -98t22 -127.5q0 -67 -21 -122t-64.5 -93.5t-113 -59t-162.5 -20.5q-86 0 -215 17v253l-66 4v72h66v242q132 17 211 17zM289 113q111 0 160.5 43.5t49.5 130.5q0 181 -210 181l-57 -2v-132h133l-5 -94l-128 8v-133z" />
    <glyph glyph-name="E.aalt" horiz-adv-x="586" 
d="M231 104l308 6v-110h-460v581h451v-110l-299 6v-136l258 5v-108l-258 5v-139z" />
    <glyph glyph-name="Eacute.aalt" horiz-adv-x="586" 
d="M357 643h-132h-2l96 195l160 -19v-2zM231 104l308 6v-110h-460v581h451v-110l-299 6v-136l258 5v-108l-258 5v-139z" />
    <glyph glyph-name="Ebreve.aalt" horiz-adv-x="586" 
d="M316 625q-90 0 -139 51t-49 136h98q0 -41 23.5 -65t66.5 -24q44 0 67 24t23 65h99q0 -30 -8 -62t-28.5 -59.5t-58 -46.5t-94.5 -19zM231 104l308 6v-110h-460v581h451v-110l-299 6v-136l258 5v-108l-258 5v-139z" />
    <glyph glyph-name="Ecaron.aalt" horiz-adv-x="586" 
d="M401 643h-179l-122 176l1 1h117l93 -96l94 96h116l1 -1zM231 104l308 6v-110h-460v581h451v-110l-299 6v-136l258 5v-108l-258 5v-139z" />
    <glyph glyph-name="Ecircumflex.aalt" horiz-adv-x="586" 
d="M223 643h-116l-2 1l122 176h179l122 -176l-2 -1h-116l-94 97zM231 104l308 6v-110h-460v581h451v-110l-299 6v-136l258 5v-108l-258 5v-139z" />
    <glyph glyph-name="Edieresis.aalt" horiz-adv-x="586" 
d="M205 657q-35 0 -57 21t-22 53q0 31 24 53.5t57 22.5t55 -20.5t22 -50.5q0 -32 -24 -55.5t-55 -23.5zM427 657q-35 0 -57 21t-22 53q0 31 24 53.5t57 22.5t55 -20.5t22 -50.5q0 -32 -24 -55.5t-55 -23.5zM231 104l308 6v-110h-460v581h451v-110l-299 6v-136l258 5v-108
l-258 5v-139z" />
    <glyph glyph-name="Edotaccent.aalt" horiz-adv-x="586" 
d="M313 654q-44 0 -70.5 21t-26.5 56t28 57.5t75 22.5q44 0 70.5 -21t26.5 -55q0 -35 -28.5 -58t-74.5 -23zM231 104l308 6v-110h-460v581h451v-110l-299 6v-136l258 5v-108l-258 5v-139z" />
    <glyph glyph-name="uni1EB9.aalt" horiz-adv-x="586" 
d="M231 104l308 6v-110h-460v581h451v-110l-299 6v-136l258 5v-108l-258 5v-139zM324 -60q44 0 70.5 -21t26.5 -55q0 -35 -28.5 -58t-74.5 -23q-44 0 -70.5 21t-26.5 56t28 57.5t75 22.5z" />
    <glyph glyph-name="Egrave.aalt" horiz-adv-x="586" 
d="M393 643h-131l-122 174v2l160 20l95 -196h-2zM231 104l308 6v-110h-460v581h451v-110l-299 6v-136l258 5v-108l-258 5v-139z" />
    <glyph glyph-name="Emacron.aalt" horiz-adv-x="586" 
d="M493 785v-107h-353v99zM231 104l308 6v-110h-460v581h451v-110l-299 6v-136l258 5v-108l-258 5v-139z" />
    <glyph glyph-name="Eogonek.aalt" horiz-adv-x="586" 
d="M545 -109l22 -77q-54 -32 -126 -32q-61 0 -97.5 25t-36.5 69q0 37 24.5 69t67.5 55h-320v581h451v-110l-299 6v-136l258 5v-108l-258 5v-139l308 6v-110q-44 -18 -71 -45.5t-27 -54.5q0 -16 10.5 -25.5t28.5 -9.5q29 0 63 26h2z" />
    <glyph glyph-name="uni1EBD.aalt" horiz-adv-x="586" 
d="M150 660h-2l-31 83q19 23 51 39t65 16q26 0 76.5 -17.5t79.5 -17.5q49 0 93 36h2l31 -84q-55 -57 -125 -57q-32 0 -78 17.5t-71 17.5q-23 0 -48.5 -9.5t-42.5 -23.5zM231 104l308 6v-110h-460v581h451v-110l-299 6v-136l258 5v-108l-258 5v-139z" />
    <glyph glyph-name="F.aalt" horiz-adv-x="566" 
d="M530 470l-297 8v-157l256 4v-111l-256 4v-218h-154v581h451v-111z" />
    <glyph glyph-name="G.aalt" horiz-adv-x="659" 
d="M465 294h142v-249q-49 -24 -111 -39.5t-129 -15.5q-81 0 -143 23t-101.5 64t-59 94.5t-19.5 114.5q0 65 22 121t64.5 97.5t106.5 64.5t144 23q57 0 114.5 -11.5t97.5 -30.5l-48 -132h-2q-30 17 -70.5 28.5t-82.5 11.5q-89 0 -138 -47t-49 -127q0 -77 44.5 -120.5
t127.5 -43.5q48 0 95 16z" />
    <glyph glyph-name="Gbreve.aalt" horiz-adv-x="659" 
d="M371 625q-34 0 -67.5 9t-60.5 31.5t-44 58.5t-17 88h99q0 -41 23.5 -65t66.5 -24t66.5 24t23.5 65h98q0 -41 -12 -75.5t-35.5 -59.5t-59.5 -38.5t-81 -13.5zM465 294h142v-249q-49 -24 -111 -39.5t-129 -15.5q-81 0 -143 23t-101.5 64t-59 94.5t-19.5 114.5q0 65 22 121
t64.5 97.5t106.5 64.5t144 23q57 0 114.5 -11.5t97.5 -30.5l-48 -132h-2q-30 17 -70.5 28.5t-82.5 11.5q-89 0 -138 -47t-49 -127q0 -77 44.5 -120.5t127.5 -43.5q48 0 95 16z" />
    <glyph glyph-name="Gcaron.aalt" horiz-adv-x="659" 
d="M460 643h-179l-122 176l2 1h116l94 -96l93 96h117l1 -1zM465 294h142v-249q-49 -24 -111 -39.5t-129 -15.5q-81 0 -143 23t-101.5 64t-59 94.5t-19.5 114.5q0 65 22 121t64.5 97.5t106.5 64.5t144 23q57 0 114.5 -11.5t97.5 -30.5l-48 -132h-2q-30 17 -70.5 28.5
t-82.5 11.5q-89 0 -138 -47t-49 -127q0 -77 44.5 -120.5t127.5 -43.5q48 0 95 16z" />
    <glyph glyph-name="Gcircumflex.aalt" horiz-adv-x="659" 
d="M277 643h-116l-2 1l122 176h179l122 -176l-1 -1h-117l-93 97zM465 294h142v-249q-49 -24 -111 -39.5t-129 -15.5q-81 0 -143 23t-101.5 64t-59 94.5t-19.5 114.5q0 65 22 121t64.5 97.5t106.5 64.5t144 23q57 0 114.5 -11.5t97.5 -30.5l-48 -132h-2q-30 17 -70.5 28.5
t-82.5 11.5q-89 0 -138 -47t-49 -127q0 -77 44.5 -120.5t127.5 -43.5q48 0 95 16z" />
    <glyph glyph-name="Gcommaaccent.aalt" horiz-adv-x="659" 
d="M465 294h142v-249q-49 -24 -111 -39.5t-129 -15.5q-81 0 -143 23t-101.5 64t-59 94.5t-19.5 114.5q0 65 22 121t64.5 97.5t106.5 64.5t144 23q57 0 114.5 -11.5t97.5 -30.5l-48 -132h-2q-30 17 -70.5 28.5t-82.5 11.5q-89 0 -138 -47t-49 -127q0 -77 44.5 -120.5
t127.5 -43.5q48 0 95 16zM237 -240q34 35 46.5 73t10.5 95h139q-2 -50 -21 -94t-50 -74t-61 -48l-64 46v2z" />
    <glyph glyph-name="Gdotaccent.aalt" horiz-adv-x="659" 
d="M368 654q-45 0 -71 21t-26 56t28 57.5t74 22.5q44 0 70.5 -21t26.5 -55q0 -35 -28 -58t-74 -23zM465 294h142v-249q-49 -24 -111 -39.5t-129 -15.5q-81 0 -143 23t-101.5 64t-59 94.5t-19.5 114.5q0 65 22 121t64.5 97.5t106.5 64.5t144 23q57 0 114.5 -11.5t97.5 -30.5
l-48 -132h-2q-30 17 -70.5 28.5t-82.5 11.5q-89 0 -138 -47t-49 -127q0 -77 44.5 -120.5t127.5 -43.5q48 0 95 16z" />
    <glyph glyph-name="H.aalt" horiz-adv-x="724" 
d="M490 581h156v-581h-156v236l-255 4v-240h-156v581h156v-234l255 2v232z" />
    <glyph glyph-name="Hbar.aalt" horiz-adv-x="724" 
d="M706 498l-5 -87l-55 1v-412h-156v236l-255 4v-240h-156v418l-62 1v79h62v83h156v-83h255v83h156v-83h60zM490 349v64l-255 3v-69z" />
    <glyph glyph-name="Hcircumflex.aalt" horiz-adv-x="724" 
d="M269 643h-116l-2 1l122 176h179l122 -176l-2 -1h-116l-94 97zM490 581h156v-581h-156v236l-255 4v-240h-156v581h156v-234l255 2v232z" />
    <glyph glyph-name="I.aalt" horiz-adv-x="313" 
d="M79 0v581h156v-581h-156z" />
    <glyph glyph-name="Iacute.aalt" horiz-adv-x="313" 
d="M162 839l160 -20v-2l-123 -174h-131h-2zM79 0v581h156v-581h-156z" />
    <glyph glyph-name="Ibreve.aalt" horiz-adv-x="313" 
d="M159 625q-34 0 -67.5 9t-60.5 31.5t-44 58.5t-17 88h99q0 -41 23.5 -65t66.5 -24t66.5 24t23.5 65h98q0 -41 -12 -75.5t-35.5 -59.5t-59.5 -38.5t-81 -13.5zM79 0v581h156v-581h-156z" />
    <glyph glyph-name="Icircumflex.aalt" horiz-adv-x="313" 
d="M369 643h-117l-93 97l-94 -97h-116l-2 1l122 176h179l122 -176zM79 0v581h156v-581h-156z" />
    <glyph glyph-name="Idieresis.aalt" horiz-adv-x="313" 
d="M47 657q-34 0 -56.5 21t-22.5 53q0 31 24 53.5t57 22.5t55.5 -20.5t22.5 -50.5q0 -32 -24.5 -55.5t-55.5 -23.5zM269 657q-34 0 -56.5 21t-22.5 53q0 31 24 53.5t57 22.5t55.5 -20.5t22.5 -50.5q0 -32 -24.5 -55.5t-55.5 -23.5zM79 0v581h156v-581h-156z" />
    <glyph glyph-name="glyph355" horiz-adv-x="313" 
d="M156 654q-45 0 -71 21t-26 56t28 57.5t74 22.5q44 0 70.5 -21t26.5 -55q0 -35 -28 -58t-74 -23zM79 0v581h156v-581h-156z" />
    <glyph glyph-name="uni1ECB.aalt" horiz-adv-x="313" 
d="M79 0v581h156v-581h-156zM154 -217q-44 0 -70.5 21t-26.5 56t28 57.5t75 22.5q44 0 70.5 -21t26.5 -55q0 -35 -28.5 -58t-74.5 -23z" />
    <glyph glyph-name="Igrave.aalt" horiz-adv-x="313" 
d="M142 839l96 -196h-2h-132l-122 174v2zM79 0v581h156v-581h-156z" />
    <glyph glyph-name="IJ.aalt" horiz-adv-x="627" 
d="M79 0v581h156v-581h-156zM393 581h156v-502q0 -87 -39.5 -142t-131.5 -96l-93 105v1q61 17 84.5 47t23.5 83v504z" />
    <glyph glyph-name="Imacron.aalt" horiz-adv-x="313" 
d="M335 678h-353v99l353 8v-107zM79 0v581h156v-581h-156z" />
    <glyph glyph-name="Iogonek.aalt" horiz-adv-x="313" 
d="M242 -109l22 -77q-54 -32 -126 -32q-61 0 -97.5 25t-36.5 69q0 37 24.5 69t67.5 55h-17v581h156v-581h1q-44 -18 -71.5 -45.5t-27.5 -54.5q0 -16 11 -25.5t29 -9.5q29 0 63 26h2z" />
    <glyph glyph-name="Itilde.aalt" horiz-adv-x="313" 
d="M232 658q-32 0 -77.5 17.5t-70.5 17.5q-23 0 -48.5 -9.5t-43.5 -23.5h-2l-31 83q19 22 51.5 38.5t65.5 16.5q25 0 75.5 -17.5t80.5 -17.5q48 0 92 36h2l31 -84q-24 -26 -56 -41.5t-69 -15.5zM79 0v581h156v-581h-156z" />
    <glyph glyph-name="J.aalt" horiz-adv-x="313" 
d="M80 581h156v-502q0 -87 -39.5 -142t-131.5 -96l-94 105v1q61 17 85 47t24 83v504z" />
    <glyph glyph-name="Jcircumflex.aalt" horiz-adv-x="313" 
d="M248 787l121 -176l-1 -1h-116l-94 96l-93 -96h-117l-1 1l122 176h179zM80 77v504h156v-502q0 -87 -39.5 -142t-131.5 -96l-94 105v1q61 18 85 47.5t24 82.5z" />
    <glyph glyph-name="K.aalt" horiz-adv-x="653" 
d="M369 291q100 -132 285 -288v-3l-186 -12q-142 131 -227 259h-7v-247h-155v581h155v-264l227 264h170l1 -2z" />
    <glyph glyph-name="Kcommaaccent.aalt" horiz-adv-x="653" 
d="M369 291q100 -132 285 -288v-3l-186 -12q-142 131 -227 259h-7v-247h-155v581h155v-264l227 264h170l1 -2zM219 -240q34 35 46.5 73t10.5 95h139q-6 -139 -132 -216l-65 46z" />
    <glyph glyph-name="L.aalt" horiz-adv-x="531" 
d="M235 112l272 9v-121h-428v581h156v-469z" />
    <glyph glyph-name="Lacute.aalt" horiz-adv-x="531" 
d="M220 643h-132h-2l96 195l160 -19v-2zM235 112l272 8v-120h-428v581h156v-469z" />
    <glyph glyph-name="Lcaron.aalt" horiz-adv-x="531" 
d="M492 728l-48 -252h-104l25 252h127zM235 112l272 8v-120h-428v581h156v-469z" />
    <glyph glyph-name="Lcommaaccent.aalt" horiz-adv-x="531" 
d="M235 112l272 9v-121h-428v581h156v-469zM164 -240q34 35 46.5 73t11.5 95h138q-5 -139 -132 -216l-64 46v2z" />
    <glyph glyph-name="Ldot.aalt" horiz-adv-x="532" 
d="M235 112l272 9v-121h-428v581h156v-469zM394 248q-37 0 -60 21t-23 56q0 16 8 35t29.5 32.5t49.5 13.5q37 0 60 -21t23 -55q0 -35 -24.5 -58.5t-62.5 -23.5z" />
    <glyph glyph-name="Lslash.aalt" horiz-adv-x="560" 
d="M264 112l272 8v-120h-428v181l-49 -25l-37 87l86 44v294h156v-213l82 43l37 -87l-119 -62v-150z" />
    <glyph glyph-name="M.aalt" horiz-adv-x="869" 
d="M730 581l100 -581h-149l-42 279q-6 34 -13 129h-4q-16 -68 -37 -129l-90 -232h-141l-86 232q-15 45 -36 129h-3q-7 -95 -12 -129l-43 -279h-136l101 581h158l95 -254q26 -72 41 -130h6q17 65 40 128l100 256h151z" />
    <glyph glyph-name="N.aalt" horiz-adv-x="729" 
d="M510 581h140v-581h-129l-179 209q-50 56 -129 161q7 -168 7 -214v-156h-141v581h127l181 -209q51 -58 130 -162q-7 112 -7 215v156z" />
    <glyph glyph-name="Nacute.aalt" horiz-adv-x="729" 
d="M412 584h-132l-2 1l96 195l160 -20v-2zM510 581h140v-581h-129l-179 209q-50 56 -129 161q7 -168 7 -214v-156h-141v581h127l181 -209q51 -58 130 -162q-7 112 -7 215v156z" />
    <glyph glyph-name="napostrophe.aalt" horiz-adv-x="878" 
d="M82 775l148 -23q0 -80 -31 -150t-97 -145l-86 49l1 2q47 57 60.5 118t2.5 148zM659 581h140v-581h-129l-179 209q-50 56 -129 161q7 -168 7 -214v-156h-141v581h127l181 -209q51 -58 130 -162q-7 112 -7 215v156z" />
    <glyph glyph-name="Ncaron.aalt" horiz-adv-x="729" 
d="M461 644h-179l-122 176l1 1h117l93 -97l94 97h116l1 -1zM510 581h140v-581h-129l-179 209q-50 56 -129 161q7 -168 7 -214v-156h-141v581h127l181 -209q51 -58 130 -162q-7 112 -7 215v156z" />
    <glyph glyph-name="Ncommaaccent.aalt" horiz-adv-x="729" 
d="M510 581h140v-581h-129l-179 209q-50 56 -129 161q7 -168 7 -214v-156h-141v581h127l181 -209q51 -58 130 -162q-7 112 -7 215v156zM239 -240q33 35 46 73t11 95h139q-6 -139 -132 -216l-65 46z" />
    <glyph glyph-name="Eng.aalt" horiz-adv-x="729" 
d="M510 581h140v-494q0 -98 -31.5 -156t-99.5 -93l-136 78v2q53 20 80.5 46.5t35.5 65.5l-157 183q-51 57 -129 158q7 -168 7 -215v-156h-141v581h127l181 -209q51 -58 130 -162q-7 112 -7 215v156z" />
    <glyph glyph-name="uni0272.aalt" horiz-adv-x="729" 
d="M510 581h141v-581h-129l-180 209q-57 66 -129 161q7 -112 7 -214v-64q0 -98 -36 -157t-113 -95l-116 80v2q62 22 93 56.5t31 105.5v497h128l181 -209q62 -70 129 -162q-7 112 -7 215v156z" />
    <glyph glyph-name="Ntilde.aalt" horiz-adv-x="729" 
d="M205 601h-2l-31 83q18 22 50.5 38.5t65.5 16.5q26 0 76.5 -17.5t79.5 -17.5q49 0 93 36h2l31 -84q-54 -56 -125 -56q-32 0 -78 17.5t-71 17.5q-23 0 -48.5 -10t-42.5 -24zM510 581h140v-581h-129l-179 209q-50 56 -129 161q7 -168 7 -214v-156h-141v581h127l181 -209
q51 -58 130 -162q-7 112 -7 215v156z" />
    <glyph glyph-name="O.c2sc" horiz-adv-x="727" 
d="M363 592q71 0 130 -21t101.5 -60.5t65 -95.5t22.5 -122q0 -67 -23 -123.5t-65.5 -96.5t-102.5 -61.5t-131 -21.5q-70 0 -129 21t-100.5 60.5t-64 95t-22.5 122.5t22.5 123.5t64.5 96.5t101.5 61.5t130.5 21.5zM360 115q74 0 118 47t45 130q0 40 -9.5 69t-26 50.5
t-47.5 38t-76 16.5q-73 0 -116.5 -47t-43.5 -129t41.5 -128.5t114.5 -46.5z" />
    <glyph glyph-name="Oacute.aalt" horiz-adv-x="727" 
d="M368 839l160 -20v-2l-123 -174h-131h-2zM363 592q71 0 130 -21t101.5 -60.5t65 -95.5t22.5 -122q0 -67 -23 -123.5t-65.5 -96.5t-102.5 -61.5t-131 -21.5q-70 0 -129 21t-100.5 60.5t-64 95t-22.5 122.5t22.5 123.5t64.5 96.5t101.5 61.5t130.5 21.5zM360 115
q74 0 118 47t45 130q0 40 -9.5 69t-26 50.5t-47.5 38t-76 16.5q-73 0 -116.5 -47t-43.5 -129t41.5 -128.5t114.5 -46.5z" />
    <glyph glyph-name="Obreve.aalt" horiz-adv-x="727" 
d="M365 625q-45 0 -81 13.5t-59.5 38.5t-35.5 59.5t-12 75.5h98q0 -41 23.5 -65t66.5 -24t66.5 24t23.5 65h98q0 -41 -12 -75.5t-35.5 -59.5t-59.5 -38.5t-81 -13.5zM363 592q71 0 130 -21t101.5 -60.5t65 -95.5t22.5 -122q0 -67 -23 -123.5t-65.5 -96.5t-102.5 -61.5
t-131 -21.5q-70 0 -129 21t-100.5 60.5t-64 95t-22.5 122.5t22.5 123.5t64.5 96.5t101.5 61.5t130.5 21.5zM360 115q74 0 118 47t45 130q0 40 -9.5 69t-26 50.5t-47.5 38t-76 16.5q-73 0 -116.5 -47t-43.5 -129t41.5 -128.5t114.5 -46.5z" />
    <glyph glyph-name="Ocircumflex.aalt" horiz-adv-x="727" 
d="M575 643h-117l-93 97l-94 -97h-116l-1 1l121 176h179l122 -176zM363 592q71 0 130 -21t101.5 -60.5t65 -95.5t22.5 -122q0 -67 -23 -123.5t-65.5 -96.5t-102.5 -61.5t-131 -21.5q-70 0 -129 21t-100.5 60.5t-64 95t-22.5 122.5t22.5 123.5t64.5 96.5t101.5 61.5
t130.5 21.5zM360 115q74 0 118 47t45 130q0 40 -9.5 69t-26 50.5t-47.5 38t-76 16.5q-73 0 -116.5 -47t-43.5 -129t41.5 -128.5t114.5 -46.5z" />
    <glyph glyph-name="Odieresis.aalt" horiz-adv-x="727" 
d="M253 657q-34 0 -56.5 21t-22.5 53q0 31 24 53.5t57 22.5t55.5 -20.5t22.5 -50.5q0 -32 -24 -55.5t-56 -23.5zM475 657q-34 0 -56.5 21t-22.5 53q0 31 24.5 53.5t57.5 22.5q32 0 54.5 -20.5t22.5 -50.5q0 -32 -24 -55.5t-56 -23.5zM363 592q71 0 130 -21t101.5 -60.5
t65 -95.5t22.5 -122q0 -67 -23 -123.5t-65.5 -96.5t-102.5 -61.5t-131 -21.5q-70 0 -129 21t-100.5 60.5t-64 95t-22.5 122.5t22.5 123.5t64.5 96.5t101.5 61.5t130.5 21.5zM360 115q74 0 118 47t45 130q0 40 -9.5 69t-26 50.5t-47.5 38t-76 16.5q-73 0 -116.5 -47
t-43.5 -129t41.5 -128.5t114.5 -46.5z" />
    <glyph glyph-name="uni1ECD.aalt" horiz-adv-x="727" 
d="M363 592q71 0 130 -21t101.5 -60.5t65 -95.5t22.5 -122q0 -67 -23 -123.5t-65.5 -96.5t-102.5 -61.5t-131 -21.5q-70 0 -129 21t-100.5 60.5t-64 95t-22.5 122.5t22.5 123.5t64.5 96.5t101.5 61.5t130.5 21.5zM360 115q74 0 118 47t45 130q0 40 -9.5 69t-26 50.5
t-47.5 38t-76 16.5q-73 0 -116.5 -47t-43.5 -129t41.5 -128.5t114.5 -46.5zM360 -217q-44 0 -70.5 21t-26.5 56t28 57.5t75 22.5q44 0 70.5 -21t26.5 -55q0 -35 -28.5 -58t-74.5 -23z" />
    <glyph glyph-name="Ograve.aalt" horiz-adv-x="727" 
d="M348 839l96 -196h-2h-132l-122 174v2zM363 592q71 0 130 -21t101.5 -60.5t65 -95.5t22.5 -122q0 -67 -23 -123.5t-65.5 -96.5t-102.5 -61.5t-131 -21.5q-70 0 -129 21t-100.5 60.5t-64 95t-22.5 122.5t22.5 123.5t64.5 96.5t101.5 61.5t130.5 21.5zM360 115q74 0 118 47
t45 130q0 40 -9.5 69t-26 50.5t-47.5 38t-76 16.5q-73 0 -116.5 -47t-43.5 -129t41.5 -128.5t114.5 -46.5z" />
    <glyph glyph-name="Ohungarumlaut.aalt" horiz-adv-x="727" 
d="M252 836l159 -24v-2l-116 -167h-122h-2zM472 836l159 -24v-2l-116 -167h-122h-2zM363 592q71 0 130 -21t101.5 -60.5t65 -95.5t22.5 -122q0 -67 -23 -123.5t-65.5 -96.5t-102.5 -61.5t-131 -21.5q-70 0 -129 21t-100.5 60.5t-64 95t-22.5 122.5t22.5 123.5t64.5 96.5
t101.5 61.5t130.5 21.5zM360 115q74 0 118 47t45 130q0 40 -9.5 69t-26 50.5t-47.5 38t-76 16.5q-73 0 -116.5 -47t-43.5 -129t41.5 -128.5t114.5 -46.5z" />
    <glyph glyph-name="Omacron.aalt" horiz-adv-x="727" 
d="M541 678h-353v99l353 8v-107zM363 592q71 0 130 -21t101.5 -60.5t65 -95.5t22.5 -122q0 -67 -23 -123.5t-65.5 -96.5t-102.5 -61.5t-131 -21.5q-70 0 -129 21t-100.5 60.5t-64 95t-22.5 122.5t22.5 123.5t64.5 96.5t101.5 61.5t130.5 21.5zM360 115q74 0 118 47t45 130
q0 40 -9.5 69t-26 50.5t-47.5 38t-76 16.5q-73 0 -116.5 -47t-43.5 -129t41.5 -128.5t114.5 -46.5z" />
    <glyph glyph-name="uni01EB.aalt" horiz-adv-x="727" 
d="M467 3h-1q-39 -18 -63 -44t-24 -51q0 -16 11 -25.5t29 -9.5q29 0 63 26h2l21 -77q-53 -32 -126 -32q-62 0 -97.5 24.5t-35.5 69.5q0 31 17 59t48 49q-60 7 -110 31t-85 62.5t-53.5 90.5t-18.5 113q0 67 22.5 123.5t64.5 96.5t101.5 61.5t130.5 21.5t130 -21t101.5 -60.5
t65 -95.5t22.5 -122q0 -109 -57.5 -186t-157.5 -104zM204 290q0 -82 41.5 -128.5t114.5 -46.5q74 0 118 47t45 130q0 40 -9.5 69t-26 50.5t-47.5 38t-76 16.5q-73 0 -116.5 -47t-43.5 -129z" />
    <glyph glyph-name="Oslash.aalt" horiz-adv-x="727" 
d="M600 505q39 -39 60.5 -93.5t21.5 -118.5q0 -67 -23 -123.5t-65.5 -96.5t-102.5 -61.5t-131 -21.5q-81 0 -145 26l-23 -30h-141l72 92q-37 38 -58 93t-21 118q0 67 22.5 123.5t64.5 96.5t101.5 61.5t130.5 21.5q82 0 145 -27l21 26h141zM204 290q0 -51 17 -90l79 100h-1
l124 156q-30 10 -59 10q-73 0 -116.5 -47t-43.5 -129zM523 292q0 54 -20 94l-75 -93h1l-130 -168q30 -10 61 -10q74 0 118 47t45 130z" />
    <glyph glyph-name="Oslashacute.aalt" horiz-adv-x="727" 
d="M411 643h-132h-2l96 195l160 -19v-2zM600 505q39 -39 60.5 -93.5t21.5 -118.5q0 -67 -23 -123.5t-65.5 -96.5t-102.5 -61.5t-131 -21.5q-81 0 -145 26l-23 -30h-141l72 92q-37 38 -58 93t-21 118q0 67 22.5 123.5t64.5 96.5t101.5 61.5t130.5 21.5q82 0 145 -27l21 26
h141zM204 290q0 -51 17 -90l79 100h-1l124 156q-30 10 -59 10q-73 0 -116.5 -47t-43.5 -129zM523 292q0 54 -20 94l-75 -93h1l-130 -168q30 -10 61 -10q74 0 118 47t45 130z" />
    <glyph glyph-name="Otilde.aalt" horiz-adv-x="727" 
d="M439 658h-1q-32 0 -77.5 17.5t-70.5 17.5q-23 0 -48.5 -9.5t-43.5 -23.5h-2l-31 83q19 22 51.5 38.5t65.5 16.5q25 0 75.5 -17.5t80.5 -17.5q48 0 92 36h2l31 -84q-24 -26 -56 -41.5t-68 -15.5zM363 592q71 0 130 -21t101.5 -60.5t65 -95.5t22.5 -122q0 -67 -23 -123.5
t-65.5 -96.5t-102.5 -61.5t-131 -21.5q-70 0 -129 21t-100.5 60.5t-64 95t-22.5 122.5t22.5 123.5t64.5 96.5t101.5 61.5t130.5 21.5zM360 115q74 0 118 47t45 130q0 40 -9.5 69t-26 50.5t-47.5 38t-76 16.5q-73 0 -116.5 -47t-43.5 -129t41.5 -128.5t114.5 -46.5z" />
    <glyph glyph-name="OE.aalt" horiz-adv-x="1035" 
d="M680 104l308 6v-110h-460v26q-33 -16 -76 -26t-92 -10q-70 0 -129 21t-100.5 60.5t-64 95t-22.5 122.5t22.5 123.5t64.5 96.5t101.5 61.5t130.5 21.5q47 0 89.5 -10t75.5 -25v24h451v-110l-299 6v-136l258 5v-108l-258 5v-139zM523 292q0 40 -9.5 69t-26 50.5t-47.5 38
t-76 16.5q-73 0 -116.5 -47t-43.5 -129t41.5 -128.5t114.5 -46.5q74 0 118 47t45 130z" />
    <glyph glyph-name="P.aalt" horiz-adv-x="627" 
d="M276 593q166 0 243 -53t77 -157q0 -106 -75 -161t-216 -55q-37 0 -72 4v-171h-154v575q116 18 197 18zM291 272q78 0 115.5 25.5t37.5 80.5q0 59 -43 85t-129 26l-39 -2v-211q28 -4 58 -4z" />
    <glyph glyph-name="Thorn.aalt" horiz-adv-x="630" 
d="M276 508q166 0 243 -53t77 -157q0 -106 -75 -161t-216 -55q-37 0 -72 4v-86h-154v581h154v-74zM291 187q78 0 115.5 25.5t37.5 80.5q0 59 -43 85t-129 26l-39 -2v-212q32 -3 58 -3z" />
    <glyph glyph-name="Q.aalt" horiz-adv-x="727" 
d="M475 5v-2q27 -17 63 -32t72 -23l-81 -123h-2q-139 73 -223 168q-120 16 -190 95.5t-70 200.5q0 67 22.5 123.5t64.5 96.5t101.5 61.5t130.5 21.5t130 -21t101.5 -60.5t65 -95.5t22.5 -122q0 -107 -55.5 -183t-151.5 -105zM204 290q0 -82 41.5 -128.5t114.5 -46.5
q74 0 118 47t45 130q0 40 -9.5 69t-26 50.5t-47.5 38t-76 16.5q-73 0 -116.5 -47t-43.5 -129z" />
    <glyph glyph-name="R.aalt" horiz-adv-x="655" 
d="M477 222q30 -55 70 -113t81 -107v-2l-169 -10q-74 96 -130 211h-96v-201h-154v576q128 17 212 17q100 0 166.5 -21t103 -63.5t36.5 -109.5q0 -31 -11 -66t-40 -65t-69 -46zM233 485v-186h123q27 0 49 12.5t30.5 33.5t8.5 42q0 102 -155 102q-28 0 -56 -4z" />
    <glyph glyph-name="Racute.aalt" horiz-adv-x="655" 
d="M366 643h-132h-2l96 195l160 -19v-2zM477 222q30 -55 70 -113t81 -107v-2l-169 -10q-74 96 -130 211h-96v-201h-154v576q128 17 212 17q100 0 166.5 -21t103 -63.5t36.5 -109.5q0 -31 -11 -66.5t-40 -65t-69 -45.5zM233 485v-186h123q27 0 49 12.5t30.5 33.5t8.5 42
q0 102 -155 102q-28 0 -56 -4z" />
    <glyph glyph-name="Rcaron.aalt" horiz-adv-x="655" 
d="M415 643h-179l-122 176l1 1h117l93 -96l94 96h116l1 -1zM477 222q30 -55 70 -113t81 -107v-2l-169 -10q-74 96 -130 211h-96v-201h-154v576q128 17 212 17q100 0 166.5 -21t103 -63.5t36.5 -109.5q0 -31 -11 -66.5t-40 -65t-69 -45.5zM233 485v-186h123q27 0 49 12.5
t30.5 33.5t8.5 42q0 102 -155 102q-28 0 -56 -4z" />
    <glyph glyph-name="Rcommaaccent.aalt" horiz-adv-x="655" 
d="M477 222q30 -55 70 -113t81 -107v-2l-169 -10q-74 96 -130 211h-96v-201h-154v576q128 17 212 17q100 0 166.5 -21t103 -63.5t36.5 -109.5q0 -31 -11 -66t-40 -65t-69 -46zM233 485v-186h123q27 0 49 12.5t30.5 33.5t8.5 42q0 102 -155 102q-28 0 -56 -4zM213 -240
q34 35 46.5 73t10.5 95h139q-2 -50 -21 -94t-50 -74t-61 -48l-64 46v2z" />
    <glyph glyph-name="S.aalt" horiz-adv-x="580" 
d="M487 427h-2q-46 25 -86 37.5t-80 12.5q-47 0 -75 -16.5t-28 -43.5q0 -22 21.5 -37.5t105 -38.5t120.5 -45t56.5 -52.5t19.5 -75.5q0 -85 -72 -132.5t-198 -47.5q-133 0 -231 59l36 124h2q40 -34 85.5 -50t101.5 -16t86.5 16.5t30.5 46.5q0 24 -22 40.5t-104 37.5
t-112 37.5t-45.5 32t-27.5 40t-12 61.5q0 82 65.5 129t191.5 47q41 0 89 -8t120 -39z" />
    <glyph glyph-name="Sacute.aalt" horiz-adv-x="580" 
d="M314 839l160 -20v-2l-123 -174h-131h-2zM487 427h-2q-46 25 -86 37.5t-80 12.5q-47 0 -75 -16.5t-28 -43.5q0 -22 21.5 -37.5t105 -38.5t120.5 -45t56.5 -52.5t19.5 -75.5q0 -85 -72 -132.5t-198 -47.5q-133 0 -231 59l36 124h2q40 -34 85.5 -50t101.5 -16t86.5 16.5
t30.5 46.5q0 24 -22 40.5t-104 37.5t-112 37.5t-45.5 32t-27.5 40t-12 61.5q0 82 65.5 129t191.5 47q41 0 89 -8t120 -39z" />
    <glyph glyph-name="Scaron.aalt" horiz-adv-x="580" 
d="M521 821l1 -1l-122 -176h-179l-122 176l2 1h116l94 -97l93 97h117zM487 427h-2q-46 25 -86 37.5t-80 12.5q-47 0 -75 -16.5t-28 -43.5q0 -22 21.5 -37.5t105 -38.5t120.5 -45t56.5 -52.5t19.5 -75.5q0 -85 -72 -132.5t-198 -47.5q-133 0 -231 59l36 124h2
q40 -34 85.5 -50t101.5 -16t86.5 16.5t30.5 46.5q0 24 -22 40.5t-104 37.5t-112 37.5t-45.5 32t-27.5 40t-12 61.5q0 82 65.5 129t191.5 47q41 0 89 -8t120 -39z" />
    <glyph glyph-name="Scedilla.c2sc" horiz-adv-x="580" 
d="M539 168q0 -74 -56 -120t-156 -57l-8 -24q56 -6 82.5 -31t26.5 -64q0 -47 -38.5 -75t-115.5 -28t-118 28l23 73h2q24 -24 69 -24q54 0 54 35q0 42 -95 42l-4 5l21 62q-107 8 -188 57l36 124h2q40 -34 85.5 -50t101.5 -16t86.5 16.5t30.5 46.5q0 24 -22 40.5t-104 37.5
t-112 37.5t-45.5 32t-27.5 40t-12 61.5q0 82 65.5 129t191.5 47q41 0 89 -8t120 -39l-36 -119h-2q-46 25 -86 37.5t-80 12.5q-47 0 -75 -16.5t-28 -43.5q0 -22 21.5 -37.5t105 -38.5t120.5 -45t56.5 -52.5t19.5 -75.5z" />
    <glyph glyph-name="Scircumflex.aalt" horiz-adv-x="580" 
d="M521 643h-117l-93 97l-94 -97h-116l-2 1l122 176h179l122 -176zM487 427h-2q-46 25 -85.5 37.5t-80.5 12.5q-47 0 -75 -16.5t-28 -43.5q0 -22 21.5 -37.5t105 -38.5t120.5 -45t56.5 -52.5t19.5 -75.5q0 -85 -72 -132.5t-198 -47.5q-133 0 -231 59l36 124h2
q40 -34 85.5 -50t101.5 -16t86.5 16.5t30.5 46.5q0 24 -22 40.5t-104 37.5t-112 37.5t-45.5 32t-27.5 40t-12 61.5q0 82 65.5 129t191.5 47q41 0 89 -8t120 -39z" />
    <glyph glyph-name="Scommaaccent.aalt" horiz-adv-x="580" 
d="M487 427h-2q-46 25 -86 37.5t-80 12.5q-47 0 -75 -16.5t-28 -43.5q0 -22 21.5 -37.5t105 -38.5t120.5 -45t56.5 -52.5t19.5 -75.5q0 -85 -72 -132.5t-198 -47.5q-133 0 -231 59l36 124h2q40 -34 85.5 -50t101.5 -16t86.5 16.5t30.5 46.5q0 24 -22 40.5t-104 37.5
t-112 37.5t-45.5 32t-27.5 40t-12 61.5q0 82 65.5 129t191.5 47q41 0 89 -8t120 -39zM359 -72q-5 -139 -132 -216l-64 46l1 2q33 35 45.5 73t11.5 95h138z" />
    <glyph glyph-name="germandbls.aalt" horiz-adv-x="696" 
d="M524 336q62 -21 96 -64t34 -103q0 -82 -61 -129.5t-162 -47.5q-49 0 -95.5 12t-76.5 30l39 103h2q19 -13 50 -21.5t61 -8.5q47 0 72.5 19t25.5 51q0 35 -33 54t-96 19h-32l-7 29l114 189l-43 2q-93 0 -140.5 -40t-47.5 -115v-315h-154v333q0 61 22 110t64 82.5t103 50.5
t136 17q69 0 134 -15t104 -37v-4l-45 -92z" />
    <glyph glyph-name="uni0259.aalt" horiz-adv-x="678" 
d="M304 593q88 0 152 -24.5t103 -66.5t56.5 -95.5t17.5 -113.5q0 -65 -20 -121.5t-60 -97.5t-99.5 -63.5t-133.5 -22.5q-50 0 -100 12.5t-93.5 48t-63 90.5t-19.5 113q0 35 4 74l9 7h420q-25 144 -202 144q-100 0 -171 -43h-2l-40 104q37 23 101 39t141 16zM323 103
q68 0 107.5 35.5t47.5 102.5h-293q-2 -8 -2 -20q0 -50 36 -84t104 -34z" />
    <glyph glyph-name="T.aalt" horiz-adv-x="597" 
d="M571 581v-131h-195v-450h-156v450h-194v131h545z" />
    <glyph glyph-name="Tbar.aalt" horiz-adv-x="597" 
d="M571 450h-195v-134h117l-5 -93l-112 6v-229h-156v239l-103 6v71h103v134h-194v131h545v-131z" />
    <glyph glyph-name="Tcaron.aalt" horiz-adv-x="597" 
d="M388 644h-179l-122 176l2 1h116l94 -97l93 97h116l2 -1zM571 581v-131h-195v-450h-156v450h-194v131h545z" />
    <glyph glyph-name="tcommaaccent.aalt" horiz-adv-x="597" 
d="M376 0h-35l-10 -33q55 -6 81.5 -31t26.5 -64q0 -47 -38.5 -75t-115.5 -28t-117 28l22 73h2q12 -12 30.5 -18t38.5 -6q55 0 55 35q0 42 -96 42l-4 5l24 72h-20v450h-194v131h545v-131h-195v-450z" />
    <glyph glyph-name="uni021B.aalt" horiz-adv-x="597" 
d="M571 581v-131h-195v-450h-156v450h-194v131h545zM175 -240q33 35 46 73t11 95h139q-6 -139 -132 -216l-65 46z" />
    <glyph glyph-name="U.aalt" horiz-adv-x="696" 
d="M470 581h156v-315q0 -57 -15.5 -107t-49 -88t-87.5 -59.5t-127 -21.5q-90 0 -150.5 32t-93.5 93t-33 151v315h156v-315q0 -82 31.5 -116.5t88.5 -34.5q124 0 124 151v315z" />
    <glyph glyph-name="Uacute.aalt" horiz-adv-x="696" 
d="M391 643h-132h-2l96 195l160 -19v-2zM470 581h156v-315q0 -57 -15.5 -107t-49 -88t-87.5 -59.5t-127 -21.5q-90 0 -150.5 32t-93.5 93t-33 151v315h156v-315q0 -82 31.5 -116.5t88.5 -34.5q124 0 124 151v315z" />
    <glyph glyph-name="Ubreve.aalt" horiz-adv-x="696" 
d="M350 625q-45 0 -81 13.5t-59.5 38.5t-35.5 59.5t-12 75.5h98q0 -41 23.5 -65t66.5 -24q44 0 67 24t23 65h98q0 -41 -12 -75.5t-35.5 -59.5t-59.5 -38.5t-81 -13.5zM470 581h156v-315q0 -57 -15.5 -107t-49 -88t-87.5 -59.5t-127 -21.5q-90 0 -150.5 32t-93.5 93t-33 151
v315h156v-315q0 -82 31.5 -116.5t88.5 -34.5q124 0 124 151v315z" />
    <glyph glyph-name="Ucircumflex.aalt" horiz-adv-x="696" 
d="M257 643h-117l-1 1l122 176h179l121 -176l-1 -1h-116l-94 97zM470 581h156v-315q0 -57 -15.5 -107t-49 -88t-87.5 -59.5t-127 -21.5q-90 0 -150.5 32t-93.5 93t-33 151v315h156v-315q0 -82 31.5 -116.5t88.5 -34.5q124 0 124 151v315z" />
    <glyph glyph-name="Udieresis.aalt" horiz-adv-x="696" 
d="M238 657q-34 0 -56 21t-22 53q0 31 24 53.5t57 22.5t55 -20.5t22 -50.5q0 -32 -24 -55.5t-56 -23.5zM460 657q-34 0 -56 21t-22 53q0 31 24 53.5t57 22.5t55 -20.5t22 -50.5q0 -32 -24 -55.5t-56 -23.5zM470 581h156v-315q0 -57 -15.5 -107t-49 -88t-87.5 -59.5
t-127 -21.5q-90 0 -150.5 32t-93.5 93t-33 151v315h156v-315q0 -82 31.5 -116.5t88.5 -34.5q124 0 124 151v315z" />
    <glyph glyph-name="uni1EE5.aalt" horiz-adv-x="696" 
d="M470 581h156v-315q0 -57 -15.5 -107t-49 -88t-87.5 -59.5t-127 -21.5q-90 0 -150.5 32t-93.5 93t-33 151v315h156v-315q0 -82 31.5 -116.5t88.5 -34.5q124 0 124 151v315zM350 -60q45 0 71.5 -21t26.5 -55q0 -35 -28.5 -58t-74.5 -23q-45 0 -71 21t-26 56t28 57.5
t74 22.5z" />
    <glyph glyph-name="Ugrave.aalt" horiz-adv-x="696" 
d="M427 643h-131l-123 174v2l160 20l96 -196h-2zM470 581h156v-315q0 -57 -15.5 -107t-49 -88t-87.5 -59.5t-127 -21.5q-90 0 -150.5 32t-93.5 93t-33 151v315h156v-315q0 -82 31.5 -116.5t88.5 -34.5q124 0 124 151v315z" />
    <glyph glyph-name="Uhungarumlaut.aalt" horiz-adv-x="696" 
d="M281 643h-122h-2l80 193l159 -24v-2zM379 643h-2l80 193l159 -24v-2l-115 -167h-122zM470 581h156v-316q0 -57 -15.5 -106.5t-49 -87.5t-87.5 -59.5t-127 -21.5q-90 0 -150.5 32t-93.5 93t-33 150v316h156v-316q0 -53 13.5 -85.5t39.5 -48.5t67 -16q124 0 124 150v316z
" />
    <glyph glyph-name="Umacron.aalt" horiz-adv-x="696" 
d="M526 785v-107h-353v99zM470 581h156v-315q0 -57 -15.5 -107t-49 -88t-87.5 -59.5t-127 -21.5q-90 0 -150.5 32t-93.5 93t-33 151v315h156v-315q0 -82 31.5 -116.5t88.5 -34.5q124 0 124 151v315z" />
    <glyph glyph-name="Uogonek.aalt" horiz-adv-x="696" 
d="M470 581h156v-316q0 -39 -8.5 -80.5t-28.5 -76t-51 -60.5t-72 -40h3q-44 -18 -71.5 -45.5t-27.5 -54.5q0 -16 11 -25.5t29 -9.5q29 0 63 26h2l21 -77q-53 -32 -126 -32q-62 0 -97.5 24.5t-35.5 69.5q0 62 65 108q-76 8 -126.5 42t-78 91.5t-27.5 140.5v315h156v-315
q0 -82 31.5 -116.5t88.5 -34.5q124 0 124 151v315z" />
    <glyph glyph-name="Uring.aalt" horiz-adv-x="696" 
d="M349 621q-25 0 -54.5 12t-50.5 42.5t-21 68.5t21 69t50.5 43t54.5 12t54.5 -12t51 -43t21.5 -69q0 -24 -12.5 -53t-44.5 -49.5t-70 -20.5zM349 793q-20 0 -33 -14t-13 -35t13 -34.5t33 -13.5t33 13.5t13 34.5q0 22 -12.5 35.5t-33.5 13.5zM470 581h156v-315
q0 -57 -15.5 -107t-49 -88t-87.5 -59.5t-127 -21.5q-90 0 -150.5 32t-93.5 93t-33 151v315h156v-315q0 -82 31.5 -116.5t88.5 -34.5q124 0 124 151v315z" />
    <glyph glyph-name="Utilde.aalt" horiz-adv-x="696" 
d="M184 660h-2l-31 83q18 22 50.5 38.5t65.5 16.5q26 0 76.5 -17.5t79.5 -17.5q49 0 93 36h2l31 -84q-55 -57 -125 -57q-32 0 -78 17.5t-71 17.5q-23 0 -48.5 -9.5t-42.5 -23.5zM470 581h156v-315q0 -57 -15.5 -107t-49 -88t-87.5 -59.5t-127 -21.5q-90 0 -150.5 32
t-93.5 93t-33 151v315h156v-315q0 -82 31.5 -116.5t88.5 -34.5q124 0 124 151v315z" />
    <glyph glyph-name="V.aalt" horiz-adv-x="666" 
d="M495 581h158l-234 -581h-168l-239 572l166 14l109 -307q28 -85 47 -174h9q24 98 49 174z" />
    <glyph glyph-name="W.aalt" horiz-adv-x="925" 
d="M785 581h124l-175 -581h-160l-85 286q-11 41 -27 128h-5q-17 -97 -26 -128l-80 -286h-158l-175 571l161 15l78 -288q2 -9 5.5 -23.5t7 -35.5t9 -52t6.5 -37h4q22 116 30 148l80 283h159l84 -282q11 -40 31 -147h6q16 94 29 147z" />
    <glyph glyph-name="Wacute.aalt" horiz-adv-x="925" 
d="M505 643h-131h-2l96 195l159 -19v-2zM785 581h124l-175 -581h-160l-85 286q-11 41 -27 128h-5q-17 -97 -26 -128l-80 -286h-158l-175 571l161 15l78 -288q2 -9 5.5 -23.5t7 -35.5t9 -52t6.5 -37h4q22 116 30 148l80 283h159l84 -282q11 -40 31 -147h6q16 94 29 147z" />
    <glyph glyph-name="Wcircumflex.aalt" horiz-adv-x="925" 
d="M371 643h-116l-2 1l122 176h179l122 -176l-2 -1h-116l-93 97zM785 581h124l-175 -581h-160l-85 286q-11 41 -27 128h-5q-17 -97 -26 -128l-80 -286h-158l-175 571l161 15l78 -288q2 -9 5.5 -23.5t7 -35.5t9 -52t6.5 -37h4q22 116 30 148l80 283h159l84 -282
q11 -40 31 -147h6q16 94 29 147z" />
    <glyph glyph-name="Wdieresis.aalt" horiz-adv-x="925" 
d="M353 657q-35 0 -57 21t-22 53q0 31 24 53.5t57 22.5t55 -20.5t22 -50.5q0 -32 -24 -55.5t-55 -23.5zM575 657q-35 0 -57 21t-22 53q0 31 24 53.5t57 22.5t55 -20.5t22 -50.5q0 -32 -24 -55.5t-55 -23.5zM785 581h124l-175 -581h-160l-85 286q-11 41 -27 128h-5
q-17 -97 -26 -128l-80 -286h-158l-175 571l161 15l78 -288q2 -9 5.5 -23.5t7 -35.5t9 -52t6.5 -37h4q22 116 30 148l80 283h159l84 -282q11 -40 31 -147h6q16 94 29 147z" />
    <glyph glyph-name="Wgrave.aalt" horiz-adv-x="925" 
d="M542 643h-132l-122 174v2l160 20l96 -196h-2zM785 581h124l-175 -581h-160l-85 286q-11 41 -27 128h-5q-17 -97 -26 -128l-80 -286h-158l-175 571l161 15l78 -288q2 -9 5.5 -23.5t7 -35.5t9 -52t6.5 -37h4q22 116 30 148l80 283h159l84 -282q11 -40 31 -147h6
q16 94 29 147z" />
    <glyph glyph-name="X.aalt" horiz-adv-x="666" 
d="M444 296l216 -294v-2h-186l-144 215l-137 -215h-181v2l209 290l-198 271v2l170 24l138 -220l130 212h176v-1z" />
    <glyph glyph-name="Y.aalt" horiz-adv-x="644" 
d="M634 581l-234 -389v-192h-156v189l-230 380l166 18l103 -213q22 -45 40 -96h14q18 52 39 96l101 207h157z" />
    <glyph glyph-name="Yacute.aalt" horiz-adv-x="644" 
d="M366 643h-132h-2l96 195l160 -19v-2zM634 581l-234 -389v-192h-156v189l-230 380l166 18l103 -213q22 -45 40 -96h14q18 52 39 96l101 207h157z" />
    <glyph glyph-name="Ycircumflex.aalt" horiz-adv-x="644" 
d="M232 643h-117l-1 1l122 176h178l122 -176l-1 -1h-117l-93 97zM634 581l-234 -389v-192h-156v189l-230 380l166 18l103 -213q22 -45 40 -96h14q18 52 39 96l101 207h157z" />
    <glyph glyph-name="Ydieresis.aalt" horiz-adv-x="644" 
d="M213 657q-34 0 -56 21t-22 53q0 31 24 53.5t57 22.5t55 -20.5t22 -50.5q0 -32 -24 -55.5t-56 -23.5zM435 657q-34 0 -56 21t-22 53q0 31 24 53.5t57 22.5t55 -20.5t22 -50.5q0 -32 -24 -55.5t-56 -23.5zM634 581l-234 -389v-192h-156v189l-230 380l166 18l103 -212
q23 -50 40 -97h14q18 52 39 96l101 207h157z" />
    <glyph glyph-name="Ygrave.aalt" horiz-adv-x="644" 
d="M402 643h-132l-122 174v2l160 20l96 -196h-2zM634 581l-234 -389v-192h-156v189l-230 380l166 18l103 -213q22 -45 40 -96h14q18 52 39 96l101 207h157z" />
    <glyph glyph-name="uni0233.aalt" horiz-adv-x="644" 
d="M501 785v-107h-353v99zM634 581l-234 -389v-192h-156v189l-230 380l166 18l103 -213q22 -45 40 -96h14q18 52 39 96l101 207h157z" />
    <glyph glyph-name="uni1EF9.aalt" horiz-adv-x="644" 
d="M158 660h-2l-30 83q18 22 50.5 38.5t65.5 16.5q26 0 76.5 -17.5t79.5 -17.5q47 0 93 36h2l30 -84q-53 -57 -124 -57q-33 0 -79 17.5t-70 17.5q-23 0 -48.5 -9.5t-43.5 -23.5zM634 581l-234 -389v-192h-156v189l-230 380l166 18l103 -213q22 -45 40 -96h14q18 52 39 96
l101 207h157z" />
    <glyph glyph-name="Z.aalt" horiz-adv-x="600" 
d="M227 110l331 8v-118h-515l-7 96l326 375l-302 -8v118h479l9 -103z" />
    <glyph glyph-name="Zacute.aalt" horiz-adv-x="600" 
d="M340 643h-131h-2l96 195l160 -19v-2zM227 110l331 8v-118h-515l-7 96l326 375l-302 -8v118h479l9 -103z" />
    <glyph glyph-name="Zcaron.aalt" horiz-adv-x="600" 
d="M389 644h-179l-122 176l2 1h116l94 -97l93 97h117l1 -1zM227 110l331 8v-118h-515l-7 96l326 375l-302 -8v118h479l9 -103z" />
    <glyph glyph-name="Zdotaccent.aalt" horiz-adv-x="600" 
d="M297 654q-45 0 -71 21t-26 56t28 57.5t74 22.5q44 0 70.5 -21t26.5 -55q0 -35 -28 -58t-74 -23zM227 110l331 8v-118h-515l-8 96l327 375l-302 -8v118h479l9 -103z" />
    <glyph glyph-name="zero.lnum" horiz-adv-x="703" 
d="M352 731q67 0 123.5 -25t96.5 -73t61.5 -117.5t21.5 -154.5t-21.5 -155t-61.5 -118t-96.5 -73t-124.5 -25t-124.5 25t-96 72.5t-61 116.5t-21.5 154t21.5 155t61.5 118.5t96.5 74t124.5 25.5zM350 131q68 0 107 59t40 171q0 110 -38.5 168.5t-106.5 58.5
q-69 0 -107.5 -59.5t-38.5 -169.5q-1 -112 37.5 -170t106.5 -58z" />
    <glyph glyph-name="one.lnum" horiz-adv-x="439" 
d="M236 721h115v-721h-164v569l-128 -55l-47 132z" />
    <glyph glyph-name="two.lnum" horiz-adv-x="607" 
d="M233 112l325 10v-122h-513l-2 105l203 204q73 78 105 123t32 79q0 41 -29.5 65.5t-82.5 24.5q-41 0 -87.5 -16t-91.5 -45h-2l-44 127q116 64 240 64q57 0 104 -14t80.5 -40.5t51.5 -66t18 -88.5q0 -31 -10 -66t-44.5 -84t-123.5 -136z" />
    <glyph glyph-name="three.lnum" horiz-adv-x="610" 
d="M424 376q59 -21 97 -68t38 -111q0 -42 -18 -80t-54.5 -66.5t-92.5 -44.5t-128 -16q-74 0 -139.5 16.5t-92.5 38.5l42 122h2q36 -26 83.5 -39t94.5 -13q32 0 65.5 8.5t53.5 31.5t20 55q0 103 -208 103h-44v108h44q196 0 196 100q0 39 -30 62.5t-84 23.5q-85 0 -173 -59h-2
l-43 121q36 25 98 43.5t135 18.5q61 0 109.5 -14t81 -39t49 -59.5t16.5 -74.5q0 -28 -11.5 -61.5t-40 -62.5t-64.5 -44z" />
    <glyph glyph-name="four.lnum" horiz-adv-x="651" 
d="M617 269l-7 -109l-95 -1v-159h-157v157l-324 -4l-17 96l348 472h150v-453zM163 264l203 3v287z" />
    <glyph glyph-name="five.lnum" horiz-adv-x="605" 
d="M290 457q63 0 114.5 -16.5t86.5 -47.5t53.5 -73t18.5 -91q0 -47 -17.5 -90t-53 -76.5t-92 -53t-129.5 -19.5q-77 0 -144.5 19t-87.5 40l42 122h2q33 -26 82 -41t94 -15q68 0 104 32.5t36 81.5q0 23 -12 50t-47 45.5t-90 18.5q-66 0 -127 -26h-3l-41 76l14 328h422v-126
l-285 9l-6 -152q35 5 66 5z" />
    <glyph glyph-name="six.lnum" horiz-adv-x="664" 
d="M356 446q119 0 190.5 -60t71.5 -162q0 -52 -19 -95.5t-55 -74.5t-86 -47.5t-109 -16.5q-74 0 -131 26t-93.5 73.5t-54.5 113.5t-18 145q0 87 22 158.5t65.5 121.5t108 76.5t146.5 26.5q34 0 75 -6t76 -19t53 -26l-42 -122h-2q-34 22 -75 34t-81 12q-75 0 -123.5 -46.5
t-62.5 -142.5q62 31 144 31zM350 105q24 0 51 10.5t45 38.5t18 65q0 51 -34 82.5t-97 31.5q-27 0 -61.5 -8t-64.5 -23q6 -99 43.5 -148t99.5 -49z" />
    <glyph glyph-name="seven.lnum" horiz-adv-x="553" 
d="M519 721l18 -92q-89 -130 -147 -276t-97 -353h-184q36 163 101 309.5t171 291.5l-354 -10v130h492z" />
    <glyph glyph-name="eight.lnum" horiz-adv-x="666" 
d="M491 370q123 -63 123 -174q0 -93 -76.5 -149.5t-205.5 -56.5q-66 0 -119.5 15.5t-89.5 43t-54.5 64.5t-18.5 79q0 39 18.5 77t49 63.5t59.5 39.5q-104 62 -104 163q0 20 5.5 46t21.5 51t45.5 48t78.5 37t110 14q123 0 193 -53.5t70 -145.5q0 -53 -26.5 -92.5t-79.5 -69.5
zM335 611q-25 0 -52.5 -7t-46 -26t-18.5 -45q0 -11 5 -24t18 -25.5t36.5 -25.5t117.5 -48q58 42 58 102q0 46 -31 72.5t-87 26.5zM334 112q27 0 58 8t51 29.5t20 48.5q0 24 -15 42t-38.5 31t-45.5 22t-51.5 20t-39.5 15q-71 -40 -71 -110q0 -47 34.5 -76.5t97.5 -29.5z" />
    <glyph glyph-name="nine.lnum" horiz-adv-x="667" 
d="M324 731q74 0 129.5 -26t91 -73t52.5 -112.5t17 -144.5q0 -87 -21 -158.5t-63 -122t-107 -77.5t-149 -27q-70 0 -129.5 16.5t-83.5 36.5l44 124h2q34 -23 77.5 -35.5t84.5 -12.5q157 0 185 180q-74 -34 -152 -34q-115 0 -184 60.5t-69 163.5q0 53 19.5 98t56 77
t87.5 49.5t112 17.5zM203 492q0 -52 31.5 -83t89.5 -31q29 0 65 10t70 26q-4 102 -38.5 152t-96.5 50q-25 0 -54 -11.5t-48 -42t-19 -70.5z" />
    <glyph glyph-name="glyph467" horiz-adv-x="412" 
d="M206 285q78 0 123.5 -54.5t45.5 -151.5q0 -98 -45.5 -153.5t-124.5 -55.5q-77 0 -122.5 55t-45.5 151q0 98 45.5 153.5t123.5 55.5zM205 -40q30 0 47.5 29.5t17.5 89.5q0 115 -64 115t-64 -118q0 -116 63 -116z" />
    <glyph glyph-name="glyph468" horiz-adv-x="269" 
d="M137 283h80v-403h-106v303l-67 -28l-31 86z" />
    <glyph glyph-name="glyph469" horiz-adv-x="364" 
d="M175 -37l152 2v-85h-295l-1 65l104 104q33 33 55.5 60t22.5 49q0 20 -16.5 31.5t-44.5 11.5q-19 0 -44 -9t-48 -24h-1l-25 86q29 15 65.5 24.5t70.5 9.5q69 0 109.5 -32.5t40.5 -87.5q0 -27 -15.5 -58t-81.5 -98z" />
    <glyph glyph-name="glyph470" horiz-adv-x="363" 
d="M253 85q33 -11 53.5 -38t20.5 -62q0 -37 -21.5 -63t-58.5 -40t-89 -14q-43 0 -80 9.5t-52 21.5l26 74h1q15 -10 39 -18t53 -8q34 0 53.5 13.5t19.5 34.5q0 23 -24 36.5t-73 13.5h-34v68h34q45 0 67.5 13t22.5 35q0 18 -14 30t-42 12q-46 0 -92 -29h-1l-26 73
q19 14 54 24.5t78 10.5q73 0 110.5 -30t37.5 -73q0 -32 -18.5 -57t-44.5 -37z" />
    <glyph glyph-name="glyph471" horiz-adv-x="390" 
d="M362 37l-2 -79l-57 -1v-77h-103v75l-176 -2v73l168 256h111v-245h59zM208 175l-84 -138h84v138z" />
    <glyph glyph-name="glyph472" horiz-adv-x="360" 
d="M172 125q74 0 116 -34t42 -94q0 -43 -21 -71t-58 -42t-91 -14q-45 0 -80.5 9.5t-49.5 21.5l26 74h2q16 -14 43 -20.5t49 -6.5q37 0 54.5 15t17.5 37q0 25 -19.5 40.5t-56.5 15.5t-70 -13l-2 1l-22 46l8 184h236v-82l-149 5l-4 -73z" />
    <glyph glyph-name="glyph473" horiz-adv-x="382" 
d="M202 124q31 0 66 -11t58 -40.5t23 -72.5q0 -58 -41.5 -94t-108.5 -36q-50 0 -85.5 21.5t-56 65t-20.5 111.5q0 102 48.5 159t139.5 57q28 0 60.5 -7t52.5 -21l-27 -75h-1q-16 11 -38.5 17.5t-40.5 6.5q-35 0 -59.5 -22.5t-33.5 -68.5q29 10 64 10zM199 -54q22 0 37 14.5
t15 38.5t-17 40.5t-47 16.5q-22 0 -54 -12q3 -50 20.5 -74t45.5 -24z" />
    <glyph glyph-name="glyph474" horiz-adv-x="325" 
d="M297 282l11 -51q-41 -62 -76 -143.5t-59 -207.5h-110q40 178 137 325l-173 -5v82h270z" />
    <glyph glyph-name="glyph475" horiz-adv-x="369" 
d="M272 80q60 -38 60 -98q0 -53 -41 -83.5t-108 -30.5q-35 0 -70 11t-56 39.5t-21 64.5q0 22 8 43.5t22 36t27 22.5q-45 33 -45 86q0 36 21 64t53 38.5t64 10.5q62 0 99.5 -31t37.5 -81q0 -55 -51 -92zM185 209q-19 0 -32 -11t-13 -28q0 -15 13 -29t57 -32q20 23 20 52
q0 24 -12.5 36t-32.5 12zM186 -56q22 0 36 11t14 29q0 11 -8 22.5t-24 20.5t-52 25q-20 -20 -20 -52q0 -25 14.5 -40.5t39.5 -15.5z" />
    <glyph glyph-name="glyph476" horiz-adv-x="384" 
d="M187 284q81 0 121 -51.5t40 -146.5q0 -103 -48 -159.5t-142 -56.5q-31 0 -65.5 8t-54.5 21l27 75h1q17 -11 40.5 -17.5t45.5 -6.5q77 0 95 85q-29 -10 -64 -10q-41 0 -76 14.5t-53 44.5t-18 67q0 61 41 97t110 36zM133 153q0 -27 17 -43.5t47 -16.5q24 0 55 12
q-3 103 -64 103q-24 0 -39.5 -14.5t-15.5 -40.5z" />
    <glyph glyph-name="zero.tnum" horiz-adv-x="620" 
d="M311 733q63 0 116 -25t90.5 -73t57.5 -118t20 -155t-20 -155t-57.5 -118t-90.5 -73.5t-117 -25.5t-117 25t-90 72.5t-57 117t-20 154.5t20 155.5t57.5 119t90.5 74t117 25.5zM309 131q63 0 99 59t36 171q1 111 -34.5 170t-98.5 59t-99 -60t-36 -171q-1 -112 34.5 -170
t98.5 -58z" />
    <glyph glyph-name="one.tnum" horiz-adv-x="620" 
d="M434 110h145v-110h-503v110h194v466l-171 -61l-48 133l271 75h112v-613z" />
    <glyph glyph-name="two.tnum" horiz-adv-x="620" 
d="M227 112l358 10v-122h-552l-2 105l222 206q81 77 117 122.5t36 79.5q0 29 -19.5 51t-50 30t-59.5 8q-46 0 -97 -15.5t-99 -44.5h-2l-44 127q125 64 255 64q61 0 111.5 -14t86 -41t55 -66.5t19.5 -88.5q0 -66 -42 -126.5t-152 -158.5z" />
    <glyph glyph-name="three.tnum" horiz-adv-x="620" 
d="M431 377q62 -21 104 -69t42 -111q0 -42 -19 -79.5t-57 -66.5t-96.5 -45t-133.5 -16q-78 0 -148.5 16.5t-97.5 38.5l42 122h2q39 -26 90 -39t102 -13q28 0 55.5 4.5t52 17.5t35 33.5t10.5 40.5q0 53 -60.5 78t-164.5 25h-47v108h47q111 0 161.5 27t50.5 73q0 39 -33 63
t-94 24q-93 0 -184 -59h-2l-43 121q37 25 103 43.5t141 18.5q127 0 197.5 -52.5t70.5 -135.5q0 -28 -12.5 -61.5t-43.5 -62.5t-70 -44z" />
    <glyph glyph-name="four.tnum" horiz-adv-x="620" 
d="M602 270l-6 -110l-97 -1v-159h-153v157l-329 -3l-16 95l353 474h145v-454zM145 265l209 2v291z" />
    <glyph glyph-name="five.tnum" horiz-adv-x="620" 
d="M297 458q64 0 116.5 -16.5t89 -47.5t55.5 -73t19 -91q0 -47 -18 -90.5t-54.5 -77t-94.5 -53t-133 -19.5q-79 0 -148.5 19t-89.5 40l41 122h2q34 -26 85.5 -41t98.5 -15q26 0 53 5.5t51 21.5t34.5 40.5t10.5 47.5q0 22 -9.5 43.5t-29.5 37.5t-50 24.5t-69 8.5
q-67 0 -133 -26h-3l-40 76l14 329h434v-126l-299 9l-7 -154q36 6 74 6z" />
    <glyph glyph-name="six.tnum" horiz-adv-x="620" 
d="M333 447h-1q58 0 107 -15.5t83 -44.5t52.5 -71t18.5 -92q0 -38 -12.5 -78.5t-48 -79t-91.5 -57.5t-114 -19q-73 0 -129.5 26t-92.5 73.5t-54 114t-18 145.5q0 88 22 159.5t64.5 121.5t107 76.5t145.5 26.5q33 0 73.5 -6t75 -19t52.5 -26l-41 -122h-2q-33 22 -74 34
t-81 12q-76 0 -124.5 -47t-62.5 -144q61 32 145 32zM328 105q25 0 52 10.5t45 38.5t18 65q0 50 -33 82.5t-99 32.5q-27 0 -62.5 -8.5t-65.5 -23.5q6 -99 43.5 -148t101.5 -49z" />
    <glyph glyph-name="seven.tnum" horiz-adv-x="620" 
d="M576 723l18 -93q-102 -130 -169 -277t-110 -353h-184q19 77 53.5 176t96.5 207.5t153 219.5l-397 -10v130h539z" />
    <glyph glyph-name="eight.tnum" horiz-adv-x="620" 
d="M463 371q120 -64 120 -175q0 -93 -74 -149.5t-200 -56.5q-64 0 -116 15.5t-87 43t-53 64.5t-18 79q0 55 32.5 104t90.5 77q-101 62 -101 163q0 32 9.5 61t28 52.5t45.5 41t69.5 30t101.5 12.5q119 0 187 -53.5t68 -145.5q0 -54 -25.5 -93.5t-77.5 -69.5zM312 612
q-24 0 -51.5 -7t-45.5 -25.5t-18 -44.5q0 -28 19 -47t44.5 -32t110.5 -45q56 40 56 103q0 46 -30 72t-85 26zM311 112q27 0 57 8t49.5 29.5t19.5 49.5q0 24 -15 42t-38 31t-44 22t-50.5 20t-38.5 15q-69 -40 -69 -110q0 -48 33.5 -77.5t95.5 -29.5z" />
    <glyph glyph-name="nine.tnum" horiz-adv-x="620" 
d="M301 733q72 0 126.5 -26t89.5 -73.5t51.5 -113t16.5 -144.5q0 -87 -20.5 -158.5t-62 -122.5t-105 -78t-145.5 -27q-69 0 -127 16.5t-82 36.5l43 124h1q33 -23 76 -35.5t84 -12.5q156 0 184 181q-74 -34 -151 -34q-113 0 -181 60.5t-68 163.5q0 53 19 98t55 77.5t86.5 50
t109.5 17.5zM180 494q0 -52 32 -83.5t89 -31.5q29 0 65 10t70 26q-9 203 -135 203q-25 0 -54 -11.5t-48 -42t-19 -70.5z" />
    <glyph glyph-name="zero.dnom" horiz-adv-x="412" 
d="M206 405q78 0 123.5 -54.5t45.5 -151.5q0 -98 -45.5 -153.5t-124.5 -55.5q-77 0 -122.5 55t-45.5 151q0 98 45.5 153.5t123.5 55.5zM205 80q30 0 47.5 29t17.5 90q0 115 -64 115t-64 -118q0 -116 63 -116z" />
    <glyph glyph-name="one.dnom" horiz-adv-x="269" 
d="M138 403h80v-403h-107v303l-67 -28l-30 86z" />
    <glyph glyph-name="two.dnom" horiz-adv-x="364" 
d="M175 83l153 2v-85h-295l-2 65l105 104q33 33 55.5 60t22.5 49q0 20 -16.5 31.5t-44.5 11.5q-19 0 -44 -9t-48 -23h-1l-25 85q28 15 65 24.5t71 9.5q69 0 109 -32.5t40 -87.5q0 -27 -15.5 -58t-80.5 -98z" />
    <glyph glyph-name="three.dnom" horiz-adv-x="363" 
d="M253 205q33 -11 53.5 -38t20.5 -62q0 -37 -21.5 -63t-58.5 -40t-89 -14q-43 0 -80 9.5t-52 21.5l26 74h1q15 -10 39 -18t53 -8q34 0 53.5 13.5t19.5 34.5q0 23 -24 36.5t-73 13.5h-34v68h34q45 0 68 13t23 35q0 18 -14.5 30t-42.5 12q-46 0 -92 -29h-1l-26 73
q19 14 54 24.5t78 10.5q73 0 110.5 -30t37.5 -73q0 -32 -18.5 -57t-44.5 -37z" />
    <glyph glyph-name="four.dnom" horiz-adv-x="390" 
d="M362 157l-2 -79l-57 -1v-77h-103v75l-176 -2v73l168 256h111v-245h59zM208 295l-84 -138h84v138z" />
    <glyph glyph-name="five.dnom" horiz-adv-x="360" 
d="M172 245q74 0 116 -34t42 -94q0 -43 -21 -71t-58 -42t-91 -14q-45 0 -80.5 9.5t-49.5 21.5l26 74h2q16 -14 43 -20.5t49 -6.5q37 0 54.5 15t17.5 37q0 25 -19.5 40.5t-56.5 15.5t-70 -13l-2 1l-22 46l8 184h236v-82l-149 5l-4 -73z" />
    <glyph glyph-name="six.dnom" horiz-adv-x="382" 
d="M201 244q31 0 66 -11t58 -40.5t23 -72.5q0 -58 -41.5 -94t-108.5 -36q-50 0 -85.5 21.5t-56 65t-20.5 111.5q0 102 49 159t140 57q37 0 67.5 -9t45.5 -19l-27 -75h-1q-17 11 -39.5 17.5t-40.5 6.5q-35 0 -59.5 -22.5t-33.5 -68.5q30 10 64 10zM198 66q22 0 37.5 14.5
t15.5 38.5t-17 40.5t-47 16.5q-24 0 -54 -12q2 -50 19.5 -74t45.5 -24z" />
    <glyph glyph-name="seven.dnom" horiz-adv-x="325" 
d="M297 402l11 -51q-41 -62 -76 -143.5t-59 -207.5h-110q40 178 137 325l-173 -5v82h270z" />
    <glyph glyph-name="eight.dnom" horiz-adv-x="369" 
d="M272 200q60 -38 60 -98q0 -53 -41 -83.5t-108 -30.5q-35 0 -70 11t-56 39.5t-21 64.5q0 22 8 43.5t22 36t27 22.5q-45 33 -45 86q0 36 21 64t53 38.5t64 10.5q62 0 99.5 -31t37.5 -81q0 -55 -51 -92zM185 329q-19 0 -32 -11t-13 -28q0 -15 13 -29t57 -32q20 23 20 52
q0 24 -12.5 36t-32.5 12zM186 64q22 0 36 11t14 29q0 11 -8 22.5t-24 20.5t-52 25q-20 -20 -20 -52q0 -25 14.5 -40.5t39.5 -15.5z" />
    <glyph glyph-name="nine.dnom" horiz-adv-x="384" 
d="M187 404q81 0 121 -51.5t40 -146.5q0 -103 -48 -159.5t-142 -56.5q-31 0 -64.5 7.5t-55.5 20.5l27 75h1q41 -24 86 -24q77 0 95 86q-29 -10 -64 -10q-41 0 -76 14.5t-53 44.5t-18 67q0 61 41 97t110 36zM133 273q0 -27 17 -43.5t47 -16.5q24 0 55 12q-3 103 -64 103
q-24 0 -39.5 -14.5t-15.5 -40.5z" />
    <glyph glyph-name="zero.numr" horiz-adv-x="412" 
d="M206 731q78 0 123.5 -54.5t45.5 -151.5q0 -98 -45.5 -153.5t-124.5 -55.5q-77 0 -122.5 55t-45.5 151q0 97 45.5 153t123.5 56zM205 406q30 0 47.5 29t17.5 89q0 116 -64 116t-64 -119q0 -115 63 -115z" />
    <glyph glyph-name="one.numr" horiz-adv-x="269" 
d="M138 721h80v-403h-107v303l-67 -28l-30 86z" />
    <glyph glyph-name="two.numr" horiz-adv-x="364" 
d="M175 405l153 3v-85h-295l-2 65l105 104q33 32 55.5 59.5t22.5 49.5q0 20 -16.5 31.5t-44.5 11.5q-19 0 -44 -9t-48 -24h-1l-25 86q28 15 65 24.5t71 9.5q69 0 109 -33t40 -87q0 -28 -15 -58t-81 -98z" />
    <glyph glyph-name="three.numr" horiz-adv-x="363" 
d="M253 534q33 -11 53.5 -38t20.5 -62q0 -37 -21.5 -63t-58.5 -40t-89 -14q-43 0 -80 9.5t-52 21.5l26 74h1q15 -10 39 -18t53 -8q34 0 53.5 14t19.5 35q0 22 -24 35.5t-73 13.5h-34v69h34q45 0 68 12.5t23 34.5q0 18 -14.5 30t-42.5 12q-45 0 -92 -28h-1l-26 73
q20 14 54.5 24t77.5 10q73 0 110.5 -30t37.5 -73q0 -32 -18.5 -57t-44.5 -37z" />
    <glyph glyph-name="four.numr" horiz-adv-x="390" 
d="M362 476l-2 -80l-57 -1v-76h-103v75l-176 -3v74l168 256h111v-245h59zM208 614l-84 -138h84v138z" />
    <glyph glyph-name="five.numr" horiz-adv-x="360" 
d="M172 573q74 0 116 -34t42 -94q0 -59 -42 -93.5t-128 -34.5q-45 0 -80.5 9.5t-49.5 21.5l26 75h2q16 -14 43 -21t49 -7q37 0 54.5 15t17.5 37q0 25 -19.5 40.5t-56.5 15.5t-70 -13l-2 1l-22 46l8 184h236v-82l-149 5l-4 -73z" />
    <glyph glyph-name="six.numr" horiz-adv-x="382" 
d="M201 572q31 0 66 -11t58 -40.5t23 -72.5q0 -59 -41.5 -95t-108.5 -36q-50 0 -85.5 21.5t-56 65t-20.5 112.5q0 101 49 158t140 57q37 0 67.5 -9t45.5 -19l-27 -75h-1q-16 11 -38.5 17.5t-41.5 6.5q-35 0 -59.5 -22.5t-33.5 -68.5q29 11 64 11zM198 393q22 0 37.5 14.5
t15.5 38.5t-17 40.5t-47 16.5q-27 0 -54 -12q2 -50 19.5 -74t45.5 -24z" />
    <glyph glyph-name="seven.numr" horiz-adv-x="325" 
d="M297 721l11 -51q-41 -62 -76 -143.5t-59 -207.5h-110q40 178 137 325l-173 -5v82h270z" />
    <glyph glyph-name="eight.numr" horiz-adv-x="369" 
d="M272 527q60 -36 60 -97q0 -40 -23 -67.5t-59 -37.5t-67 -10q-35 0 -70 11t-56 39.5t-21 64.5q0 30 14.5 58t42.5 44q-45 33 -45 86q0 36 21 64t53 38.5t64 10.5q30 0 62.5 -10t53.5 -37t21 -65q0 -55 -51 -92zM185 656q-19 0 -32 -10.5t-13 -27.5q0 -10 6.5 -21t22 -20
t41.5 -21q20 23 20 52q0 24 -12.5 36t-32.5 12zM186 391q22 0 36 11t14 29q0 17 -15 31t-69 37q-20 -20 -20 -51q0 -26 14.5 -41.5t39.5 -15.5z" />
    <glyph glyph-name="nine.numr" horiz-adv-x="384" 
d="M187 731q81 0 121 -51.5t40 -146.5q0 -103 -48 -159.5t-142 -56.5q-31 0 -65.5 8t-54.5 21l27 75h1q17 -11 40.5 -17.5t45.5 -6.5q77 0 95 85q-29 -10 -64 -10q-41 0 -76 14.5t-53 44.5t-18 67q0 61 41 97t110 36zM133 600q0 -26 17 -42.5t47 -16.5q26 0 55 11
q-3 103 -64 103q-24 0 -39.5 -14.5t-15.5 -40.5z" />
    <glyph glyph-name="glyph515" horiz-adv-x="412" 
d="M206 841q82 0 129.5 -54.5t47.5 -151.5q0 -98 -48 -153.5t-130 -55.5q-81 0 -128.5 55t-47.5 151q0 98 47.5 153.5t129.5 55.5zM205 516q31 0 48.5 29t17.5 90q0 115 -64 115q-66 0 -66 -118q0 -116 64 -116z" />
    <glyph glyph-name="glyph516" horiz-adv-x="269" 
d="M140 835h92v-403h-124v302l-77 -28l-34 87l143 42v-1v1z" />
    <glyph glyph-name="glyph517" horiz-adv-x="364" 
d="M173 519l177 3v-86h-341l-1 65l120 105q51 45 71 68.5t20 40.5q0 20 -19.5 31t-51.5 11q-23 0 -52 -8.5t-55 -23.5h-1l-29 85q33 15 75.5 25t82.5 10q80 0 126.5 -33t46.5 -87q0 -28 -17.5 -58t-94.5 -98z" />
    <glyph glyph-name="glyph518" horiz-adv-x="363" 
d="M264 648q38 -11 61.5 -38t23.5 -62q0 -51 -50 -84t-146 -33q-50 0 -92.5 9.5t-57.5 21.5l28 74h2q17 -10 44.5 -18t61.5 -8q40 0 62 13.5t22 34.5q0 23 -27.5 36.5t-84.5 13.5h-40v68h40q52 0 78 13t26 35q0 17 -16 29.5t-49 12.5q-52 0 -106 -29h-1l-31 73
q24 14 63.5 24.5t89.5 10.5q82 0 127 -29t45 -74q0 -32 -21.5 -57t-51.5 -37z" />
    <glyph glyph-name="glyph519" horiz-adv-x="390" 
d="M390 589l-3 -79l-68 -1v-77h-119v76l-202 -3v73l194 257h127v-246h71zM211 727l-99 -138h99v138z" />
    <glyph glyph-name="glyph520" horiz-adv-x="360" 
d="M171 686q86 0 134 -33.5t48 -93.5t-48.5 -94t-147.5 -34q-53 0 -94 9.5t-56 21.5l30 74h2q18 -14 49 -20.5t57 -6.5q43 0 63 15t20 37q0 25 -22.5 40.5t-65.5 15.5q-42 0 -81 -13l-1 1l-25 46l7 184h274v-82l-173 5l-4 -73z" />
    <glyph glyph-name="glyph521" horiz-adv-x="382" 
d="M203 686q76 0 123.5 -33.5t47.5 -90.5q0 -59 -48 -95t-126 -36q-93 0 -139.5 53t-46.5 146q0 101 55.5 158t160.5 57q32 0 70 -7.5t61 -21.5l-31 -74h-1q-20 11 -45.5 17.5t-46.5 6.5q-41 0 -69.5 -22.5t-38.5 -68.5q36 11 74 11zM199 507q27 0 44.5 14.5t17.5 38.5
t-20 40.5t-55 16.5q-27 0 -62 -12q3 -50 23.5 -74t51.5 -24z" />
    <glyph glyph-name="glyph522" horiz-adv-x="325" 
d="M318 835l12 -52q-47 -61 -79 -127t-49 -122.5t-27 -101.5h-127q22 88 59.5 168t96.5 157l-198 -4v82h312z" />
    <glyph glyph-name="glyph523" horiz-adv-x="369" 
d="M285 641q70 -38 70 -98q0 -54 -47.5 -84t-125.5 -30q-81 0 -125 32t-44 83q0 30 16.5 57.5t48.5 43.5q-53 34 -53 87q0 50 43 81.5t118 31.5q73 0 115.5 -30t42.5 -82q0 -55 -59 -92zM185 770q-22 0 -37 -10.5t-15 -27.5q0 -15 15.5 -29.5t64.5 -32.5q24 24 24 52
q0 23 -14.5 35.5t-37.5 12.5zM185 505q25 0 41.5 11t16.5 29v2.5t-1 6t-5.5 11t-13 13t-19 11.5t-20 9t-22 9t-16.5 6q-23 -20 -23 -52q0 -25 16.5 -40.5t45.5 -15.5z" />
    <glyph glyph-name="glyph524" horiz-adv-x="384" 
d="M185 845q93 0 140 -51.5t47 -146.5q0 -103 -56 -159.5t-165 -56.5q-36 0 -76.5 8t-62.5 21l31 74h1q21 -10 48.5 -17t51.5 -7q90 0 110 86q-32 -11 -74 -11q-76 0 -122.5 34t-46.5 93q0 61 47.5 97t126.5 36zM123 714q0 -27 19.5 -43.5t54.5 -16.5q27 0 63 12
q-3 103 -74 103q-28 0 -45.5 -14.5t-17.5 -40.5z" />
    <glyph glyph-name="zero.c2sc" horiz-adv-x="676" 
d="M338 593q65 0 119 -20.5t92 -59.5t58.5 -95.5t20.5 -126.5q0 -141 -79 -222t-212 -81q-31 0 -69.5 6.5t-75.5 25t-70 52.5t-53.5 90.5t-20.5 126.5t20.5 127t58.5 96.5t92 60t119 20.5zM337 117q63 0 100 44.5t37 128.5q1 81 -35 126.5t-100 45.5q-65 0 -100.5 -45.5
t-35.5 -128.5t35 -127t99 -44z" />
    <glyph glyph-name="one.c2sc" horiz-adv-x="425" 
d="M227 581h108v-581h-156v453l-126 -45l-41 111z" />
    <glyph glyph-name="two.c2sc" horiz-adv-x="576" 
d="M231 108l301 8v-116h-489l-2 103l192 155q69 59 97 89t28 58q0 33 -27 52t-77 19q-39 0 -82.5 -11.5t-81.5 -33.5h-1l-42 113q45 23 103.5 36t116.5 13q55 0 100.5 -11.5t77.5 -33.5t49 -54.5t17 -73.5q0 -30 -13 -63.5t-52 -73.5t-114 -99z" />
    <glyph glyph-name="three.c2sc" horiz-adv-x="572" 
d="M407 303q38 -12 66.5 -36t39 -53t10.5 -54q0 -55 -33 -93t-92.5 -58.5t-148.5 -20.5q-70 0 -130.5 13.5t-85.5 32.5l39 112h2q78 -42 169 -42q60 0 91.5 18t31.5 52q0 41 -48.5 57.5t-138.5 16.5h-28v94h28q83 0 129.5 16.5t46.5 55.5q0 29 -25.5 45.5t-78.5 16.5
q-80 0 -163 -42h-2l-35 112q38 20 93 33.5t120 13.5q45 0 89 -8t78.5 -27t56 -50t21.5 -73q0 -23 -9.5 -49.5t-34.5 -49t-58 -33.5z" />
    <glyph glyph-name="four.c2sc" horiz-adv-x="602" 
d="M569 224l-7 -101l-84 -1v-122h-156v119l-286 -5l-16 94l295 372v1h163v-357h91zM163 224h177v230z" />
    <glyph glyph-name="five.c2sc" horiz-adv-x="564" 
d="M275 366q117 0 183.5 -48.5t66.5 -132.5q0 -61 -33 -105t-91.5 -68t-142.5 -24q-73 0 -138 16.5t-84 33.5l38 112h2q31 -20 79 -32.5t93 -12.5q55 0 87 21t32 58q0 36 -34 59t-99 23q-55 0 -118 -17h-3l-39 66l14 266h395v-111l-260 8l-5 -115q27 3 57 3z" />
    <glyph glyph-name="six.c2sc" horiz-adv-x="621" 
d="M344 365q109 2 170 -47t61 -133q0 -90 -67 -143.5t-182 -53.5q-70 0 -123 21t-87.5 59.5t-51 92t-16.5 117.5q0 72 20.5 131t61.5 100t102 62.5t139 21.5q64 0 116.5 -13t75.5 -29l-38 -110h-2q-32 17 -71.5 27t-74.5 10q-68 0 -114 -35.5t-60 -110.5q62 32 141 33z
M328 96q49 0 76 24t27 64q0 41 -28.5 65t-83.5 24q-62 0 -121 -33q5 -74 38.5 -109t91.5 -35z" />
    <glyph glyph-name="seven.c2sc" horiz-adv-x="513" 
d="M480 581l18 -90q-61 -75 -103.5 -149t-73 -156.5t-53.5 -185.5h-169q35 135 89.5 247.5t150.5 228.5l-311 -9v114h452z" />
    <glyph glyph-name="eight.c2sc" horiz-adv-x="622" 
d="M472 299q101 -44 101 -135q0 -81 -70.5 -128.5t-194.5 -47.5q-66 0 -116 13.5t-82 37.5t-47.5 54t-15.5 63q0 41 26 79.5t81 64.5q-87 44 -87 127q0 36 15.5 66.5t46.5 52.5t77.5 34.5t106.5 12.5q115 0 179.5 -43.5t64.5 -120.5q0 -43 -21.5 -74.5t-63.5 -55.5zM313 482
q-49 0 -77.5 -18t-28.5 -47q0 -12 6.5 -23.5t23 -21.5t40.5 -17.5t55.5 -15t38.5 -9.5q47 31 47 76q0 36 -27.5 56t-77.5 20zM311 100q24 0 51.5 6t46 23t18.5 41q0 10 -5.5 23t-24 25t-41.5 19.5t-100 27.5q-64 -31 -64 -84q0 -36 30.5 -58.5t88.5 -22.5z" />
    <glyph glyph-name="nine.c2sc" horiz-adv-x="621" 
d="M295 593q69 0 122.5 -21t87.5 -59t51 -92t17 -118q0 -72 -20.5 -130.5t-61.5 -99.5t-102 -63t-139 -22q-63 0 -116 13.5t-77 28.5l39 110h2q32 -17 71.5 -27t74.5 -10q68 0 113.5 35.5t59.5 107.5q-62 -32 -140 -33q-109 -2 -170.5 47.5t-61.5 134.5q0 91 67.5 144.5
t182.5 53.5zM189 396q0 -41 29 -65.5t84 -24.5q29 0 61.5 9t59.5 24q-10 146 -131 146q-48 0 -75.5 -24t-27.5 -65z" />
    <glyph glyph-name="exclam.case" horiz-adv-x="330" 
d="M104 245l-26 476l173 25h1l-26 -501h-122zM162 -9q-41 0 -66 23.5t-25 61.5t26.5 63.5t68.5 25.5q41 0 66.5 -23t25.5 -61t-27 -64t-69 -26z" />
    <glyph glyph-name="exclamdown.case" horiz-adv-x="329" 
d="M167 733q41 0 66 -23.5t25 -61.5t-26.5 -63.5t-68.5 -25.5q-19 0 -41 7.5t-36.5 28t-14.5 48.5q0 18 9 39t32.5 36t54.5 15zM225 479l26 -476l-172 -25h-2l26 501h122z" />
    <glyph glyph-name="question.case" horiz-adv-x="532" 
d="M167 393q47 14 81 31t54 36t28.5 38t8.5 37q0 31 -25.5 51.5t-74.5 20.5q-79 0 -165 -58h-2l-43 126q103 61 232 61q43 0 85 -9t75 -30.5t53.5 -56.5t20.5 -83q0 -71 -46 -124.5t-146 -88.5l-8 -103h-123zM232 -9q-41 0 -66.5 23.5t-25.5 61.5q0 18 8.5 38.5t32 35.5
t55.5 15q41 0 66 -23t25 -61t-26.5 -64t-68.5 -26z" />
    <glyph glyph-name="questiondown.case" horiz-adv-x="532" 
d="M303 733q40 0 65.5 -23.5t25.5 -61.5q0 -18 -8.5 -38.5t-32 -35.5t-55.5 -15q-40 0 -65.5 23.5t-25.5 60.5q0 38 26.5 64t69.5 26zM365 325q-70 -21 -107 -45t-51 -47.5t-14 -48.5q0 -22 13.5 -40t37.5 -25.5t48 -7.5q80 0 166 58h2l43 -126q-105 -60 -232 -60
q-115 0 -175 49.5t-60 129.5q0 70 46 123t147 89l8 107h122z" />
    <glyph glyph-name="braceleft.case" horiz-adv-x="396" 
d="M241 511q0 -49 -18 -89t-52 -65v-2q35 -27 52.5 -64.5t17.5 -89.5v-48q0 -55 26 -81t82 -26v-114q-113 0 -170 50t-57 141v80q0 45 -23.5 72.5t-57.5 27.5v103q24 0 44.5 16t28.5 40t8 46v63q0 210 227 210v-114q-56 0 -82 -25.5t-26 -81.5v-49z" />
    <glyph glyph-name="braceright.case" horiz-adv-x="396" 
d="M155 511v49q0 56 -26 81.5t-82 25.5v114q227 0 227 -210v-63q0 -22 8 -46t28.5 -40t44.5 -16v-103q-34 0 -57.5 -27.5t-23.5 -72.5v-80q0 -91 -57 -141t-170 -50v114q56 0 82 26t26 81v48q0 52 17.5 89.5t52.5 64.5v2q-34 25 -52 65t-18 89z" />
    <glyph glyph-name="bracketleft.case" horiz-adv-x="390" 
d="M343 659l-141 6v-623l141 6v-116h-256v843h256v-116z" />
    <glyph glyph-name="bracketright.case" horiz-adv-x="390" 
d="M303 775v-843h-256v117l141 -7v623l-141 -6v116h256z" />
    <glyph glyph-name="parenleft.case" horiz-adv-x="356" 
d="M177 358q0 -54 10.5 -114.5t30.5 -113.5t50.5 -101t69.5 -83l-1 -2l-114 -14q-86 86 -129 191t-43 236q0 127 43 229t129 189l114 -14l1 -2q-39 -35 -77.5 -94.5t-61 -143.5t-22.5 -163z" />
    <glyph glyph-name="parenright.case" horiz-adv-x="356" 
d="M18 759l1 2l114 14q86 -87 129 -189t43 -229q0 -131 -43 -236t-129 -191l-114 14l-1 2q29 26 58 66t54 98t37 126t12 122q0 79 -22.5 163t-61 143.5t-77.5 94.5z" />
    <glyph glyph-name="emdash.aalt" horiz-adv-x="1006" 
d="M72 406h864l-5 -102l-859 8v94z" />
    <glyph glyph-name="endash.aalt" horiz-adv-x="666" 
d="M72 406h523l-4 -103l-519 7v96z" />
    <glyph glyph-name="hyphen.aalt" horiz-adv-x="478" 
d="M72 407h337l-6 -113l-331 8v105z" />
    <glyph glyph-name="guillemotleft.aalt" horiz-adv-x="648" 
d="M47 400l262 169l2 -1v-104l-132 -115l132 -116v-104l-2 -1l-262 168v104zM581 568v-104l-132 -115l132 -116v-104l-2 -1l-262 168v104l262 169z" />
    <glyph glyph-name="guillemotright.aalt" horiz-adv-x="648" 
d="M67 568l2 1l262 -169v-104l-262 -168l-2 1v104l132 116l-132 115v104zM338 569l263 -169v-104l-263 -168l-2 1v104l132 116l-132 115v104z" />
    <glyph glyph-name="guilsinglleft.aalt" horiz-adv-x="378" 
d="M311 568v-104l-132 -115l132 -116v-104l-2 -1l-262 168v104l262 169z" />
    <glyph glyph-name="guilsinglright.aalt" horiz-adv-x="378" 
d="M69 569l262 -169v-104l-262 -168l-2 1v104l132 116l-132 115v104z" />
    <glyph glyph-name="braceleft.c2sc" horiz-adv-x="396" 
d="M241 407q0 -37 -18 -68.5t-52 -51.5v-2q36 -23 53 -51.5t17 -69.5v-40q0 -75 108 -75v-106q-113 0 -170 40.5t-57 113.5v66q0 35 -23.5 55.5t-57.5 20.5v91q15 0 34 7t33 26t14 45v53q0 168 227 168v-106q-108 0 -108 -75v-41z" />
    <glyph glyph-name="braceright.c2sc" horiz-adv-x="396" 
d="M155 407v41q0 75 -108 75v106q227 0 227 -168v-53q0 -16 8 -35t28.5 -31t44.5 -12v-91q-34 0 -57.5 -20.5t-23.5 -55.5v-66q0 -73 -57 -113.5t-170 -40.5v106q108 0 108 75v40q0 41 17 69.5t53 51.5v2q-34 20 -52 51.5t-18 68.5z" />
    <glyph glyph-name="bracketleft.c2sc" horiz-adv-x="390" 
d="M343 519l-141 4v-478l141 6v-108h-256v683h256v-107z" />
    <glyph glyph-name="bracketright.c2sc" horiz-adv-x="390" 
d="M303 626v-683h-256v108l141 -6v478l-141 -4v107h256z" />
    <glyph glyph-name="exclam.c2sc" horiz-adv-x="330" 
d="M104 216l-26 365l173 25l1 -1l-26 -389h-122zM162 -8q-41 0 -66 22t-25 59t26.5 61.5t68.5 24.5q41 0 66.5 -22t25.5 -59t-27 -61.5t-69 -24.5z" />
    <glyph glyph-name="exclamdown.c2sc" horiz-adv-x="329" 
d="M163 425h-1q-40 0 -65.5 22t-25.5 58q0 37 27 62t69 25q41 0 66 -22.5t25 -59.5t-26.5 -61t-68.5 -24zM225 368l26 -367l-172 -23h-2l26 390h122z" />
    <glyph glyph-name="parenleft.c2sc" horiz-adv-x="356" 
d="M177 289q0 -43 10.5 -92.5t30.5 -92.5t50.5 -81.5t69.5 -66.5l-1 -2l-114 -13q-86 69 -129 154.5t-43 193.5q0 65 17 121.5t54 110t101 105.5l114 -13l1 -2q-39 -28 -77.5 -75.5t-61 -115t-22.5 -131.5z" />
    <glyph glyph-name="parenright.c2sc" horiz-adv-x="356" 
d="M18 611l1 2l114 13q53 -43 90 -90.5t59.5 -108t22.5 -138.5q0 -108 -43 -193.5t-129 -154.5l-114 13l-1 2q29 21 58 53t54 79t37 102.5t12 98.5q0 64 -22.5 131.5t-61 115t-77.5 75.5z" />
    <glyph glyph-name="question.c2sc" horiz-adv-x="532" 
d="M294 188h-118l-9 107q55 11 96 29.5t58.5 42t17.5 47.5q0 30 -24.5 46.5t-72.5 16.5q-78 0 -168 -48h-2l-43 116q114 50 233 50q115 0 174 -42t59 -115q0 -131 -192 -191zM232 -8q-35 0 -58.5 21.5t-23.5 53.5t25 55t61 23q34 0 57.5 -21t23.5 -52q0 -33 -24.5 -56.5
t-60.5 -23.5z" />
    <glyph glyph-name="questiondown.c2sc" horiz-adv-x="532" 
d="M301 595q34 0 57.5 -21.5t23.5 -53.5t-24.5 -55t-60.5 -23q-35 0 -58.5 20.5t-23.5 52.5q0 33 25 56.5t61 23.5zM270 -8q-57 0 -112 14t-88 51.5t-33 91.5q0 65 48.5 113.5t143.5 77.5l9 59h118l9 -106q-88 -19 -130 -49.5t-42 -70.5q0 -30 25 -46.5t72 -16.5
q78 0 169 49h2l43 -117q-115 -50 -234 -50z" />
    <glyph glyph-name="glyph638" 
d="M-144 852h127l-48 -252h-104z" />
    </font>
</defs>
</svg>
